STARTFONT 2.3
FONT -FontForge-Pacifico-Book-R-Normal--36-360-72-72-P-212-ISO10646-1
SIZE 36 72 72  4
FONTBOUNDINGBOX 82 70 -22 -17
COMMENT "Generated by fontforge, http://fontforge.sourceforge.net"
COMMENT "Copyright 2018 The Pacifico Project Authors (https://github.com/googlefonts/Pacifico)"
STARTPROPERTIES 41
FOUNDRY "FontForge"
FAMILY_NAME "Pacifico"
WEIGHT_NAME "Book"
SLANT "R"
SETWIDTH_NAME "Normal"
ADD_STYLE_NAME ""
PIXEL_SIZE 36
POINT_SIZE 360
RESOLUTION_X 72
RESOLUTION_Y 72
SPACING "P"
AVERAGE_WIDTH 212
CHARSET_REGISTRY "ISO10646"
CHARSET_ENCODING "1"
FONTNAME_REGISTRY ""
CHARSET_COLLECTIONS "ISO8859-2 ISO8859-5 ISO8859-9 ISO8859-4 ISO10646-1"
BITS_PER_PIXEL 4
FONT_NAME "Pacifico-Regular"
FACE_NAME "Pacifico Regular"
COPYRIGHT "Copyright 2018 The Pacifico Project Authors (https://github.com/googlefonts/Pacifico)"
FONT_VERSION "3.001"
FONT_ASCENT 29
FONT_DESCENT 7
UNDERLINE_POSITION -4
UNDERLINE_THICKNESS 2
X_HEIGHT 16
CAP_HEIGHT 30
DEFAULT_CHAR 1
RAW_ASCENT 800
RAW_DESCENT 200
NORM_SPACE 10
RELATIVE_WEIGHT 40
RELATIVE_SETWIDTH 50
SUPERSCRIPT_X 0
SUPERSCRIPT_Y 12
SUPERSCRIPT_SIZE 21
SUBSCRIPT_X 0
SUBSCRIPT_Y 2
SUBSCRIPT_SIZE 21
AVG_LOWERCASE_WIDTH 170
AVG_UPPERCASE_WIDTH 294
ENDPROPERTIES
CHARS 1514
STARTCHAR NULL.dup1
ENCODING 0
SWIDTH 0 0
DWIDTH 0 0
BBX 1 1 0 0
BITMAP
00
ENDCHAR
STARTCHAR nonmarkingreturn
ENCODING 13
SWIDTH 265 0
DWIDTH 10 0
BBX 1 1 0 0
BITMAP
00
ENDCHAR
STARTCHAR space
ENCODING 32
SWIDTH 265 0
DWIDTH 10 0
BBX 1 1 0 0
BITMAP
00
ENDCHAR
STARTCHAR exclam
ENCODING 33
SWIDTH 340 0
DWIDTH 12 0
BBX 13 31 1 0
BITMAP
00000003BEE900
0000000DFFFF20
0000005FFFFE00
0000008FFFFB00
000000CFFFF700
000000FFFFF300
000003FFFFE000
000006FFFFA000
00000AFFFF6000
00000DFFFF2000
00001FFFFD0000
00004FFFF90000
00007FFFF40000
0000AFFFE00000
0000DFFFA00000
0001FFFF600000
0003FFFF100000
0006FFFB000000
0008FFF7000000
000BFFF2000000
000DFFB0000000
0008FE40000000
00000000000000
00000000000000
05CFD800000000
3FFFFF70000000
9FFFFFC0000000
CFFFFFD0000000
AFFFFFA0000000
5FFFFF30000000
07DFD500000000
ENDCHAR
STARTCHAR quotedbl
ENCODING 34
SWIDTH 510 0
DWIDTH 18 0
BBX 15 12 4 19
BITMAP
01AEE80001AEE700
0AFFFF300BFFFF20
0FFFFF401FFFFF30
3FFFFF204FFFFF10
5FFFFE006FFFFD00
6FFFFB007FFFF900
8FFFF7009FFFF600
9FFFF400BFFFF300
BFFFF100CFFFE000
DFFFC000EFFFB000
DFFF7000EFFF6000
5EE900006EE90000
ENDCHAR
STARTCHAR numbersign
ENCODING 35
SWIDTH 700 0
DWIDTH 25 0
BBX 24 22 1 0
BITMAP
000000001661000002750000
00000001DFFC00004FFF7000
00000007FFFE0000CFFFA000
0000000CFFFB0001FFFF6000
0000001FFFF60006FFFF2000
00AFFFFFFFFFFFFFFFFFFFC2
04FFFFFFFFFFFFFFFFFFFFF7
04FFFFFFFFFFFFFFFFFFFFF6
009DEEFFFFEEEEFFFFFEEEB1
000009FFFD0000DFFF900000
00000DFFF90003FFFF500000
00003FFFF40007FFFF100000
00007FFFF1000CFFFB000000
4DFFFFFFFFFFFFFFFFFFE800
BFFFFFFFFFFFFFFFFFFFFF00
AFFFFFFFFFFFFFFFFFFFFE00
3CEFFFFFEEEEFFFFEEEED600
000EFFF80004FFFF40000000
003FFFF40008FFFE00000000
006FFFE0000BFFFA00000000
006FFF90000AFFF400000000
001BE9000003DE6000000000
ENDCHAR
STARTCHAR dollar
ENCODING 36
SWIDTH 524 0
DWIDTH 19 0
BBX 17 31 1 -5
BITMAP
0000000005EA000000
000000000BFE000000
000000000DFC000000
000000000FFA000000
000000001FF8000000
000005ADFFFEB60000
0002CFFFFFFFFFC200
002DFFFFFFFFFFFC00
00AFFFF8BFFAFFFF40
01FFFF50BFD0CFFF60
03FFFE00DFB08FFF40
03FFFF10FF902EFB00
01FFFFA2FF70011000
00BFFFFEFF50000000
003EFFFFFFA3000000
0004EFFFFFFFA20000
000018EFFFFFFE5000
0000001CFFFFFFF300
0263000DFCBFFFFA00
2EFF300FF90AFFFD00
7FFF802FF704FFFE00
8FFFD04FF507FFFC00
5FFFFB8FF58FFFF600
0DFFFFFFFFFFFFC000
02DFFFFFFFFFFB1000
0017DFFFFFFB500000
000002FFC200000000
000001FF9000000000
000003FF7000000000
000005FF5000000000
000003EC1000000000
ENDCHAR
STARTCHAR percent
ENCODING 37
SWIDTH 896 0
DWIDTH 32 0
BBX 31 27 1 0
BITMAP
00003ADFD920000000001BE800000000
0008FFFFFFE300000000BFFF20000000
008FFFFFFFFD00000009FFFF30000000
03FFFD38FFFF500002BFFFFD00000000
09FFF409FFFFA025AFFFFFF500000000
0EFFE006FFFFFFFFFFFFFFB000000000
2FFFC002FFFFFFFFFFFFFF2000000000
3FFFB0007FFFFFFFFFFFF80000000000
2FFFC0001FFFFDB8FFFFD10000000000
1FFFF1006FFF2009FFFF500000000000
0BFFFA14EFFA003FFFFB000000000000
03FFFFFFFFE200BFFFF3000000000000
006FFFFFFE3005FFFF90000000000000
0003ADFD91001DFFFE10017CEEC60000
0000000000007FFFF6002DFFFFFFC100
000000000002EFFFC001EFFFFFFFFA00
00000000000AFFFF300AFFF914EFFF30
00000000004FFFFA001FFFC0008FFF80
0000000000CFFFE1006FFF80005FFFA0
0000000006FFFF70008FFF50003FFFB0
000000001EFFFD0000AFFF50004FFF90
000000008FFFF400009FFF60006FFF70
00000002FFFFA000007FFF9000BFFF20
0000000AFFFF2000002FFFF517FFFA00
0000000FFFF800000009FFFFFFFFE100
0000000EFFD100000001BFFFFFFD2000
00000005ED300000000006CEEC710000
ENDCHAR
STARTCHAR ampersand
ENCODING 38
SWIDTH 851 0
DWIDTH 31 0
BBX 29 35 1 -3
BITMAP
00000000005ADFED93000000000000
000000002CFFFFFFFF800000000000
00000003EFFFFFFFFFF60000000000
0000001DFFFFFEFFFFFE1000000000
0000008FFFFB3018FFFF5000000000
000000EFFFE10000CFFF8000000000
000003FFFF7000009FFFA000000000
000006FFFF4000009FFF9000000000
000007FFFF200000CFFF8000000000
000006FFFF300003FFFF4000000000
000005FFFF60000CFFFD0000000000
000001FFFFB000AFFFF50000000000
000000CFFFF32CFFFFA00000000000
0000006FFFFDFFFFFB100000000000
0000001EFFFFFFFFA1000000000000
00000009FFFFFFF700000000000000
0000019FFFFFFE3000000000000000
00003DFFFFFFFF5000000000014410
0004EFFFFFFFFFE2000000004FFFB0
003FFFFFD5DFFFFD10000002EFFFB0
01DFFFFC104FFFFFA000000CFFFF40
08FFFFD10008FFFFF80000AFFFF900
0EFFFF400000BFFFFF6008FFFFC100
3FFFFC0000001EFFFFF48FFFFE2000
5FFFFA00000003FFFFFFFFFFF40000
5FFFFC000000006FFFFFFFFE400000
3FFFFF4000000009FFFFFFE3000000
0DFFFFF8200025AFFFFFFFC1000000
04FFFFFFFFEFFFFFFFFFFFFB000000
005FFFFFFFFFFFFFFFFFFFFFA00000
0003CFFFFFFFFFFFB44FFFFFF80000
0000038BDEFEC9610006FFFFFF3000
000000000000000000008FFFFF6000
0000000000000000000009FFFE2000
000000000000000000000036610000
ENDCHAR
STARTCHAR quotesingle
ENCODING 39
SWIDTH 290 0
DWIDTH 10 0
BBX 7 12 4 19
BITMAP
01AEE800
0AFFFF30
0FFFFF40
3FFFFF20
5FFFFE00
6FFFFB00
8FFFF700
9FFFF400
BFFFF100
DFFFC000
DFFF7000
5EE90000
ENDCHAR
STARTCHAR parenleft
ENCODING 40
SWIDTH 613 0
DWIDTH 22 0
BBX 24 39 3 -5
BITMAP
00000000000016ACDDC94000
000000000019EFFFFFFFFD40
0000000004EFFFFFFFFFFFF4
000000006FFFFFFFFFFFFFF8
00000005FFFFFD72026DFFF5
0000003FFFFFA10000007D80
000000DFFFFA000000000000
000007FFFFD1000000000000
00002FFFFF30000000000000
00009FFFF900000000000000
0001FFFFF200000000000000
0007FFFF9000000000000000
000DFFFF3000000000000000
003FFFFC0000000000000000
008FFFF70000000000000000
00DFFFF20000000000000000
02FFFFC00000000000000000
05FFFF900000000000000000
09FFFF500000000000000000
0CFFFF200000000000000000
0FFFFD000000000000000000
2FFFFB000000000000000000
4FFFF9000000000000000000
6FFFF7000000000000000000
8FFFF5000000000000000000
9FFFF4000000000000000000
AFFFF3000000000000000000
AFFFF2000000000000000000
BFFFF2000000000000000000
AFFFF3000000000000000000
9FFFF4000000000000000000
6FFFF6000000001630000000
4FFFF900000002DFE2000000
0EFFFE1000004EFFF4000000
08FFFFC3003AFFFFF2000000
01EFFFFFFFFFFFFF50000000
004FFFFFFFFFFFE400000000
0004DFFFFFFFFA1000000000
000016BDFEC8200000000000
ENDCHAR
STARTCHAR parenright
ENCODING 41
SWIDTH 613 0
DWIDTH 22 0
BBX 24 39 -3 -5
BITMAP
0000000000039CDDC8300000
0000000003BFFFFFFFF91000
000000007FFFFFFFFFFFC100
00000009FFFFFFFFFFFFF900
0000006FFFFE93127FFFFF30
000000AFFFC2000006FFFF80
0000007FFA10000001EFFFD0
000000076000000000BFFFF1
0000000000000000009FFFF3
0000000000000000008FFFF4
0000000000000000007FFFF5
0000000000000000008FFFF5
0000000000000000008FFFF4
0000000000000000009FFFF4
000000000000000000AFFFF3
000000000000000000CFFFF1
000000000000000000EFFFE0
000000000000000001FFFFC0
000000000000000003FFFFA0
000000000000000007FFFF70
00000000000000000AFFFF40
00000000000000000EFFFF10
00000000000000002FFFFC00
00000000000000007FFFF800
0000000000000000CFFFF300
0000000000000002FFFFD000
0000000000000007FFFF8000
000000000000000DFFFF3000
000000000000006FFFFB0000
00000000000000DFFFF40000
00000000000007FFFFC00000
0000000000003FFFFF300000
000000000001DFFFF9000000
19A30000002DFFFFC1000000
AFFF930028EFFFFE20000000
EFFFFFFFFFFFFFE300000000
AFFFFFFFFFFFFC2000000000
08FFFFFFFFFE700000000000
0027BEFEDA61000000000000
ENDCHAR
STARTCHAR asterisk
ENCODING 42
SWIDTH 520 0
DWIDTH 19 0
BBX 15 16 4 18
BITMAP
00000009EA000000
0000003FFF500000
03DD305FFF400000
0CFFE15FFE100000
0CFFFB4FF905DE50
03EFFFBFF5BFFFD0
0018FFFFFFFFFFC0
00026EFFFFFFFC30
3CFFFFFFFF720000
CFFFFFFFFFF91000
CFFFB6FFCFFFE400
5ED60AFF5BFFFC00
00001FFF51EFFC00
00004FFF503DD400
00002FFF20000000
0000037300000000
ENDCHAR
STARTCHAR plus
ENCODING 43
SWIDTH 700 0
DWIDTH 25 0
BBX 20 22 3 0
BITMAP
00000000016610000000
000000000CFFC0000000
000000002FFFE0000000
000000004FFFC0000000
000000006FFFB0000000
000000008FFF90000000
00000000AFFF70000000
00000000CFFF50000000
00000000DFFF30000000
3CEEEEEEFFFFEEEEEEC3
CFFFFFFFFFFFFFFFFFFA
FFFFFFFFFFFFFFFFFFF8
7EFFFFFFFFFFFFFFFFB1
00000008FFF800000000
0000000AFFF700000000
0000000CFFF500000000
0000000DFFF300000000
0000000FFFF200000000
0000002FFFF000000000
0000003FFFD000000000
0000004FFFA000000000
0000000AEB1000000000
ENDCHAR
STARTCHAR comma
ENCODING 44
SWIDTH 257 0
DWIDTH 9 0
BBX 8 13 0 -6
BITMAP
00047500
009FFF90
03FFFFF0
06FFFFF1
08FFFFE0
09FFFFA0
09FFFF60
0BFFFE10
0EFFF900
1FFFF200
4FFFA000
6FFF2000
2DE60000
ENDCHAR
STARTCHAR hyphen
ENCODING 45
SWIDTH 403 0
DWIDTH 15 0
BBX 12 6 2 8
BITMAP
000235689A50
5DFFFFFFFFF1
DFFFFFFFFFF3
DFFFFFFFFFD0
7FFFDCB98610
011000000000
ENDCHAR
STARTCHAR period
ENCODING 46
SWIDTH 257 0
DWIDTH 9 0
BBX 7 7 1 0
BITMAP
06DFD600
5FFFFF40
CFFFFF90
EFFFFFA0
DFFFFF70
8FFFFE10
08DFC300
ENDCHAR
STARTCHAR slash
ENCODING 47
SWIDTH 509 0
DWIDTH 18 0
BBX 20 34 0 0
BITMAP
00000000000000004DD4
0000000000000001EFFD
0000000000000008FFFF
000000000000002FFFFC
000000000000009FFFF4
00000000000002FFFFB0
0000000000000AFFFF30
0000000000003FFFFA00
000000000000BFFFF300
000000000004FFFF9000
00000000000CFFFF2000
00000000005FFFF90000
0000000000DFFFE10000
0000000006FFFF800000
000000000DFFFE100000
000000007FFFF7000000
00000001EFFFD0000000
00000008FFFF60000000
0000001EFFFD00000000
0000008FFFF500000000
000002FFFFC000000000
000009FFFF4000000000
00002FFFFB0000000000
0000AFFFF30000000000
0003FFFFA00000000000
000BFFFF200000000000
004FFFF9000000000000
00CFFFF2000000000000
05FFFF80000000000000
0DFFFE10000000000000
5FFFF700000000000000
9FFFE100000000000000
8FFF6000000000000000
1BE90000000000000000
ENDCHAR
STARTCHAR zero
ENCODING 48
SWIDTH 543 0
DWIDTH 20 0
BBX 18 21 1 0
BITMAP
0000004ADFED920000
00001AFFFFFFFF7000
0001DFFFFFFFFFF700
000BFFFFFEFFFFFF20
006FFFFB202BFFFF80
00DFFFC00001EFFFD0
04FFFF4000008FFFF1
09FFFE0000005FFFF3
0CFFFA0000004FFFF3
0EFFF80000004FFFF3
1FFFF60000005FFFF3
2FFFF50000006FFFF1
2FFFF50000009FFFD0
1FFFF7000000CFFFA0
0EFFF9000003FFFF50
0CFFFE10000BFFFE10
07FFFFB202AFFFF700
01EFFFFFEFFFFFC000
006FFFFFFFFFFD2000
0006FFFFFFFFB20000
000028CEFDA5000000
ENDCHAR
STARTCHAR one
ENCODING 49
SWIDTH 376 0
DWIDTH 14 0
BBX 10 22 2 0
BITMAP
0000015760
0049DFFFFA
3CFFFFFFFD
CFFFFFFFFC
EFFFFFFFFA
7EC88FFFF7
00007FFFF5
0000AFFFF3
0000CFFFF1
0000EFFFE0
0001FFFFC0
0003FFFFA0
0005FFFF80
0007FFFF60
0009FFFF40
000BFFFF20
000DFFFF00
000EFFFD00
001FFFFB00
003FFFF900
001FFFF600
0006EE9000
ENDCHAR
STARTCHAR two
ENCODING 50
SWIDTH 560 0
DWIDTH 20 0
BBX 18 22 1 0
BITMAP
00000039BDDCA50000
00002CFFFFFFFFC200
0003EFFFFFFFFFFD10
001DFFFFFFFFFFFF80
007FFFFB3129FFFFE0
00CFFFB00000DFFFF2
00EFFF500000BFFFF2
00FFFF300000BFFFF1
00BFFE100001EFFFD0
001883000006FFFF80
00000000001EFFFF10
0000000000CFFFF700
000000000AFFFFB000
00000001BFFFFD1000
0000002CFFFFD20000
000007FFFFFB100000
0005DFFFFF70000000
03CFFFFFB200000000
1EFFFFFFEEEEEEEED3
4FFFFFFFFFFFFFFFFA
4FFFFFFFFFFFFFFFF8
1CFFFFFFFFFFFFFFB1
ENDCHAR
STARTCHAR three
ENCODING 51
SWIDTH 520 0
DWIDTH 19 0
BBX 17 22 1 0
BITMAP
0000048BDEDB830000
0003CFFFFFFFFF9000
004FFFFFFFFFFFF900
02EFFFFFFFFFFFFF20
08FFFF93115EFFFF60
0CFFFA000008FFFF70
0BFFF3000008FFFF60
04EFA000000CFFFE10
00010000009FFFF700
000000148DFFFF7000
000001EFFFFFC50000
000004FFFFFF930000
000001EFFFFFFF8000
0000001358EFFFF600
18A30000003FFFFD00
AFFC0000000DFFFF10
EFFF4000001EFFFF10
EFFFD40004BFFFFD00
AFFFFFFEFFFFFFF700
2EFFFFFFFFFFFFB000
03DFFFFFFFFFE80000
0005ACEFEDB7100000
ENDCHAR
STARTCHAR four
ENCODING 52
SWIDTH 577 0
DWIDTH 21 0
BBX 19 22 1 0
BITMAP
0000001AEE8000000000
000000BFFFD000000000
000005FFFF9000000000
00000DFFFE1000000000
00006FFFF80000000000
0000DFFFE10008EE7000
0005FFFF80006FFFD000
000CFFFE1000CFFFB000
004FFFF80000FFFF8000
00BFFFF20004FFFF5000
02FFFF900007FFFF2000
07FFFF300009FFFE0000
0DFFFC00000CFFFC0000
2FFFFFEEEEEFFFFFED50
3FFFFFFFFFFFFFFFFFC0
1FFFFFFFFFFFFFFFFFB0
06EFFFFFFFFFFFFFEB30
00000000006FFFF10000
00000000007FFFF00000
00000000008FFFE00000
00000000006FFFB00000
00000000001BEC300000
ENDCHAR
STARTCHAR five
ENCODING 53
SWIDTH 518 0
DWIDTH 19 0
BBX 17 21 1 0
BITMAP
0028BDEFFFFFFFED60
01EFFFFFFFFFFFFFE0
05FFFFFFFFFFFFFFD0
02CFFFFFEEEEEEED50
000DFFF80000000000
001FFFF40000000000
004FFFF10000000000
007FFFC00000000000
00AFFFFEEC95100000
00DFFFFFFFFFE60000
00DFFFFFFFFFFF9000
004BDEFFFFFFFFF600
0000000249FFFFFD00
00000000003FFFFF10
09FD2000000AFFFF10
3FFF90000009FFFF00
5FFFF200001DFFFB00
2FFFFD5103BFFFF400
0AFFFFFFFFFFFF8000
009FFFFFFFFFE60000
00028BEFEDB6100000
ENDCHAR
STARTCHAR six
ENCODING 54
SWIDTH 541 0
DWIDTH 19 0
BBX 18 22 1 0
BITMAP
000000049CDDC82000
000004DFFFFFFFF700
00006FFFFFFFFFFF60
0005FFFFFFFFFFFFE1
002EFFFF8203BFFFF5
009FFFF600001EFFF8
01FFFFB0000008FFF5
06FFFF40000001AC80
0AFFFE000000000000
0EFFFB06BEED930000
1FFFF9CFFFFFFF7000
2FFFFFFFFFFFFFF600
3FFFFFFFFFFFFFFE00
3FFFFFD4003DFFFF40
2FFFFF300005FFFF60
0EFFFE000004FFFF60
0BFFFF100008FFFF40
06FFFFB2017FFFFD00
01EFFFFFEFFFFFF700
005FFFFFFFFFFFA000
0005EFFFFFFFF80000
000018CEFDC8200000
ENDCHAR
STARTCHAR seven
ENCODING 55
SWIDTH 497 0
DWIDTH 18 0
BBX 18 22 1 0
BITMAP
004442100000001340
0BFFFFFFEEEEEEFFF6
4FFFFFFFFFFFFFFFF9
5FFFFFFFFFFFFFFFF8
1CFFFFFFFFFFFFFFD2
00000000008FFFFA10
000000001AFFFF7000
00000000BFFFF40000
00000009FFFF400000
0000006FFFF7000000
000001EFFFC0000000
000009FFFF40000000
00001FFFFC00000000
00007FFFF700000000
0000DFFFF200000000
0002FFFFD000000000
0005FFFFA000000000
0007FFFF7000000000
0008FFFF5000000000
0008FFFF3000000000
0005FFFE0000000000
00008ED40000000000
ENDCHAR
STARTCHAR eight
ENCODING 56
SWIDTH 512 0
DWIDTH 18 0
BBX 17 22 1 0
BITMAP
0000027BDEDC830000
00019FFFFFFFFFA000
000BFFFFFFFFFFFA00
008FFFFFFFFFFFFF30
00EFFFF72028FFFF70
02FFFF700000DFFF80
03FFFF400000DFFF60
02FFFF800006FFFE10
00CFFFF7008FFFF700
004FFFFFDDFFFF8000
0007FFFFFFFFE50000
0003DFFFFFFFF81000
007FFFFEFFFFFFB000
06FFFF702AFFFFF700
1EFFF500004EFFFE00
6FFFD0000007FFFF10
8FFFD0000007FFFF10
7FFFFA20017FFFFD00
3FFFFFFFEFFFFFF700
0AFFFFFFFFFFFFA000
00AFFFFFFFFFE70000
00038CEFEDB7200000
ENDCHAR
STARTCHAR nine
ENCODING 57
SWIDTH 541 0
DWIDTH 19 0
BBX 18 22 1 0
BITMAP
0000017BDEDA610000
00005EFFFFFFFD4000
0007FFFFFFFFFFE300
004FFFFFFFFFFFFD00
00CFFFF9214DFFFF50
02FFFFA00003FFFFB0
05FFFF400000EFFFE0
07FFFF300000FFFFF1
06FFFF600005FFFFF2
04FFFFE4015EFFFFF3
00DFFFFFFFFFFFFFF2
004FFFFFFFFFFFFFF1
0006FFFFFFFCAFFFD0
000029DFEC60CFFFA0
000000000001FFFF60
2CFD30000008FFFF10
8FFFC000003FFFF900
7FFFF81016EFFFE200
3FFFFFFEFFFFFF5000
09FFFFFFFFFFF70000
009FFFFFFFFD400000
0004ADFFDA61000000
ENDCHAR
STARTCHAR colon
ENCODING 58
SWIDTH 257 0
DWIDTH 9 0
BBX 8 17 1 0
BITMAP
004CFD91
02FFFFF8
08FFFFFD
0AFFFFFE
09FFFFFB
04FFFFF5
006DFD60
00000000
00000000
00000000
06DFD600
5FFFFF40
CFFFFF90
EFFFFFA0
DFFFFF70
8FFFFE10
08DFC300
ENDCHAR
STARTCHAR semicolon
ENCODING 59
SWIDTH 257 0
DWIDTH 9 0
BBX 9 23 0 -6
BITMAP
0004CFD910
002FFFFF80
008FFFFFD0
00AFFFFFE0
009FFFFFB0
004FFFFF50
0006DFD600
0000000000
0000000000
0000000000
0004750000
009FFF9000
03FFFFF000
06FFFFF100
08FFFFE000
09FFFFA000
09FFFF6000
0BFFFE1000
0EFFF90000
1FFFF20000
4FFFA00000
6FFF200000
2DE6000000
ENDCHAR
STARTCHAR less
ENCODING 60
SWIDTH 700 0
DWIDTH 25 0
BBX 21 17 3 2
BITMAP
0000000000000000047400
0000000000000038DFFF20
0000000000027CFFFFFF40
0000000016CFFFFFFFFD10
0000015BFFFFFFFFFD8100
0005AEFFFFFFFFD8300000
08EFFFFFFFFE9300000000
8FFFFFFFE9400000000000
EFFFFFB400000000000000
FFFFFFFA50000000000000
9FFFFFFFFE930000000000
039EFFFFFFFFC710000000
00016CFFFFFFFFFA500000
00000038EFFFFFFFFE4000
0000000005BFFFFFFFC000
0000000000027DFFFFA000
000000000000004AEC2000
ENDCHAR
STARTCHAR equal
ENCODING 61
SWIDTH 700 0
DWIDTH 25 0
BBX 22 12 2 5
BITMAP
009EFFFFFFFFFFFFFFFFA0
05FFFFFFFFFFFFFFFFFFF3
07FFFFFFFFFFFFFFFFFFE1
01BEEEEEEEEEEEEEEEEC40
0000000000000000000000
0000000000000000000000
0000000000000000000000
0000000000000000000000
08DEEEEEEEEEEEEEEEE900
5FFFFFFFFFFFFFFFFFFF20
7FFFFFFFFFFFFFFFFFFF10
2DFFFFFFFFFFFFFFFFE500
ENDCHAR
STARTCHAR greater
ENCODING 62
SWIDTH 700 0
DWIDTH 25 0
BBX 21 17 2 2
BITMAP
0006610000000000000000
00AFFFA400000000000000
01FFFFFFD8200000000000
00DFFFFFFFFB5000000000
0018EFFFFFFFFE93000000
000004AFFFFFFFFFC61000
000000017CFFFFFFFFE910
000000000039EFFFFFFF90
00000000000005DFFFFFB0
0000000000027DFFFFFF80
0000000027CFFFFFFFFD10
0000027CFFFFFFFFFB5000
0016CFFFFFFFFFC6100000
09FFFFFFFFFC7200000000
6FFFFFFFD8300000000000
8FFFFE9400000000000000
2DEA400000000000000000
ENDCHAR
STARTCHAR question
ENCODING 63
SWIDTH 476 0
DWIDTH 17 0
BBX 17 31 2 0
BITMAP
000005ACEFEC830000
0003CFFFFFFFFF9000
003FFFFFFFFFFFFA00
00DFFFFFEFFFFFFF30
05FFFF81006FFFFF80
09FFFA00000AFFFFA0
0BFFF6000008FFFFA0
0AFFF600000AFFFF80
04FFF400001EFFFF40
00263000008FFFFD00
0000000005FFFFF400
000000004FFFFF8000
00000004EFFFF90000
0000003EFFFF900000
000002EFFFF7000000
00000CFFFF50000000
00006FFFF500000000
0000DFFF6000000000
0003FFFB0000000000
0006FFF40000000000
0007FFD00000000000
0004FE400000000000
000010000000000000
000000000000000000
04CFD9100000000000
2EFFFF900000000000
8FFFFFD00000000000
AFFFFFE00000000000
9FFFFFC00000000000
4FFFFF500000000000
05DFD6000000000000
ENDCHAR
STARTCHAR at
ENCODING 64
SWIDTH 1015 0
DWIDTH 37 0
BBX 35 37 1 -10
BITMAP
00000000000000269CDEFFEC961000000000
0000000000016CFFFFFFFFFFFFFA30000000
00000000006EFFFFFFFFFFFFFFFFF8000000
000000002CFFFFFFFFFFEFFFFFFFFFB00000
00000004EFFFFFFA631000148EFFFFFA0000
0000005FFFFFE71000000000006EFFFF6000
000004FFFFFB1000000000000003EFFFE100
00002EFFFF9000000000000000004FFFF600
0000CFFFF90000000000000000000AFFFB00
0006FFFFB000000000000000000004FFFF00
001EFFFE100000004ADFB000000000EFFF30
007FFFF70000002BFFFFF776100000CFFF50
00DFFFE0000003EFFFFFFFFF800000BFFF50
04FFFF8000002EFFFFFFFFFF700000CFFF50
08FFFF200000CFFFFD40EFFF500000DFFF50
0DFFFD000006FFFFC102FFFF200000EFFF30
1FFFF900000DFFFE1006FFFE000003FFFF10
3FFFF600004FFFF70009FFFB000007FFFD00
6FFFF400008FFFF1000CFFF900000BFFFA00
7FFFF20000BFFFC0001FFFF600003FFFF400
8FFFF20000DFFFA0005FFFF40000BFFFD000
9FFFF10000DFFFA000BFFFF30007FFFF6000
8FFFF20000BFFFE207FFFFF8018FFFFC0000
7FFFF300008FFFFFFFFFFFFFFFFFFFE20000
5FFFF600002FFFFFFFF6EFFFFFFFFE300000
2FFFFA000006FFFFFF804FFFFFFFB2000000
0DFFFE1000004BEEC50003ADFEA500000000
08FFFF700000000000000000000000000000
02FFFFE20000000000000000000000000000
009FFFFC0000000000000000000001000000
001EFFFFC1000000000000000005CF900000
0004FFFFFD6000000000000027DFFFF10000
00005FFFFFFE95210001368DFFFFFFE00000
000004EFFFFFFFFFFEFFFFFFFFFFFE400000
0000001AFFFFFFFFFFFFFFFFFFFE71000000
000000003AFFFFFFFFFFFFFFEA5100000000
0000000000148BDEFFEDC974000000000000
ENDCHAR
STARTCHAR A
ENCODING 65
SWIDTH 786 0
DWIDTH 28 0
BBX 31 31 2 0
BITMAP
0000000000000158ADDEFEDCA7300000
000000000004AEFFFFFFFFFFFFFD0000
0000000004CFFFFFFFFFFFFFFFFF3000
000000019FFFFFFFFFFEFFFFFFFD0000
0000002DFFFFFFC7310001369CA20000
000002DFFFFFB3000000000000000000
00001DFFFFF600000002BEE900000000
0000CFFFFE300000000AFFFF50000000
0008FFFFF4000000000EFFFF40000000
002FFFFF70000000001FFFFF10000000
00AFFFFC00000000004FFFFD00000000
02FFFFF400000000007FFFF900000000
08FFFFC00000000000BFFFF600000000
0DFFFF700000000000EFFFF300000000
2FFFFF200000000003FFFFE000000000
6FFFFD000000000006FFFFC000000000
9FFFFA00000000000AFFFF9000000000
CFFFF800000000000EFFFF6000000000
DFFFF600000000004FFFFF4000000000
EFFFF500000000009FFFFF2000000000
FFFFF50000000000EFFFFF0000000000
EFFFF50000000005FFFFFD0000000000
DFFFF7000000000CFFFFFC0000000000
BFFFFB000000005FFFFFFC0000002DA0
7FFFFF10000001DFFFFFFD000001DFE0
2FFFFFA000001BFFEFFFFF10001CFFC0
0AFFFFFA2005DFFF5FFFFFB104DFFF50
02EFFFFFFEFFFFF80DFFFFFFFFFFF800
004EFFFFFFFFFFA005FFFFFFFFFF8000
0003DFFFFFFFF800007FFFFFFFE50000
000005ADFEC820000003AEFEC8200000
ENDCHAR
STARTCHAR B
ENCODING 66
SWIDTH 827 0
DWIDTH 30 0
BBX 32 33 0 -2
BITMAP
0000000000257ACDDEFEEDA851000000
00000015AEFFFFFFFFFFFFFFFE920000
000039EFFFFFFFFFFFFFFFFFFFFF6000
003BFFFFFFFFFFFFFEEFFFFFFFFFF800
06FFFFFFFFDA73210000249EFFFFFF40
1FFFFFFC62000000000000019FFFFFB0
4FFFF93000000000000000000AFFFFF1
1EFA2000157610000000000004FFFFF3
00000001DFFFB0000000000002FFFFF3
00000006FFFFB0000000000003FFFFF1
0000000AFFFF7000000000000AFFFFC0
0000000EFFFF3000000000007FFFFF50
0000002FFFFE00000000002AFFFFFA00
0000006FFFFA000001237BFFFFFFA000
000000AFFFF60007EFFFFFFFFFE70000
000000DFFFF3001FFFFFFFFFD7100000
000001FFFFF0002FFFFFFFF810000000
000003FFFFC0000BEFFFFFFFD4000000
000006FFFF9000000026DFFFFF400000
000009FFFF70000000001DFFFFD00000
00000CFFFF400000000004FFFFF30000
00000EFFFF200000000001FFFFF50000
00001FFFFE000000000001FFFFF40000
00003FFFFD000000000006FFFFF10000
00005FFFFB00000000002EFFFFC00000
00007FFFF90000000005EFFFFF400000
00009FFFF800000248DFFFFFF9000000
0000AFFFFFFEEFFFFFFFFFFF90000000
0000CFFFFFFFFFFFFFFFFFD500000000
0000DFFFFFFFFFFFFFFFC60000000000
0000EFFFFEFFFEECB851000000000000
0000DFFFF10000000000000000000000
00005DEC400000000000000000000000
ENDCHAR
STARTCHAR C
ENCODING 67
SWIDTH 686 0
DWIDTH 25 0
BBX 28 31 2 0
BITMAP
000000000027ADEFEC8200000000
000000003BFFFFFFFFFF80000000
00000008FFFFFFFFFFFFF9000000
000001BFFFFFFFEFFFFFFF400000
00001CFFFFFD62003BFFFFB00000
0000BFFFFF80000001EFFFF10000
0007FFFFF600000000AFFFF20000
001EFFFF80000000009FFFF30000
009FFFFC0000000000AFFFF20000
01FFFFF40000000000CFFFE00000
07FFFFD00000000000DFFF900000
0BFFFF7000000000008FFD200000
1FFFFF3000000000000230000000
4FFFFE0000000000000000000000
6FFFFC0000000000000000000000
8FFFFA0000000000000000000000
9FFFFA0000000000000000000000
AFFFF90000000000000000000000
AFFFFA0000000000000000000000
9FFFFB0000000000000000000000
8FFFFE0000000000000000000000
5FFFFF2000000000000000000000
1FFFFF9000000000000000000000
0BFFFFF200000000000000000000
03FFFFFD10000000000000002770
00AFFFFFD40000000000015BFFF3
001CFFFFFFB630000147BFFFFFF2
0001CFFFFFFFFFFEFFFFFFFFFFA0
000019FFFFFFFFFFFFFFFFFFF910
0000003AFFFFFFFFFFFFFFC61000
00000000269CEFFEDCA741000000
ENDCHAR
STARTCHAR D
ENCODING 68
SWIDTH 836 0
DWIDTH 30 0
BBX 29 31 1 0
BITMAP
0000000147ACDEFEDB840000000000
000016BFFFFFFFFFFFFFE810000000
0017EFFFFFFFFFFFFFFFFFE6000000
04EFFFFFFFFFFEFFFFFFFFFFA00000
2FFFFFFFB742000137DFFFFFF90000
5FFFFD71000000000006FFFFFF5000
4FFD60000000000000003EFFFFD000
0661000377500000000005FFFFF600
0000004FFFF70000000000CFFFFB00
000000BFFFF600000000006FFFFF00
000000EFFFF200000000002FFFFF30
000003FFFFD000000000000FFFFF50
000007FFFF9000000000000EFFFF60
00000BFFFF5000000000000EFFFF60
00000EFFFF2000000000000FFFFF50
00002FFFFE0000000000001FFFFF40
00005FFFFB0000000000003FFFFF20
00008FFFF80000000000006FFFFE00
0000BFFFF50000000000009FFFFB00
0000EFFFF2000000000000EFFFF700
0002FFFFF0000000000006FFFFF200
0004FFFFC000000000000DFFFFB000
0006FFFFA000000000008FFFFF4000
0009FFFF800000000005FFFFFA0000
000BFFFF60000000005FFFFFD10000
000DFFFF500000002AFFFFFE300000
000EFFFF3000136BFFFFFFE3000000
000FFFFFFEEFFFFFFFFFFC20000000
001FFFFFFFFFFFFFFFFE7000000000
000CFFFFFFFFFFFFFD610000000000
00017ABDEFFEDB9620000000000000
ENDCHAR
STARTCHAR E
ENCODING 69
SWIDTH 686 0
DWIDTH 25 0
BBX 29 31 1 0
BITMAP
000000000037ADEFEDB82000000000
000000005CFFFFFFFFFFFA10000000
0000002BFFFFFFFFFFFFFFD1000000
000002DFFFFFFFFEFFFFFFFA000000
00001DFFFFFD6200028FFFFF300000
00008FFFFF8000000008FFFF700000
0000EFFFFA0000000003FFFF900000
0004FFFFF30000000002FFFF900000
0005FFFFF00000000004FFFF800000
0005FFFFF00000000006FFFF400000
0003FFFFF40000000006FFFD000000
0000CFFFFD20000000009DB2000000
00003EFFFFE8310000000000000000
000003EFFFFFFFFD10000000000000
00000019FFFFFFFF40000000000000
000017DFFFFFFFFF20000000000000
0006EFFFFFFFFED700000000000000
008FFFFFE952000000000000000000
06FFFFF91000000000000000000000
1EFFFF800000000000000000000000
7FFFFD000000000000000000000000
BFFFF9000000000000000000000000
DFFFF7000000000000000000000000
DFFFF9000000000000000000000000
BFFFFE200000000000000000038800
6FFFFFD30000000000000037CFFF30
0CFFFFFFA63100001257AEFFFFFF20
02EFFFFFFFFFFEEFFFFFFFFFFFFB00
002BFFFFFFFFFFFFFFFFFFFFFF8100
00004BFFFFFFFFFFFFFFFFFB710000
000000158BDEFFFEDCA86300000000
ENDCHAR
STARTCHAR F
ENCODING 70
SWIDTH 712 0
DWIDTH 26 0
BBX 34 31 0 0
BITMAP
00000000000258ABCDEFFFFFEEDCBA9740
0000000049EFFFFFFFFFFFFFFFFFFFFFF7
0000005DFFFFFFFFFFFFFFFFFFFFFFFFFA
000009FFFFFFFFFFFFFEEEEEEEEFFFFFF5
00009FFFFFB7429FFFF700000000235620
0003FFFFB20000AFFFF600000000000000
0009FFFD000000BFFFF400000000000000
000CFFF8000000DFFFF300000000000000
000DFFF7000000EFFFF200000000000000
000CFFFA000000FFFFF100000000000000
0009FFFF100002FFFFE000000000000000
0004FFFF400003FFFFD000000000000000
00007EE8000005FFFFB000000000000000
00000000000006FFFFA000000000000000
0000000002CFFFFFFFFFFFFFFE80000000
0000000009FFFFFFFFFFFFFFFFF0000000
000000000AFFFFFFFFFFFFFFFFC0000000
0000000002BEEFFFFFEEEEEEDA20000000
0000000000000FFFFF0000000000000000
0000000000002FFFFD0000000000000000
0000000000004FFFFB0000000000000000
0000000000006FFFF80000000000000000
000000000000AFFFF60000000000000000
393000000001EFFFF10000000000000000
CFE200000006FFFFC00000000000000000
FFFD2000003EFFFF600000000000000000
DFFFE61016EFFFFE000000000000000000
6FFFFFFEFFFFFFF5000000000000000000
08FFFFFFFFFFFF70000000000000000000
005EFFFFFFFFE500000000000000000000
00016ADFEDA61000000000000000000000
ENDCHAR
STARTCHAR G
ENCODING 71
SWIDTH 811 0
DWIDTH 29 0
BBX 32 48 2 -17
BITMAP
0000000000169CEFEDB7100000000000
0000000029EFFFFFFFFFE60000000000
00000007EFFFFFFFFFFFFF7000000000
000001AFFFFFFFFEFFFFFFF300000000
00001BFFFFFE730004CFFFFA00000000
0000AFFFFF910000002EFFFE00000000
0006FFFFF6000000000BFFFF20000000
001EFFFF800000000009FFFF30000000
009FFFFC00000000000AFFFF30000000
01EFFFF500000000000CFFFF10000000
07FFFFD000000000000DFFFB00000000
0BFFFF7000000000000AFFF500000000
1FFFFF30000000000001894000000000
4FFFFE00000000000000000000000000
6FFFFC00000000000000000000000000
8FFFFA00000000000000000000000000
9FFFFA00000000000000000000000000
AFFFF900000000000000000000000000
AFFFFA0000000008DEEEEEED80000000
9FFFFB000000003FFFFFFFFFF2000000
8FFFFE000000003FFFFFFFFFF1000000
5FFFFF200000000AEFFFFFFFE0000000
1FFFFF800000000000009FFFC0000000
0BFFFFE2000000000000BFFF90000440
03FFFFFC100000000000DFFF7001AFF1
00AFFFFFD30000000000FFFF506EFFF1
001DFFFFFFB62000137CFFFF4AFFFFC0
0002DFFFFFFFFFEEFFFFFFFFEFFFFA10
00001AFFFFFFFFFFFFFFFFFFFFFE5000
0000004BFFFFFFFFFFFFFFFFFFB10000
0000000027ADEFFDB84BFFFFE6000000
000000000000000001AFFFFC20000000
00000000000000001CFFFFF300000000
0000000000000002DFFFFFE000000000
000000000000003EFFFFFFB000000000
00000000000002EFFCAFFF8000000000
0000000000001DFFC1CFFF4000000000
000000000000BFFD11FFFE0000000000
000000000007FFE205FFFB0000000000
00000000001EFF7009FFF60000000000
00000000007FFE000EFFF10000000000
0000000000CFF9005FFFA00000000000
0000000000FFF600DFFF300000000000
0000000001FFF909FFFB000000000000
0000000001FFFFFFFFF3000000000000
0000000000CFFFFFFF80000000000000
00000000004FFFFFF900000000000000
000000000003BEEB5000000000000000
ENDCHAR
STARTCHAR H
ENCODING 72
SWIDTH 873 0
DWIDTH 31 0
BBX 38 32 -1 0
BITMAP
000000000000000000000000000029DFC40000
00000038CEFC7000000000000005EFFFFF3000
00001AFFFFFFFA0000000000005FFFFFFFB000
0004EFFFFFFFFF500000000002EFFF53FFF100
005FFFFFEFFFFFB0000000000BFFF800CFF300
04FFFF8107FFFFE0000000004FFFE100CFF400
1EFFE30000EFFFF100000000CFFF8000DFF300
6FFE300000CFFFF100000003FFFF2001FFF100
8FF5000000CFFFF100000008FFFD0004FFE000
3D70000000DFFFF00000000DFFF8000AFFA000
0000000000EFFFE00000003FFFF4003FFF4000
0000000001FFFFD00000008FFFF101DFFD0000
0000000002FFFFB0000000BFFFD02CFFF40000
0000000005FFFF90000000EFFFB8EFFF800000
0000000007FFFF60000002FFFFFFFFFA000000
0000000009FFFF8555667BFFFFFFFF80000000
000008DEEFFFFFFFFFFFFFFFFFFFC300000000
00006FFFFFFFFFFFFFFFFFFFFFC50000000000
00008FFFFFFFFFFFFFFFDEFFFF200000000000
00002CFFFFFFFB8764310CFFFF200000000000
00000000AFFFF40000000DFFFF100000000000
00000000EFFFF10000000DFFFF100000000000
00000002FFFFD00000000CFFFF200000000000
00000005FFFFA00000000BFFFF300000000110
00000009FFFF7000000009FFFF500000002ED0
0000000CFFFF3000000006FFFF90000001CFF1
0000001FFFFF0000000002FFFFE100001BFFE0
0000004FFFFC0000000000CFFFFC2015DFFF60
0000008FFFF800000000004FFFFFFEFFFFF900
000000AFFFF4000000000008FFFFFFFFFF9000
0000009FFFC00000000000008FFFFFFFE60000
0000002CEB20000000000000039DFEC7100000
ENDCHAR
STARTCHAR I
ENCODING 73
SWIDTH 495 0
DWIDTH 18 0
BBX 21 31 -1 0
BITMAP
000005CEFFFFFFFFFFFD60
00002FFFFFFFFFFFFFFFE0
00005FFFFFFFFFFFFFFFB0
00001ADEEEFFFFFEEEDA20
0000000002FFFFF0000000
0000000004FFFFC0000000
0000000006FFFFA0000000
0000000008FFFF70000000
000000000AFFFF50000000
000000000DFFFF30000000
000000000FFFFF00000000
000000002FFFFD00000000
000000005FFFFB00000000
000000007FFFF800000000
00000000AFFFF600000000
00000000CFFFF400000000
00000000EFFFF100000000
00000002FFFFE000000000
00000004FFFFC000000000
00000006FFFFA000000000
00000009FFFF8000000000
0000000BFFFF5000000000
0000000DFFFF3000000000
0000000FFFFF1000000000
0000003FFFFE0000000000
0000005FFFFC0000000000
0000007FFFFA0000000000
039CDEEFFFFFEEDB300000
4FFFFFFFFFFFFFFFD00000
9FFFFFFFFFFFFFFFC00000
3DFFFFFFFFFFFFEB200000
ENDCHAR
STARTCHAR J
ENCODING 74
SWIDTH 743 0
DWIDTH 27 0
BBX 26 34 2 -3
BITMAP
0000000158ACDEEFEEDCA86300
000016CFFFFFFFFFFFFFFFFFC2
0005EFFFFFFFFFFFFFFFFFFFF8
007FFFFFFFFFFEEEFFFFFFFFF6
05FFFFFC85210000017FFFFD70
0CFFFE4000000000008FFFF900
3FFFF4000000000000AFFFF700
5FFFE0000000000000CFFFF500
6FFFE0000000000000DFFFF300
5FFFF3000000000000FFFFF100
2FFFF9000000000002FFFFD000
0BFFFA000000000004FFFFB000
02DFB2000000000006FFFF9000
000000000000000008FFFF6000
00000000000000017EFFFF4000
00000000000003AFFFFFFF1000
000000000002AFFFFFFFFD0000
00000000008FFFFFFFFFFA0000
000000003DFFFFFB9FFFF60000
00000005EFFFFC309FFFF30000
0000005FFFFF6000DFFFE00000
000004FFFFE30001FFFF900000
00001EFFFE200006FFFF500000
00009FFFF400000AFFFE100000
0001FFFFA000001EFFF9000000
0006FFFF4000006FFFF3000000
0009FFFF000000DFFFC0000000
000AFFFE000007FFFF40000000
000BFFFF10004FFFFB00000000
0009FFFF9106EFFFE200000000
0004FFFFFFFFFFFF5000000000
0000BFFFFFFFFFF60000000000
00001BFFFFFFFE400000000000
0000006BEFEB71000000000000
ENDCHAR
STARTCHAR K
ENCODING 75
SWIDTH 937 0
DWIDTH 34 0
BBX 38 31 1 0
BITMAP
000000048BDEFFECA6200000000005CEC20000
000005DFFFFFFFFFFFFA000000003FFFF90000
0001BFFFFFFFFFFFFFFF400000009FFFF90000
000CFFFFFFFEEFFFFFFF30000000EFFFF40000
008FFFFD620006FFFFE900000005FFFFE00000
01EFFFB0000008FFFF800000000BFFFF900000
05FFFE1000000AFFFF600000003FFFFF200000
08FFFB0000000CFFFF40000000AFFFFA000000
09FFFA0000000EFFFF20000003FFFFF3000000
08FFFC0000001FFFFF0000000BFFFF90000000
06FFFF3000003FFFFD0000007FFFFD10000000
01FFFF7000005FFFFA000004FFFFE300000000
00AFFF4000007FFFF800004EFFFF5000000000
0019A40000009FFFF60018FFFFF50000000000
000000000000BFFFF659EFFFFE400000000000
0000000002DFFFFFFFFFFFFFA1000000000000
0000000009FFFFFFFFFFFFB300000000000000
000000000AFFFFFFFFFFFB3000000000000000
0000000003CEFFFFFFFFFFF800000000000000
000000000007FFFF82AFFFFF80000000000000
000000000009FFFF500BFFFFF2000000000000
00000000000CFFFF3002EFFFFA000000000000
00000000000EFFFF00008FFFFF300000000000
4DB00000003FFFFC00001EFFFFA000000008D2
DFF80000008FFFF8000009FFFFF30000006FF5
FFFF400002EFFFF3000002FFFFFC000006FFF4
DFFFE6104DFFFFC00000008FFFFFB2029FFFC0
7FFFFFFEFFFFFF400000001DFFFFFFEFFFFD20
0BFFFFFFFFFFF70000000004FFFFFFFFFFD200
019FFFFFFFFE6000000000004EFFFFFFFA1000
00039CEFEB71000000000000028DEFDA400000
ENDCHAR
STARTCHAR L
ENCODING 76
SWIDTH 673 0
DWIDTH 24 0
BBX 31 31 -2 0
BITMAP
00000000000000016ADEFEC830000000
000000000000019FFFFFFFFFF9000000
0000000000004EFFFFFFFFFFFFB00000
000000000005FFFFFFFFFFFFFFF70000
00000000004FFFFFD62002AFFFFE0000
0000000001EFFFFB1000000CFFFF3000
0000000008FFFFD100000007FFFF6000
000000001EFFFF5000000005FFFF6000
000000006FFFFE0000000007FFFF5000
00000000AFFFF90000000009FFFF3000
00000000DFFFF6000000000AFFFD0000
00000000FFFFF30000000005FFF40000
00000002FFFFF1000000000035200000
00000003FFFFE0000000000000000000
00000004FFFFD0000000000000000000
00000005FFFFB0000000000000000000
00000006FFFFA0000000000000000000
00000006FFFF80000000000000000000
00000007FFFF70000000000000000000
00000008FFFF50000000000000000000
00000009FFFF40000000000000000000
0000000AFFFF20000000000000000000
0000000BFFFF10000000000000000000
0000000CFFFD00000000000000002B70
0017CEFFFFFE8641000000000005EFD0
04EFFFFFFFFFFFFFDA85310136CFFFB0
2EFFFFFFFFFFFFFFFFFFFFFFFFFFFF60
6FFFFFFFFFBDFFFFFFFFFFFFFFFFF900
6FFFFFFFFC004AFFFFFFFFFFFFFF8000
1DFFFFFFC1000017DFFFFFFFFFE50000
017CEEC610000000048CEFEDA5100000
ENDCHAR
STARTCHAR M
ENCODING 77
SWIDTH 1232 0
DWIDTH 44 0
BBX 49 31 0 0
BITMAP
0000028CEEC400000004ADFEA2000000028CEFD71000000000
00007FFFFFFF400002BFFFFFFE3000008FFFFFFFC100000000
001BFFFFFFFFC0003EFFFFFFFFD0000BFFFFFFFFF800000000
01CFFFFEFFFFF102DFFFFFFFFFF5009FFFFFFFFFFE00000000
0BFFFB309FFFF20BFFE7106FFFF805FFF9107FFFFF30000000
6FFF90005FFFF25FFE30000DFFFA1DFF60000EFFFF50000000
DFFA00006FFFF1DFF400000BFFFB7FF800000DFFFF50000000
FFC000006FFFE5FF8000000BFFFAEFD000000DFFFF40000000
7B2000007FFFCCFE1000000CFFFCFF5000000FFFFF30000000
000000009FFFCFF70000000EFFFFFC0000003FFFFF10000000
00000000BFFFFFE10000001FFFFFF60000006FFFFD00000000
00000000DFFFFF900000003FFFFFE10000009FFFFA00000000
00000000FFFFFF400000005FFFFFA0000000CFFFF700000000
00000002FFFFFE000000007FFFFF40000001FFFFF300000000
00000004FFFFF900000000AFFFFE00000003FFFFF100000000
00000006FFFFF500000000CFFFFB00000007FFFFC000000000
00000008FFFFF100000000FFFFF70000000AFFFF9000000000
0000000BFFFFC000000003FFFFF30000000DFFFF6000000000
0000000DFFFF8000000005FFFFE00000001FFFFF3000000000
0000000FFFFF5000000008FFFFB00000004FFFFE0000000000
0000003FFFFF200000000BFFFF900000006FFFFC0000000000
0000005FFFFE000000000DFFFF600000008FFFF90000000000
0000008FFFFC000000001FFFFF30000000AFFFF70000000000
000000AFFFF9000000004FFFFF10000000BFFFF60000002DB0
000000CFFFF7000000006FFFFE00000000BFFFF6000001CFF0
000000EFFFF4000000008FFFFC00000000AFFFF900001BFFD0
000001FFFFF200000000AFFFFA000000007FFFFF6005DFFF60
000002FFFFF000000000BFFFF7000000001FFFFFFFFFFFF900
000002FFFFD000000000BFFFF50000000008FFFFFFFFFF9000
000000EFFF90000000009FFFE100000000009FFFFFFFE60000
0000005DEB20000000002CED50000000000004ADFEC7100000
ENDCHAR
STARTCHAR N
ENCODING 78
SWIDTH 884 0
DWIDTH 32 0
BBX 37 31 0 0
BITMAP
0000017BEFD7000000005ADEEC810000000000
00007EFFFFFF8000003CFFFFFFFE3000000000
001BFFFFFFFFF10005FFFFFFFFFFD000000000
01CFFFFEFFFFF4004FFFFFFFFFFFF500000000
0BFFFB309FFFF602EFFD5005EFFFFA00000000
7FFF90005FFFF50BFFA100008FFFFC00000000
DFF900005FFFF55FFB0000006FFFFC00000000
FFC000006FFFF3CFD10000006FFFFB00000000
7B2000008FFFF6FF500000008FFFFA00000000
000000009FFFFBFB00000000BFFFF700000000
00000000BFFFEFF400000000EFFFF500000000
00000000DFFFFFC000000002FFFFF200000000
00000000FFFFFF7000000005FFFFE000000000
00000002FFFFFF1000000008FFFFB000000000
00000004FFFFFB000000000BFFFF7000000000
00000006FFFFF6000000000EFFFF4000000000
00000008FFFFF2000000003FFFFF1000000000
0000000BFFFFD0000000006FFFFD0000000000
0000000DFFFF90000000009FFFFA0000000000
0000001FFFFF5000000000CFFFF70000000000
0000003FFFFF2000000000EFFFF40000000000
0000005FFFFE0000000001FFFFF10000000000
0000008FFFFC0000000003FFFFE00000000000
000000AFFFF90000000004FFFFD00000007F30
000000CFFFF60000000004FFFFD0000006FF70
000000EFFFF40000000003FFFFF200005FFF50
000001FFFFF20000000000EFFFFB2029FFFD00
000002FFFFF000000000009FFFFFFEFFFFE200
000002FFFFD000000000002EFFFFFFFFFD3000
000000EFFF90000000000003EFFFFFFFB10000
0000005DEB2000000000000018CEFDA4000000
ENDCHAR
STARTCHAR O
ENCODING 79
SWIDTH 816 0
DWIDTH 29 0
BBX 27 31 2 0
BITMAP
000000000027ADEFEC9400000000
000000002AFFFFFFFFFFD4000000
00000008FFFFFFFFFFFFFF900000
000001BFFFFFFFEFFFFFFFF90000
00001BFFFFFC510028EFFFFF7000
0000AFFFFF600000002EFFFFE200
0006FFFFF50000000003FFFFF800
001EFFFF7000000000009FFFFE00
008FFFFC0000000000003FFFFF40
01EFFFF40000000000000EFFFF70
06FFFFD00000000000000BFFFF90
0BFFFF800000000000000AFFFFA0
0EFFFF4000000000000009FFFFB0
3FFFFF1000000000000009FFFFA0
6FFFFD0000000000000009FFFFA0
8FFFFB000000000000000BFFFF80
9FFFFA000000000000000CFFFF60
AFFFF9000000000000000FFFFF40
AFFFF9000000000000003FFFFF10
AFFFFA000000000000007FFFFB00
9FFFFC00000000000000CFFFF600
7FFFFE00000000000004FFFFE100
3FFFFF4000000000000CFFFF9000
0EFFFFA000000000006FFFFE1000
08FFFFF30000000004FFFFF60000
01EFFFFE300000006EFFFFA00000
006FFFFFF820015BFFFFFC100000
0009FFFFFFFFEFFFFFFFB1000000
00009FFFFFFFFFFFFFF800000000
000004DFFFFFFFFFFB3000000000
000000049CEFEDA7200000000000
ENDCHAR
STARTCHAR P
ENCODING 80
SWIDTH 805 0
DWIDTH 29 0
BBX 29 34 1 -3
BITMAP
000000000000159CDEFEC950000000
000000000029EFFFFFFFFFFE600000
0000000008FFFFFFFFFFFFFFFA0000
00000002CFFFFFFFEFFFFFFFFFA000
0000003EFFFFE7300014AFFFFFF600
000002EFFFF70000000005FFFFFD00
00000CFFFE4000000000008FFFFF30
00008FFFF3001AEE8000001FFFFF70
0002FFFF60009FFFF100000CFFFF90
000AFFFB0000EFFFF200000BFFFF90
002FFFF30001FFFFF000000CFFFF80
008FFFA00004FFFFC000000EFFFF60
00EFFF400007FFFFA000003FFFFF20
03FFFE000009FFFF800000AFFFFC00
07FFF900000CFFFF500005FFFFF500
0BFFF600000EFFFF30006FFFFFB000
0DFFF300002FFFFF015CFFFFFD1000
0FFFF004DEDFFFFFDFFFFFFFD20000
2FFFD00BFFFFFFFFFFFFFFFA100000
3FFFC00AFFFFFFFFFFFFFC40000000
4FFFB003BEFFFFFFEDA73000000000
5FFFA00000EFFFF200000000000000
5FFFA00002FFFFE000000000000000
5FFFB00004FFFFB000000000000000
3FFFC00007FFFF9000000000000000
2FFFE0000AFFFF6000000000000000
0EFFF2000DFFFF3000000000000000
0AFFF7000FFFFF0000000000000000
05FFFE104FFFFC0000000000000000
00DFFFA1BFFFF90000000000000000
004FFFFFFFFFF50000000000000000
0008FFFFFFFFD00000000000000000
00007FFFFFFE400000000000000000
0000028CEDA2000000000000000000
ENDCHAR
STARTCHAR Q
ENCODING 81
SWIDTH 816 0
DWIDTH 29 0
BBX 30 42 2 -11
BITMAP
000000000027ADEFEC940000000000
000000003BFFFFFFFFFFD500000000
00000008FFFFFFFFFFFFFF90000000
000001CFFFFFFFEFFFFFFFFA000000
00001CFFFFFC510027EFFFFF700000
0000BFFFFF600000002DFFFFF20000
0007FFFFF50000000003FFFFF90000
002EFFFF7000000000009FFFFE0000
009FFFFC0000000000003FFFFF4000
01FFFFF40000000000000EFFFF7000
07FFFFC00000000000000BFFFF9000
0BFFFF700000000000000AFFFFA000
1FFFFF3000000000000009FFFFB000
4FFFFE0000000000000009FFFFA000
6FFFFC000000000000000AFFFFA000
8FFFFA000000000000000BFFFF8000
9FFFFA000000000000000DFFFF6000
AFFFF9000000000000001FFFFF3000
AFFFFA000000000000005FFFFE0000
9FFFFB000000000000009FFFFA0000
8FFFFD00000000000001EFFFF50000
6FFFFF10000000000007FFFFE00000
2FFFFF7000000000002EFFFF700000
0CFFFFD10000000001CFFFFD000000
06FFFFFA000000001BFFFFF4000000
00CFFFFFB2000006EFFFFF80000000
003EFFFFFFC99BEFFFFFF900000000
0004FFFFFFFFFFFFFFFF8000000000
00003DFFFFFFFFFFFFD40000000000
0000006CFFFFFFFFC6000000000000
0000000026CFFFFFA0000000000000
000000000009FFFFF9000000000000
000000000000CFFFFF300000000000
0000000000004FFFFFA00000000000
0000000000000CFFFFF200000001C7
00000000000005FFFFF90000000BFA
00000000000000DFFFFF300000AFF8
000000000000006FFFFFE5103CFFE2
000000000000000CFFFFFFFFFFFF60
0000000000000002EFFFFFFFFFF800
00000000000000003DFFFFFFFE5000
0000000000000000006BDFEC710000
ENDCHAR
STARTCHAR R
ENCODING 82
SWIDTH 880 0
DWIDTH 32 0
BBX 35 31 2 0
BITMAP
0000000000037ADEFFEC9510000000000000
0000000007DFFFFFFFFFFFE7000000000000
00000004DFFFFFFFFFFFFFFFB10000000000
0000008FFFFFFFFEFFFFFFFFFB0000000000
00000AFFFFFB5200015BFFFFFF5000000000
00009FFFFB20000000008FFFFFB000000000
0005FFFF8000021000000BFFFFF000000000
001EFFF80005EFF6000006FFFFF200000000
008FFFB0001EFFFC000004FFFFF100000000
01FFFF20005FFFFB000005FFFFF000000000
07FFFA00008FFFF8000008FFFFB000000000
0CFFF30000BFFFF500001EFFFF5000000000
2FFFD00000DFFFF300009FFFFC0000000000
5FFF900001FFFFF00019FFFFE20000000000
8FFF600004FFFFC027DFFFFE300000000000
BFFF3005DEFFFFFFFFFFFFB2000000000000
DFFF100EFFFFFFFFFFFFC500000000000000
EFFF000FFFFFFFFFFFE50000000000000000
FFFE0006EFFFFFFFFFFFA000000000000000
FFFE00001FFFFE3AFFFFFA00000000000000
EFFE00003FFFFC00AFFFFF40000000000000
DFFF00005FFFF9001EFFFFC0000000000000
CFFF20008FFFF70007FFFFF4000000001300
9FFF5000AFFFF40001EFFFFB00000000CF30
5FFFA000DFFFF200007FFFFF30000009FF40
1EFFF201FFFFE000001EFFFFD100008FFF20
09FFFB16FFFFC0000007FFFFFB202AFFFA00
01EFFFFFFFFF80000000DFFFFFFEFFFFC100
004FFFFFFFFF300000003FFFFFFFFFFC1000
0004EFFFFFF90000000004EFFFFFFF900000
000017CEFD70000000000028DFFD93000000
ENDCHAR
STARTCHAR S
ENCODING 83
SWIDTH 693 0
DWIDTH 25 0
BBX 24 31 1 0
BITMAP
00000000159CEFFEC9610000
00000018EFFFFFFFFFFE8100
000004DFFFFFFFFFFFFFFC10
00004EFFFFFFFEEFFFFFFFD0
0001EFFFFE83000149FFFFF6
0008FFFFC1000000005FFFFB
000DFFFF30000000000CFFFE
001FFFFD00000000000BFFFE
003FFFFC00000000000DFFFD
003FFFFE10000000000EFFFA
001FFFFF80000000000AFFF3
000CFFFFF800000000017940
0005FFFFFFD5000000000000
00009FFFFFFFD72000000000
00000AFFFFFFFFFA30000000
0000006EFFFFFFFFFB300000
000000018EFFFFFFFFF80000
00000000016CFFFFFFFFA000
0000000000003AFFFFFFF800
027610000000002AFFFFFF20
1EFFD000000000007FFFFF60
7FFFF100000000000BFFFF80
AFFFF0000000000006FFFF90
BFFFE0000000000007FFFF70
AFFFF100000000000BFFFF40
8FFFF800000000008FFFFE00
3FFFFFC62000026CFFFFF600
09FFFFFFFFEEFFFFFFFFA000
01AFFFFFFFFFFFFFFFF90000
0006DFFFFFFFFFFFFB300000
0000048BDEFEECA720000000
ENDCHAR
STARTCHAR T
ENCODING 84
SWIDTH 697 0
DWIDTH 25 0
BBX 32 31 1 0
BITMAP
000000002589BCDEEFFFFFFFFFEECA40
000005AEFFFFFFFFFFFFFFFFFFFFFFF4
0005DFFFFFFFFFFFFFFFFFFFFFFFFFF7
00AFFFFFFFFFEEFFFFFEEEEEEFFFFFD2
09FFFFE9531005FFFFC0000000012200
2FFFFA10000008FFFF90000000000000
7FFFD10000000BFFFF70000000000000
AFFFA00000000EFFFF40000000000000
BFFF900000002FFFFF10000000000000
9FFFD00000005FFFFE00000000000000
6FFFF40000008FFFFB00000000000000
1EFFF4000000AFFFF800000000000000
03DD60000000DFFFF600000000000000
000000000000FFFFF300000000000000
000000000003FFFFF000000000000000
000000000005FFFFD000000000000000
000000000008FFFFA000000000000000
00000000000AFFFF7000000000000000
00000000000CFFFF5000000000000000
00000000000EFFFF3000000000000000
00000000002FFFFF0000000000000000
00000000004FFFFD0000000000000000
00000000007FFFFB0000000000000000
00000000009FFFF90000000000000000
0000000000BFFFF70000000000000000
0000000000DFFFF60000000000000000
0000000000FFFFF40000000000000000
0000000002FFFFF30000000000000000
0000000003FFFFF10000000000000000
0000000001FFFFD00000000000000000
00000000006DEB300000000000000000
ENDCHAR
STARTCHAR U
ENCODING 85
SWIDTH 890 0
DWIDTH 32 0
BBX 37 31 0 0
BITMAP
0000017BEFEA20000000000003CEC200000000
00007EFFFFFFE200000000000BFFFB00000000
001BFFFFFFFFFB00000000000EFFFE00000000
01CFFFFFFFFFFF10000000002FFFFF00000000
0BFFFD403FFFFF30000000004FFFFE00000000
6FFFA1000DFFFF40000000006FFFFD00000000
DFFA00000DFFFF30000000009FFFFB00000000
FFC000000FFFFF2000000000BFFFF800000000
6B2000002FFFFF0000000000EFFFF600000000
000000005FFFFD0000000002FFFFF400000000
000000008FFFFA0000000005FFFFF100000000
00000000BFFFF60000000009FFFFE000000000
00000000EFFFF3000000000DFFFFB000000000
00000003FFFFE0000000002FFFFF9000000000
00000006FFFFB0000000006FFFFF6000000000
00000009FFFF8000000000BFFFFF4000000000
0000000CFFFF4000000002FFFFFF2000000000
0000001FFFFF1000000008FFFFFF0000000000
0000003FFFFD000000000DFFFFFD0000000000
0000007FFFF9000000006FFFFFFB0000000000
000000AFFFF600000000DFCFFFF90000000000
000000CFFFF300000007FF8FFFF70000000000
000000FFFFF10000003FFC8FFFF50000001930
000001FFFFF1000001DFF59FFFF4000000BF90
000002FFFFF300002DFFC0AFFFF5000007FF90
000002FFFFFC3128EFFF40AFFFF800005FFF60
000000EFFFFFFFFFFFF9009FFFFE4018FFFD10
000000AFFFFFFFFFFFC0005FFFFFFFFFFFE200
0000003FFFFFFFFFFC10000CFFFFFFFFFE3000
00000006FFFFFFFF91000002DFFFFFFFB20000
0000000039DFEC830000000017CEFEA5000000
ENDCHAR
STARTCHAR V
ENCODING 86
SWIDTH 763 0
DWIDTH 27 0
BBX 29 32 4 0
BITMAP
000000000000000039DFD910000000
007DFC3000000007FFFFFFD1000000
03FFFF900000006FFFFFFFFA000000
08FFFF90000001EFFFFFFFFF200000
0BFFFF70000006FFF806FFFF500000
0DFFFF4000000BFFE000FFFF700000
0FFFFF2000000EFFA000DFFF800000
2FFFFF0000001FFF8000DFFF700000
4FFFFE0000002FFF7000EFFF600000
5FFFFC0000002FFF8001FFFF400000
6FFFFB0000001FFFA004FFFF200000
7FFFFA0000000EFFE008FFFE000000
8FFFF90000000AFFF70CFFFA000000
8FFFF800000005FFFE5FFFF7000000
8FFFF800000000DFFFFFFFF2000000
9FFFF8000000003FFFFFFFE4210000
8FFFF80000000005FFFFFFFFFFFE50
8FFFF800000000004EFFFFFFFFFFA0
7FFFF900000000001EFFFFFFFFFF70
7FFFFA00000000008FFFF89BDDD900
5FFFFB0000000002FFFFA000000000
3FFFFD000000000AFFFF3000000000
1FFFFF100000005FFFF90000000000
0EFFFF40000002EFFFE10000000000
0BFFFF9000001CFFFF500000000000
07FFFFE20001CFFFF9000000000000
02FFFFFC215DFFFFC0000000000000
00CFFFFFFFFFFFFD10000000000000
005FFFFFFFFFFFD200000000000000
000BFFFFFFFFFC1000000000000000
0001CFFFFFFE700000000000000000
000007CFEC72000000000000000000
ENDCHAR
STARTCHAR W
ENCODING 87
SWIDTH 1217 0
DWIDTH 44 0
BBX 45 32 4 0
BITMAP
0000000000000000000000000000000018CFEB30000000
007DFC20000000000008EEA000000003EFFFFFF5000000
04FFFF8000000000007FFFF50000002EFFFFFFFE100000
08FFFF800000000000DFFFF5000000AFFFFFFFFF700000
0BFFFF600000000001FFFFF3000001FFFC12EFFFB00000
0DFFFF400000000003FFFFF1000005FFF400AFFFD00000
0FFFFF200000000006FFFFE0000009FFF0008FFFD00000
2FFFFF100000000009FFFFC000000AFFD0008FFFC00000
3FFFFE00000000000CFFFFB000000CFFD0009FFFB00000
5FFFFD00000000001FFFFF9000000CFFE000BFFF900000
6FFFFB00000000004FFFFF8000000BFFF100EFFF700000
7FFFFA00000000008FFFFF70000009FFF503FFFF400000
8FFFF90000000000CFFFFF60000005FFFC07FFFF100000
9FFFF80000000001FFFFFF50000001EFFF8BFFFC000000
9FFFF70000000005FFFFFF500000008FFFFFFFF7000000
9FFFF7000000000AFFFFFF500000001DFFFFFFF7210000
9FFFF7000000000EFFFFFF5000000002DFFFFFFFFFFFA0
9FFFF7000000005FFFFFFF50000000002CFFFFFFFFFFF0
8FFFF700000000AFFFFFFF50000000000AFFFFFFFFFFC0
8FFFF800000001FFFEFFFF60000000003FFFFB9BCDEB30
6FFFF900000007FFFAEFFF7000000000BFFFF200000000
5FFFFB0000000DFFF4DFFF8000000004FFFF8000000000
3FFFFD0000006FFFD0CFFFA00000001DFFFE1000000000
0FFFFF100001EFFF609FFFC00000009FFFF60000000000
0CFFFF500009FFFE107FFFF1000006FFFFB00000000000
09FFFFB0005FFFF6004FFFF800005FFFFE200000000000
04FFFFF716FFFFC0000EFFFF6128FFFFF4000000000000
00EFFFFFFFFFFF30000AFFFFFFFFFFFF60000000000000
007FFFFFFFFFF7000004FFFFFFFFFFF700000000000000
001DFFFFFFFF80000000AFFFFFFFFF5000000000000000
0003EFFFFFE6000000001CFFFFFFC30000000000000000
000029EFD82000000000018DFDA5000000000000000000
ENDCHAR
STARTCHAR X
ENCODING 88
SWIDTH 712 0
DWIDTH 26 0
BBX 32 31 -1 0
BITMAP
0000017CEFEA4000000000006DFD5000
00005EFFFFFFF80000000008FFFFA000
0009FFFFFFFFFF700000006FFFFF5000
009FFFFFFFFFFFE2000004FFFFFA0000
06FFFD5018FFFFF800002EFFFFC10000
0CFFB100009FFFFE0001CFFFFD100000
0BFB0000001FFFFF400BFFFFE3000000
01400000000AFFFF908FFFFF40000000
000000000005FFFFD6FFFFF600000000
000000000001FFFFFFFFFF8000000000
000000000000BFFFFFFFFA0000000000
0000000000007FFFFFFFC10000000000
0000000000003FFFFFFD100000000000
0000000000000EFFFFE2000000000000
0000000000004FFFFF80000000000000
000000000002EFFFFFB0000000000000
00000000001DFFFFFFF1000000000000
0000000001CFFFFFFFF4000000000000
000000000AFFFFFFFFF8000000000000
000000009FFFFF8FFFFC000000000000
00000007FFFFF61FFFFF100000000000
0000005FFFFF800CFFFF500000000000
000003EFFFFB0008FFFF900000000000
00002EFFFFD10004FFFFE00000000AE1
0001DFFFFE300000EFFFF40000009FF4
000BFFFFF50000009FFFFA000009FFF2
00AFFFFF800000003FFFFF7004CFFFB0
08FFFFFB000000000AFFFFFFFFFFFC10
3FFFFFD10000000002EFFFFFFFFFC100
7FFFFE2000000000003EFFFFFFF90000
2BFEB2000000000000018CEFDA300000
ENDCHAR
STARTCHAR Y
ENCODING 89
SWIDTH 851 0
DWIDTH 31 0
BBX 35 42 0 -11
BITMAP
0000017BEFEA20000000000002BED5000000
00007EFFFFFFE300000000000AFFFE000000
001BFFFFFFFFFB00000000000EFFFF200000
01CFFFFEFFFFFF10000000002FFFFF100000
0BFFFC403FFFFF30000000004FFFFE000000
6FFFA0000DFFFF30000000006FFFFC000000
DFFA00000EFFFF30000000009FFFFA000000
EFC000000FFFFF2000000000CFFFF7000000
6A1000003FFFFF0000000000EFFFF5000000
000000006FFFFC0000000003FFFFF3000000
000000009FFFF90000000007FFFFF1000000
00000000CFFFF6000000000BFFFFE0000000
00000001FFFFF3000000002FFFFFB0000000
00000004FFFFF0000000007FFFFF90000000
00000007FFFFB000000000DFFFFF70000000
0000000AFFFF8000000004FFFFFF50000000
0000000DFFFF500000000CFFFFFF20000000
0000000FFFFF200000005FFEFFFF00000000
0000001FFFFF10000001EFDCFFFD00000000
0000002FFFFF1000000BFF7EFFFB00000000
0000001FFFFF500001BFFD1FFFF800000000
0000000CFFFFD4115DFFF33FFFF600000000
00000007FFFFFFFFFFFF605FFFF4147ADE40
00000001DFFFFFFFFFF6008FFFFDFFFFFF80
000000002DFFFFFFFC3000AFFFFFFFFFFF60
00000000017BDDC940028DFFFFFFFFFFE900
000000000000000004BFFFFFFFFEB8520000
0000000000000004CFFFFFFFFF9000000000
00000000000002BFFFFFDAFFFF5000000000
0000000000004EFFFFB406FFFF3000000000
000000000006FFFFC40008FFFF0000000000
00000000005FFFF900000CFFFC0000000000
0000000001EFFF7000001FFFF70000000000
0000000009FFFB0000006FFFF30000000000
000000000EFFF4000000CFFFC00000000000
000000003FFFF2000005FFFF500000000000
000000004FFFF300002EFFFD000000000000
000000004FFFFC2016EFFFF3000000000000
000000001FFFFFFEFFFFFF70000000000000
0000000008FFFFFFFFFFF700000000000000
0000000000AFFFFFFFFD4000000000000000
000000000004ADFEDA500000000000000000
ENDCHAR
STARTCHAR Z
ENCODING 90
SWIDTH 721 0
DWIDTH 26 0
BBX 31 31 0 0
BITMAP
00000000269CDEFFEEDCA86410000000
0000006CFFFFFFFFFFFFFFFFFD920000
00002CFFFFFFFFFFFFFFFFFFFFFC0000
0003EFFFFFFFFEEFFFFFFFFFFFFF0000
000DFFFFD74100000135AFFFFFFA0000
005FFFF8000000000000DFFFFC500000
00AFFFC0000000000007FFFFF3000000
00CFFF7000000000001EFFFF80000000
00DFFF7000000000009FFFFD10000000
00CFFFA00000000003FFFFF500000000
008FFFF1000000000CFFFFB000000000
002FFFF4000000007FFFFF2000000000
0005EF9000000002EFFFF80000000000
000000000000000AFFFFD00000000000
000000000000005FFFFF400000000000
00000000000001EFFFF9000000000000
0000000000000AFFFFD1000000000000
0000000000005FFFFF50000000000000
000000000001EFFFFA00000000000000
00000000000BFFFFE100000000000000
00000000007FFFFF5000000000000000
0000000003FFFFFA0000000000000000
000000001DFFFFD10000000000000000
00000000AFFFFF400000000000005C40
0018CEFFFFFFFC31000000000018FF80
04EFFFFFFFFFFFFFDA74200148EFFF70
2EFFFFFFFFFFFFFFFFFFFFFFFFFFFF20
6FFFFFFFFFDEFFFFFFFFFFFFFFFFF500
5FFFFFFFFC116CFFFFFFFFFFFFFE4000
1DFFFFFFB1000039EFFFFFFFFFC20000
018CEEB500000000159DEFEC94000000
ENDCHAR
STARTCHAR bracketleft
ENCODING 91
SWIDTH 405 0
DWIDTH 15 0
BBX 16 37 2 -3
BITMAP
000003BEFFFFFFD5
00000DFFFFFFFFFD
00004FFFFFFFFFFC
00007FFFFEEEEEC4
0000AFFFF2000000
0000CFFFF1000000
0000EFFFE0000000
0001FFFFC0000000
0003FFFFA0000000
0005FFFF80000000
0007FFFF60000000
0009FFFF40000000
000BFFFF20000000
000DFFFF00000000
001FFFFD00000000
003FFFFB00000000
005FFFF900000000
007FFFF700000000
009FFFF500000000
00BFFFF300000000
00DFFFF100000000
00FFFFE000000000
02FFFFC000000000
04FFFFA000000000
06FFFF8000000000
08FFFF6000000000
09FFFF4000000000
0BFFFF2000000000
0DFFFF0000000000
0FFFFE0000000000
2FFFFC0000000000
4FFFFA0000000000
6FFFF90000000000
8FFFFFFFFFD50000
8FFFFFFFFFFD0000
5FFFFFFFFFFC0000
06CEEEEEEDB20000
ENDCHAR
STARTCHAR backslash
ENCODING 92
SWIDTH 509 0
DWIDTH 18 0
BBX 14 34 3 0
BITMAP
02CE7000000000
0CFFF200000000
1FFFF700000000
0FFFFB00000000
0CFFFF10000000
08FFFF50000000
03FFFF90000000
00EFFFD0000000
00AFFFF2000000
006FFFF7000000
001FFFFB000000
000CFFFF100000
0008FFFF400000
0004FFFF900000
0000EFFFD00000
0000AFFFF20000
00006FFFF60000
00002FFFFB0000
00000CFFFF1000
000008FFFF4000
000004FFFF9000
000000EFFFD000
000000AFFFF200
0000006FFFF600
0000002FFFFB00
0000000CFFFE00
00000008FFFF40
00000004FFFF80
00000000EFFFD0
00000000AFFFF2
000000006FFFF6
000000002FFFF7
000000000CFFF3
0000000003DE60
ENDCHAR
STARTCHAR bracketright
ENCODING 93
SWIDTH 405 0
DWIDTH 15 0
BBX 16 37 -2 -3
BITMAP
00002BEFFFFFFD91
00009FFFFFFFFFF8
0000AFFFFFFFFFFB
00003BDEEEEFFFFA
00000000006FFFF9
00000000007FFFF7
00000000009FFFF5
0000000000BFFFF3
0000000000DFFFF1
0000000000FFFFE0
0000000001FFFFC0
0000000003FFFFA0
0000000005FFFF80
0000000007FFFF60
0000000009FFFF40
000000000BFFFF20
000000000DFFFF00
000000001FFFFD00
000000003FFFFB00
000000005FFFF900
000000006FFFF700
000000008FFFF500
00000000AFFFF300
00000000CFFFF100
00000000EFFFE000
00000001FFFFC000
00000003FFFFA000
00000005FFFF8000
00000007FFFF6000
00000009FFFF4000
0000000BFFFF1000
0000000DFFFE0000
0000000FFFFC0000
3CFFFFFFFFFA0000
AFFFFFFFFFF70000
AFFFFFFFFFE20000
2BEEEEEEDB400000
ENDCHAR
STARTCHAR asciicircum
ENCODING 94
SWIDTH 700 0
DWIDTH 25 0
BBX 18 19 3 2
BITMAP
0000000005DE500000
000000003FFFE10000
00000000CFFFF50000
00000005FFFFFA0000
0000000DFFFFFE0000
0000007FFFFFFF4000
000001EFFF6FFF9000
000009FFFA0EFFD000
00002FFFF209FFF300
0000BFFF8005FFF800
0004FFFE1001FFFD00
000CFFF70000BFFF20
006FFFD000006FFF70
01DFFF5000002FFFC0
07FFFC0000000CFFF1
1EFFF400000007FFF6
8FFFB000000003FFFA
CFFF3000000000DFFA
5EE600000000005ED3
ENDCHAR
STARTCHAR underscore
ENCODING 95
SWIDTH 354 0
DWIDTH 13 0
BBX 13 4 -1 -4
BITMAP
4CEEEEEEEEEC40
CFFFFFFFFFFFB0
CFFFFFFFFFFFB0
4DFFFFFFFFFD40
ENDCHAR
STARTCHAR grave
ENCODING 96
SWIDTH 600 0
DWIDTH 22 0
BBX 9 11 4 19
BITMAP
09EC200000
7FFFA00000
9FFFF20000
5FFFF90000
0BFFFE1000
01DFFF7000
003FFFD000
0007FFF500
0000AFFC00
00001DFF10
000002DC00
ENDCHAR
STARTCHAR a
ENCODING 97
SWIDTH 470 0
DWIDTH 17 0
BBX 21 17 1 0
BITMAP
00000039DFC10000000000
00001AFFFFF87710000000
0002DFFFFFFFFFA0000000
001DFFFFFFFFFF90000000
00AFFFFE51CFFF70000000
04FFFFD200FFFF40000000
0CFFFF3003FFFF20000000
2FFFF90007FFFE00000000
6FFFF3000AFFFB00000000
9FFFE0000DFFF900005D40
BFFFC0003FFFF70005FF80
BFFFC0009FFFF5004FFF70
9FFFF406FFFFF807FFFE10
6FFFFFFFFFFFFFFFFFF400
1EFFFFFFF5CFFFFFFE4000
04FFFFFF803FFFFFD30000
003BEEB50003CED8100000
ENDCHAR
STARTCHAR b
ENCODING 98
SWIDTH 473 0
DWIDTH 17 0
BBX 20 34 2 0
BITMAP
00000005CED700000000
0000009FFFFF70000000
000009FFFFFFE1000000
00004FFFFFFFF4000000
0000DFFF36FFF6000000
0005FFF902FFF6000000
000CFFF301FFF5000000
003FFFD002FFF3000000
009FFF8005FFF1000000
00EFFF4009FFC0000000
03FFFF100EFF70000000
07FFFC005FFF10000000
0BFFFA00BFF900000000
0EFFF704FFE100000000
2FFFF50BFF6000000000
5FFFF23FFB0000000000
7FFFF1CFD10000000000
9FFFE5FFFE9200000000
BFFFDDFFFFFE30000000
DFFFFFFFFFFFE2000000
EFFFFFB5FFFFF9000000
FFFFFA01FFFFFE100000
FFFFF200FFFFFF402584
FFFFB000CFFFFFFFFFFC
FFFF90005FFFFFFFFFFC
EFFF800009FFFFFFFFF8
CFFF800000EFFFFDC840
AFFFA00002FFFE000000
6FFFF10009FFF9000000
2FFFFB117FFFF3000000
0BFFFFFFFFFF90000000
03EFFFFFFFFC10000000
005EFFFFFFB100000000
00029DEEB60000000000
ENDCHAR
STARTCHAR c
ENCODING 99
SWIDTH 368 0
DWIDTH 13 0
BBX 17 17 1 0
BITMAP
000017CEFC50000000
0004DFFFFFF6000000
004FFFFFFFFE100000
02EFFFFFFFFF400000
0AFFFF806FFF400000
2FFFFA006FFF200000
6FFFF3008FFC000000
AFFFE0004DC2000000
CFFFC0000000000100
CFFFC0000000004EA0
CFFFE000000005FFD0
AFFFF50000008FFFB0
6FFFFE51016DFFFF40
1EFFFFFFEFFFFFF600
04FFFFFFFFFFFE5000
005EFFFFFFFFA10000
00017BEFEC82000000
ENDCHAR
STARTCHAR d
ENCODING 100
SWIDTH 515 0
DWIDTH 19 0
BBX 23 34 1 0
BITMAP
0000000000000007DFB20000
00000000000000BFFFFD1000
00000000000008FFFFFF7000
0000000000002FFFFFFFB000
0000000000008FFF49FFD000
000000000000EFFD06FFE000
000000000004FFF804FFD000
000000000009FFF405FFC000
00000000000DFFF107FFA000
00000000002FFFD008FF8000
00000000005FFFA00BFF5000
00000000008FFF800EFF1000
0000000000BFFF603FFC0000
0000000000EFFF408FF70000
0000000001FFFF30DFF20000
0000000003FFFF13FFC00000
0000000005FFFF08FF600000
0000003AEFFFFE0EFE100000
00001AFFFFFFFD6FF9000000
0002DFFFFFFFFCCFF2000000
002DFFFFFEFFFEFFA0000000
00AFFFFB2AFFFFFF30000000
05FFFFA00AFFFFFA00000000
0CFFFE100AFFFFF300000000
3FFFF6000AFFFFA000000000
7FFFF10009FFFE2000000100
9FFFD00008FFFB000001CE10
BFFFC00006FFFC00000BFF20
BFFFD0001DFFFF1000AFFF10
9FFFF503DFFFFF803CFFF900
5FFFFFFFFFDFFFFFFFFFB000
0DFFFFFFFC1DFFFFFFFB1000
03EFFFFFC104FFFFFF800000
002AEFD710003BEEA3000000
ENDCHAR
STARTCHAR e
ENCODING 101
SWIDTH 393 0
DWIDTH 14 0
BBX 18 17 1 0
BITMAP
000017CEFD81000000
0003EFFFFFFC100000
004EFFFFFFFF800000
01EFFFFEFFFFC00000
0AFFFE503FFFE00000
2FFFF6000EFFD00000
7FFFE1004FFF900000
AFFFB004EFFF200000
CFFFA6BFFFF5000020
CFFFFFFFFD400007F9
BFFFFFFC6000008FFB
8FFFF92000003CFFF9
4FFFFD50004AFFFFF3
0CFFFFFFEFFFFFFF50
02EFFFFFFFFFFFD300
003DFFFFFFFFE81000
00005ADEFEB7100000
ENDCHAR
STARTCHAR f
ENCODING 102
SWIDTH 371 0
DWIDTH 13 0
BBX 17 46 1 -12
BITMAP
00000000019EEA1000
000000003EFFFFC000
00000002EFFFFFF500
0000000BFFFFFFF900
0000006FFFB1DFFB00
000000DFFF30AFFC00
000006FFFB00AFFB00
00000DFFF500BFFA00
00004FFFF100DFF700
00009FFFB001FFF400
0000EFFF6005FFE100
0004FFFF200AFFA000
0009FFFE001FFF4000
000DFFFA007FFC0000
002FFFF700DFF40000
005FFFF307FFB00000
009FFFF01EFE200000
00CFFFC0BFF6000000
00EFFFA6FFA0000000
02FFFFAFFD10000000
05FFFFFFE200000000
07FFFFFF4000000000
09FFFFF50000000000
0BFFFF600000000000
0CFFFB000000123200
0DFFF90AFFFFFFFE00
0EFFF86FFFFFFFFF10
0FFFF7DFFFFFFFFB00
1FFFF6CFFBCEDB7000
1FFFF69FF500000000
2FFFF55FF700000000
2FFFF63FFA00000000
1FFFF60FFC00000000
1FFFF70DFE00000000
1FFFF70BFF00000000
0FFFF80AFF20000000
0EFFF809FF30000000
0DFFF908FF30000000
0BFFF908FF30000000
09FFFB08FF20000000
06FFFD0AFF10000000
03FFFF2EFD00000000
00EFFFFFF900000000
008FFFFFF300000000
001DFFFF8000000000
0002BED70000000000
ENDCHAR
STARTCHAR g
ENCODING 103
SWIDTH 479 0
DWIDTH 17 0
BBX 23 34 -1 -17
BITMAP
0000000039DFC10000000000
0000001AFFFFF87710000000
000002DFFFFFFFFF80000000
00001DFFFFFFFFFF80000000
0000AFFFFD50DFFF60000000
0004FFFFD201FFFF30000000
000CFFFF3004FFFF10000000
002FFFF90007FFFD00000000
006FFFF3000AFFFB00000000
009FFFE0000DFFF80004CD00
00BFFFC0002FFFF5019FFF20
00BFFFC0009FFFF35EFFFF10
009FFFF406FFFFFAFFFFF600
006FFFFFFFFFFFFFFFFD3000
001EFFFFFFFFFFFFFF910000
0004FFFFFF9FFFFFE5000000
00003BEEB3BFFFFB20000000
000000001CFFFF7000000000
00000003DFFFFF1000000000
0000003EFFFFFD0000000000
000003EFFFFFFA0000000000
00003EFFC9FFF70000000000
0001DFFC1BFFF30000000000
000BFFD10EFFE00000000000
006FFF304FFFA00000000000
01EFF8009FFF500000000000
06FFE100EFFE100000000000
0BFF9005FFF9000000000000
0EFF700DFFF3000000000000
1FFFA09FFFB0000000000000
0FFFFFFFFF30000000000000
0BFFFFFFF800000000000000
03EFFFFF9000000000000000
003BEEC50000000000000000
ENDCHAR
STARTCHAR h
ENCODING 104
SWIDTH 502 0
DWIDTH 18 0
BBX 22 34 1 0
BITMAP
000000005CFD7000000000
00000009FFFFF700000000
0000008FFFFFFE10000000
000003FFFFFFFF50000000
00000BFFF45FFF70000000
00003FFFA01FFF70000000
0000AFFF401FFF60000000
0001FFFE002FFF30000000
0006FFF9005FFF10000000
000BFFF5009FFB00000000
001FFFF100EFF500000000
004FFFD006FFD000000000
008FFFA01DFF6000000000
00BFFF707FFC0000000000
00EFFF42EFF40000000000
02FFFF2CFF800000000000
04FFFE9FFC000000000000
06FFFFFFE217CEC2000000
08FFFFFF43DFFFFA000000
0AFFFFF62EFFFFFC000000
0CFFFF81DFFFFFFB000000
0DFFFA09FFFFFFF9000000
0EFFF63FFFAFFFF6000000
0EFFF6BFF62FFFF3000000
0FFFF8FFB03FFFF0000000
0FFFFEFF206FFFC0000020
0FFFFFFA009FFF900006F8
1FFFFFF400CFFF70005FFA
1FFFFFD000EFFF5004EFF8
1FFFFF8001FFFF806EFFE2
1FFFFF4000FFFFFFFFFE40
1FFFFE0000CFFFFFFFE400
0EFFF700005FFFFFFC2000
07ED70000006DFEB600000
ENDCHAR
STARTCHAR i
ENCODING 105
SWIDTH 246 0
DWIDTH 9 0
BBX 13 25 1 0
BITMAP
0002BEE9100000
002EFFFF800000
007FFFFFC00000
008FFFFFB00000
004FFFFF500000
0006DEC5000000
00000000000000
00000000000000
002CFE40000000
009FFF80000000
00EFFF70000000
03FFFF40000000
07FFFF10000000
0AFFFD00000000
0DFFFA00000000
0FFFF700000000
2FFFF500000200
3FFFF200009F50
4FFFF10007FF70
4FFFF1006FFF50
3FFFF608FFFD00
1FFFFFFFFFE200
0AFFFFFFFE3000
02EFFFFFC20000
003BEFC6000000
ENDCHAR
STARTCHAR j
ENCODING 106
SWIDTH 254 0
DWIDTH 9 0
BBX 23 42 -9 -17
BITMAP
0000000000002AEEA1000000
000000000001DFFFFB000000
000000000005FFFFFE000000
000000000006FFFFFD000000
000000000002FFFFF7000000
0000000000005DED70000000
000000000000000000000000
000000000000000000000000
0000000000003CFE40000000
000000000000DFFF80000000
000000000001FFFF70000000
000000000003FFFF50000000
000000000005FFFF30000000
000000000006FFFF10000000
000000000008FFFE00000000
00000000000AFFFC00000000
00000000000BFFFA00000000
00000000000DFFF80003DB00
00000000000FFFF5008FFF10
00000000001FFFF32CFFFE00
00000000003FFFF5EFFFF500
00000000005FFFFFFFFC3000
00000000006FFFFFFF800000
00000000008FFFFFD3000000
0000000000AFFFF910000000
0000000007FFFF6000000000
00000001AFFFFF1000000000
0000001CFFFFFD0000000000
000001CFFFFFFA0000000000
00001DFFDBFFF70000000000
0001CFFC1DFFF30000000000
000AFFD11FFFE00000000000
006FFE205FFF900000000000
01EFF700AFFF400000000000
06FFD001EFFE000000000000
0CFF8006FFF9000000000000
1FFF601DFFF2000000000000
2FFF80AFFFA0000000000000
2FFFFFFFFF20000000000000
0DFFFFFFF700000000000000
05FFFFFF8000000000000000
004BEEB40000000000000000
ENDCHAR
STARTCHAR k
ENCODING 107
SWIDTH 525 0
DWIDTH 19 0
BBX 22 34 2 0
BITMAP
00000005CFD70000000000
0000009FFFFF7000000000
000008FFFFFFE100000000
00003FFFFFFFF400000000
0000BFFF45FFF700000000
0003FFFA01FFF700000000
000AFFF401FFF600000000
001FFFE002FFF400000000
006FFF9005FFF100000000
00BFFF5009FFC000000000
01FFFF100EFF7000000000
04FFFD006FFE1000000000
08FFFA01DFF80000000000
0BFFF707FFE10000000000
0EFFF42EFF600000000000
2FFFF2CFFB000000000000
4FFFE9FFE2000000000000
6FFFFFFF507DFD70000000
8FFFFFF82DFFFFF8000000
AFFFFFB2EFFFFFFF200000
CFFFFD2DFFFFFFFF600000
DFFFE29FFFFFFFFF700000
EFFF72FFFA25FFFF500000
EFFF6AFFB002FFFF200000
FFFF7FFD1007FFFB000000
FFFFDFF5006FFFE2000000
FFFFFFC04CFFFE400006E4
FFFFFF54FFFFB200005FF8
FFFFFE07FFFF300005FFF6
EFFFF906FFFFC3018FFFE1
DFFFF402FFFFFFEFFFFE30
AFFFE0009FFFFFFFFFE400
6FFFA0000BFFFFFFFD2000
1AEC2000005BEFEC600000
ENDCHAR
STARTCHAR l
ENCODING 108
SWIDTH 326 0
DWIDTH 12 0
BBX 15 34 2 0
BITMAP
00000005CED60000
0000009FFFFF5000
000008FFFFFFD000
00003FFFFFFFF200
0000CFFF36FFF500
0004FFF902FFF600
000BFFF301FFF600
002FFFD001FFF500
007FFF8003FFF400
00CFFF4005FFF100
02FFFF1007FFE000
06FFFC000BFFA000
09FFF9001EFF5000
0DFFF6005FFF1000
1FFFF300AFFA0000
3FFFF101FFF50000
6FFFE007FFD00000
8FFFB00DFF700000
AFFF906FFE100000
CFFF80DFF8000000
DFFF76FFE1000000
EFFF8EFF60000000
FFFFEFFC00000000
FFFFFFF400000000
FFFFFF9000000000
EFFFFD1000000100
CFFFF4000000AF30
AFFFB0000009FF50
7FFFE000009FFF30
2FFFF9003BFFFC00
0BFFFFFFFFFFD100
04FFFFFFFFFC2000
007FFFFFFFA10000
0004BEFDA4000000
ENDCHAR
STARTCHAR m
ENCODING 109
SWIDTH 744 0
DWIDTH 27 0
BBX 31 17 1 0
BITMAP
0019EF60003AEE7000029EEA00000000
009FFF7007FFFFF1005EFFFF60000000
01FFFF407FFFFFF205FFFFFF80000000
04FFFF14FFFFFFF13FFFFFFF70000000
08FFFC1EFFFFFFD1DFFFFFFF40000000
0BFFF88FFCDFFFB7FFDCFFFF20000000
0DFFF6EFD19FFF8EFE26FFFE00000000
0FFFFAFF50AFFFBFF608FFFB00000000
2FFFFEFC00CFFFFFD00BFFF800000200
2FFFFFF500DFFFFF600DFFF50000AF40
3FFFFFE000FFFFFE001FFFF20009FF60
3FFFFF9002FFFFF9003FFFF1008FFF40
2FFFFF4003FFFFF4005FFFF419FFFC00
1FFFFF1002FFFFE0004FFFFFFFFFD100
0EFFFB0001FFFFA0002FFFFFFFFD2000
0AFFF60000BFFF50000AFFFFFFA10000
02CEA000003DE90000019EFEA4000000
ENDCHAR
STARTCHAR n
ENCODING 110
SWIDTH 496 0
DWIDTH 18 0
BBX 22 17 1 0
BITMAP
0019EF600028DEA1000000
009FFF7005EFFFF7000000
01FFFF405FFFFFF9000000
04FFFF13EFFFFFF8000000
08FFFC0DFFFFFFF5000000
0BFFF87FFEBFFFF3000000
0DFFF6EFF35FFFF0000000
0FFFFAFF807FFFC0000000
2FFFFEFE109FFF90000020
2FFFFFF700CFFF600009F5
3FFFFFF100FFFF30008FF7
3FFFFFA002FFFF2006FFF5
2FFFFF5004FFFF518FFFD0
1FFFFF1003FFFFFFFFFD20
0EFFFB0001FFFFFFFFD200
0AFFF600009FFFFFFB1000
02CEA0000008EFEB500000
ENDCHAR
STARTCHAR o
ENCODING 111
SWIDTH 451 0
DWIDTH 16 0
BBX 20 17 1 0
BITMAP
000017CEFD9200000000
0004EFFFFFFE50000000
005FFFFFFFFFF3000000
02EFFFFFFFFFFC000000
0BFFFF70DFFFFF300000
2FFFF800DFFFFF701465
7FFFF100AFFFFFFFFFFE
AFFFC0003FFFFFFFFFFF
CFFFB00007FFFFFFFFFC
CFFFB00000BFFFFEC961
BFFFD00000EFFF200000
8FFFF30006FFFC000000
4FFFFC205EFFF6000000
0CFFFFFFFFFFC0000000
03FFFFFFFFFE20000000
004EFFFFFFD300000000
00028DFEC71000000000
ENDCHAR
STARTCHAR p
ENCODING 112
SWIDTH 481 0
DWIDTH 17 0
BBX 27 34 -5 -17
BITMAP
000000019EE6018DFD6000000000
00000008FFFB1CFFFFF800000000
0000000BFFFCCFFFFFFF30000000
0000000BFFFFFFFFFFFFA0000000
0000000AFFFFF912EFFFD0000000
0000000AFFFF90009FFFE0000000
0000000AFFFD00008FFFE0000000
0000000AFFFB0000AFFFD0000000
0000000AFFFB0000DFFFA0000000
0000000BFFFB0003FFFF60002DA0
0000003FFFFB000AFFFE1002DFE0
000000BFFFFB005FFFF8002DFFC0
000004FFFFFB05EFFFE105EFFF60
00000CFFFFFDAFFFFFFFFFFFF800
00005FFFFFFFFFFFFFFFFFFF8000
0000CFFDFFFFFFFDFFFFFFE50000
0003FFACFFFFEB504CFEC8100000
000AFF5CFFF70000000000000000
001FFE0DFFF60000000000000000
006FF90EFFF40000000000000000
00CFF40FFFF30000000000000000
01FFE01FFFF10000000000000000
06FFB03FFFE00000000000000000
09FF704FFFC00000000000000000
0DFF406FFF900000000000000000
0FFF108FFF500000000000000000
2FFF00AFFF200000000000000000
3FFE00DFFD000000000000000000
4FFF02FFF9000000000000000000
3FFF48FFF4000000000000000000
2FFFFFFFD0000000000000000000
0DFFFFFF50000000000000000000
05FFFFF900000000000000000000
006DFD6000000000000000000000
ENDCHAR
STARTCHAR q
ENCODING 113
SWIDTH 500 0
DWIDTH 18 0
BBX 22 33 1 -14
BITMAP
0000000000002673000000
000000000002EFFF100000
00000039DEDBFFFF100000
000019FFFFFFFFFC000000
0001CFFFFFFFFFF8000000
001CFFFFFFFFFFF3000000
009FFFFE71AFFFE0000000
04FFFFD200DFFFA0000000
0BFFFF3002FFFF60000000
2FFFF90006FFFF10000000
6FFFF3000AFFFC00000000
9FFFE0000EFFF800000000
BFFFC0004FFFF52CFFFFF9
BFFFC000BFFFF1AFFFFFFA
9FFFF408FFFFD0DFFFFFF7
5FFFFFFFFFFFA0DFFEED90
1EFFFFFFFFFF70CFF10000
04FFFFFCFFFF50AFF10000
003BEE93FFFF20AFF20000
00000005FFFF00AFF30000
00000008FFFE00AFF20000
0000000AFFFC00AFF20000
0000000BFFFB00BFF10000
0000000CFFFA00CFF00000
0000000CFFFA00EFD00000
0000000DFFFA01FFA00000
0000000CFFFB04FF700000
0000000AFFFD08FF300000
00000008FFFF3DFE000000
00000003FFFFFFF8000000
00000000DFFFFFE1000000
000000004FFFFF50000000
0000000004CDB300000000
ENDCHAR
STARTCHAR r
ENCODING 114
SWIDTH 455 0
DWIDTH 16 0
BBX 21 17 1 0
BITMAP
0019EF600018DEA1000000
009FFF7004EFFFF6000000
01FFFF404FFFFFF9000000
04FFFF12EFFFFFF7000000
08FFFC0CFFFFFFF5000000
0BFFF96FFFDFFFF2000100
0DFFF6DFF53FFFF000AF40
0FFFF9FF904FFFF32BFF60
2FFFFDFE105FFFFFFFFF30
2FFFFFF8003FFFFFFFF900
3FFFFFF1000AFFFFFF7000
3FFFFFA000007CDC820000
2FFFFF5000000000000000
1FFFFF1000000000000000
0EFFFB0000000000000000
0AFFF60000000000000000
02CEA00000000000000000
ENDCHAR
STARTCHAR s
ENCODING 115
SWIDTH 427 0
DWIDTH 15 0
BBX 21 18 -1 -1
BITMAP
000000006DFD2000000000
00000005FFFF1000000000
0000000CFFFA0000000000
0000003FFFF40000000000
000000AFFFF20000000000
000002FFFFF50000000000
000009FFFFFD1000000000
00002FFFFFFFB000000000
0000BFFDEFFFF700000000
0007FFF55FFFFE20001A90
003FFFB00AFFFF9000BFF0
01DFFE2002FFFFD00AFFE0
0BFFF40000CFFFE1BFFF90
4FFF607DFDEFFFFEFFFD10
4FF804FFFFFFFFFFFFD200
054005FFFFFFFFFFFC2000
000001DFFFFFFEDA500000
0000002ADFD93000000000
ENDCHAR
STARTCHAR t
ENCODING 116
SWIDTH 393 0
DWIDTH 14 0
BBX 19 32 0 0
BITMAP
00000000007DFB200000
000000001CFFFFD00000
00000000BFFFFFF40000
00000007FFFFFFF80000
0000002EFFB1EFFA0000
0000009FFF30BFFA0000
000001EFFC00BFF90000
000006FFF700DFF60000
00000BFFF302FFF30000
00001FFFE007FFD00000
00005FFFB00DFF600000
00009FFF807FFD000000
0000CFFF53EFF4000000
0000FFFF4DFF70000000
0003FFFFEFF800000000
6EFFFFFFFFFFFFFD0000
DFFFFFFFFFFFFFFF1000
EFFFFFFFFFFFFFFC0000
7DEFFFFFEEEEEC810000
000BFFFA000000000000
000CFFF9000000000000
000CFFF9000000000000
000CFFF9000000000000
000BFFFA000000000000
000AFFFC000000003D70
0008FFFF10000003EFB0
0005FFFF6000004EFFA0
0001EFFFE60028FFFF40
00009FFFFFFEFFFFF600
00001DFFFFFFFFFF6000
000002DFFFFFFFD30000
00000006BEFEB6100000
ENDCHAR
STARTCHAR u
ENCODING 117
SWIDTH 462 0
DWIDTH 17 0
BBX 21 17 1 0
BITMAP
0009EF700006DF90000000
007FFFA0002FFFB0000000
00DFFF70007FFF90000000
02FFFF4000BFFF60000000
06FFFF0001FFFF30000000
0AFFFC0005FFFF00000000
0DFFF9000BFFFC00000000
0FFFF6002FFFF900000000
1FFFF4008FFFF500000000
3FFFF201EFFFF30000BE10
3FFFF109FFFFF0000AFF40
4FFFF36FFFFFE0009FFF20
3FFFFFFFDFFFF21AFFFA00
1FFFFFFF7FFFFFFFFFC100
0BFFFFFD0DFFFFFFFC1000
03FFFFE406FFFFFF900000
005DFC30008EFDA3000000
ENDCHAR
STARTCHAR v
ENCODING 118
SWIDTH 449 0
DWIDTH 16 0
BBX 20 17 1 0
BITMAP
07EE9000006CEB100000
1FFFF10007FFFF900000
3FFFF2002FFFFFB00000
3FFFF2008FFFFFA00000
3FFFF300AFFFFF700000
3FFFF3009FFFFF213685
2FFFF4005FFFFFEFFFFF
1FFFF5006FFFFFFFFFFE
1FFFF501EFFFFFFFFFF8
0FFFF609FFFDBEFEDA50
0EFFF73FFFF300000000
0CFFF9CFFF8000000000
0BFFFEFFFD1000000000
09FFFFFFF40000000000
05FFFFFF900000000000
00DFFFFB000000000000
002CFD70000000000000
ENDCHAR
STARTCHAR w
ENCODING 119
SWIDTH 700 0
DWIDTH 25 0
BBX 29 17 1 0
BITMAP
07EE9000002CFB000005CEB1000000
1FFFF10000BFFF20007FFFF9000000
3FFFF20002FFFF2002FFFFFC000000
3FFFF20008FFFF3007FFFFFB000000
3FFFF3000EFFFF3009FFFFF8000000
3FFFF3005FFFFF4008FFFFF3136860
2FFFF400BFFFFF4004FFFFFEFFFFF0
1FFFF503FFFFFF5006FFFFFFFFFFF0
1FFFF509FFFFFF601EFFFFFFFFFF90
0FFFF62FFFDFFF708FFFDBEFEDA500
0EFFF78FFE7FFF83FFFF3000000000
0CFFF9EFF96FFF9CFFF90000000000
0BFFFFFFF25FFFEFFFE10000000000
09FFFFFFA03FFFFFFF500000000000
05FFFFFF300EFFFFF9000000000000
00DFFFF70009FFFFB0000000000000
002CFD600001AFD800000000000000
ENDCHAR
STARTCHAR x
ENCODING 120
SWIDTH 529 0
DWIDTH 19 0
BBX 24 17 0 0
BITMAP
00004BEEB500017CED800000
0005FFFFFFA03DFFFFF50000
000CFFFFFFF8EFFFFFF80000
000FFFFFFFFFFFFFFFF70000
000EFFA1DFFFFF82FFF30000
0006ED208FFFFE00AE800000
000000006FFFF90000000000
000000006FFFF50000000000
001530008FFFF30000000041
05EFF100AFFFF200000009F8
0DFFF000EFFFF40000007FFA
4FFFE006FFFFF9000007FFF7
5FFFE13EFFFFFF7103BFFFE1
5FFFFFFFFFFFFFFFFFFFFE30
1FFFFFFFFAEFFFFFFFFFD300
07FFFFFF904EFFFFFFFB1000
006CFEB500017CEFDA400000
ENDCHAR
STARTCHAR y
ENCODING 121
SWIDTH 479 0
DWIDTH 17 0
BBX 23 34 -1 -17
BITMAP
000009EF700006DF90000000
00007FFFA0002FFFB0000000
0000DFFF70007FFF90000000
0002FFFF4000BFFF70000000
0006FFFF0001FFFF50000000
000AFFFC0005FFFF20000000
000DFFF9000BFFFF00000000
000FFFF6002FFFFC00000000
001FFFF4008FFFFA00000000
003FFFF201EFFFF80002CC00
003FFFF109FFFFF5007FFF20
004FFFF46FFFFFF32BFFFF10
003FFFFFFFEEFFF5EFFFF700
001FFFFFFF9FFFFFFFFD4000
000BFFFFFE5FFFFFFF910000
0003FFFFF56FFFFFE5000000
00005DFC409FFFFA10000000
0000000008FFFF7000000000
00000001BFFFFF1000000000
0000001CFFFFFC0000000000
000002DFFFFFF90000000000
00002DFFC9FFF60000000000
0001CFFC1CFFF20000000000
000AFFD11FFFD00000000000
006FFE205FFF900000000000
01EFF7009FFF400000000000
07FFE000EFFE000000000000
0CFF9006FFF8000000000000
0FFF601DFFF2000000000000
2FFF90AFFFA0000000000000
1FFFFFFFFF20000000000000
0CFFFFFFF700000000000000
04FFFFFF8000000000000000
004BEEB40000000000000000
ENDCHAR
STARTCHAR z
ENCODING 122
SWIDTH 445 0
DWIDTH 16 0
BBX 19 17 2 0
BITMAP
5EFFFFFFFFFFFF800000
CFFFFFFFFFFFFFF00000
CFFFFFFFFFFFFFE00000
5DEEEEEEFFFFFF900000
0000018EFFFFE7000000
00006EFFFFD610000000
001BFFFFE60000000000
01DFFFFA100000000000
0CFFFF70000000000610
5FFFFA0000000000AF90
AFFFF4000000000AFFA0
BFFFF600000003CFFF60
9FFFFE610026BFFFFC10
4FFFFFFFEFFFFFFFC100
09FFFFFFFFFFFFFA1000
007EFFFFFFFFFD500000
00017BDEFEC940000000
ENDCHAR
STARTCHAR braceleft
ENCODING 123
SWIDTH 490 0
DWIDTH 18 0
BBX 20 37 1 -3
BITMAP
0000000000016ADEFEB2
00000000004DFFFFFFFB
0000000004FFFFFFFFFC
000000001DFFFFFFFEC3
000000006FFFFE720000
00000000AFFFF5000000
00000000DFFFE0000000
00000000FFFFC0000000
00000002FFFFB0000000
00000004FFFF90000000
00000005FFFF70000000
00000007FFFF50000000
00000009FFFF30000000
0000000CFFFF10000000
0000004FFFFD00000000
000127EFFFF600000000
06EFFFFFFFA000000000
1FFFFFFFE80000000000
1FFFFFFFE40000000000
06DFFFFFFF2000000000
00003CFFFF9000000000
000003FFFFC000000000
000001FFFFC000000000
000002FFFFB000000000
000004FFFF9000000000
000005FFFF7000000000
000007FFFF5000000000
000009FFFF3000000000
00000BFFFF1000000000
00000DFFFE0000000000
00000DFFFE0000000000
00000CFFFF2000000000
00000AFFFFC300000000
000005FFFFFFFEC50000
000000CFFFFFFFFF0000
0000001CFFFFFFFE0000
000000005ADEFEB30000
ENDCHAR
STARTCHAR bar
ENCODING 124
SWIDTH 326 0
DWIDTH 12 0
BBX 11 45 1 -11
BITMAP
0000005DFB10
000001EFFF50
000003FFFF40
000005FFFF30
000007FFFF10
000008FFFE00
00000AFFFC00
00000CFFFA00
00000EFFF800
00001FFFF600
00003FFFF400
00005FFFF200
00007FFFF000
0000AFFFD000
0000CFFFA000
0000EFFF8000
0001FFFF6000
0004FFFF4000
0006FFFF1000
0008FFFE0000
000BFFFC0000
000DFFFA0000
000FFFF70000
002FFFF50000
005FFFF30000
007FFFF10000
009FFFD00000
00CFFFB00000
00EFFF900000
01FFFF700000
03FFFF400000
05FFFF200000
07FFFF000000
0AFFFD000000
0CFFFB000000
0EFFF9000000
1FFFF7000000
3FFFF5000000
5FFFF3000000
7FFFF1000000
9FFFE0000000
BFFFC0000000
DFFFA0000000
DFFF70000000
6DEA10000000
ENDCHAR
STARTCHAR braceright
ENCODING 125
SWIDTH 490 0
DWIDTH 18 0
BBX 20 37 -2 -3
BITMAP
000019DFFEB710000000
00009FFFFFFFE4000000
0000BFFFFFFFFE200000
00002BEFFFFFFF900000
0000000029FFFFE00000
0000000000DFFFF10000
0000000000AFFFF20000
0000000000AFFFF20000
0000000000BFFFF10000
0000000000EFFFE00000
0000000001FFFFC00000
0000000003FFFFA00000
0000000005FFFF800000
0000000006FFFF700000
0000000005FFFFA00000
0000000002FFFFF72000
0000000000AFFFFFFFC1
00000000001AFFFFFFF7
00000000004CFFFFFFF6
0000000005FFFFFFFEA1
000000001EFFFF930000
000000006FFFF9000000
00000000AFFFF3000000
00000000CFFFF1000000
00000000EFFFE0000000
00000001FFFFC0000000
00000003FFFFA0000000
00000005FFFF80000000
00000006FFFF70000000
00000008FFFF50000000
0000000AFFFF30000000
0000001EFFFE00000000
000015DFFFFA00000000
1ADFFFFFFFF300000000
7FFFFFFFFF8000000000
6FFFFFFFF70000000000
09DFFEB7200000000000
ENDCHAR
STARTCHAR asciitilde
ENCODING 126
SWIDTH 700 0
DWIDTH 25 0
BBX 21 9 2 6
BITMAP
0000157400000000000000
0003EFFFD400000003CE70
002EFFFFFFA200002EFFD0
00CFFFFFFFFF8100CFFFB0
06FFFFBEFFFFFD57FFFF50
0DFFFC02AFFFFFFFFFFC00
3FFFE20003CFFFFFFFE200
2FFF50000006EFFFFF4000
04730000000018DEB30000
ENDCHAR
STARTCHAR uni00A0
ENCODING 160
SWIDTH 265 0
DWIDTH 10 0
BBX 1 1 0 0
BITMAP
00
ENDCHAR
STARTCHAR exclamdown
ENCODING 161
SWIDTH 340 0
DWIDTH 12 0
BBX 12 31 -1 -14
BITMAP
0000003BFD91
000001EFFFF9
000007FFFFFE
000009FFFFFF
000008FFFFFD
000004FFFFF6
0000006DFD70
000000000000
000000000000
000002DFB000
000008FFF100
00000DFFE000
00003FFFC000
00008FFFA000
0000DFFF7000
0002FFFF4000
0007FFFF1000
000BFFFE0000
001FFFFB0000
005FFFF80000
009FFFF50000
00EFFFF10000
03FFFFD00000
07FFFFA00000
0BFFFF700000
0EFFFF400000
4FFFFF100000
8FFFFC000000
BFFFF8000000
DFFFF3000000
7EEC50000000
ENDCHAR
STARTCHAR cent
ENCODING 162
SWIDTH 466 0
DWIDTH 17 0
BBX 15 26 1 -5
BITMAP
000000007E600000
00000000DF900000
00000000FF700000
00000002FF500000
00000004FF300000
000006BFFFFB4000
0002CFFFFFFFF600
002EFFFFFFFFFF10
00CFFFFEFDCFFF50
06FFFE3CF93FFF60
0CFFF70EF75FFF40
2FFFF20FF57FFD00
4FFFD02FF33ED400
6FFFC04FF1000000
6FFFC06FE0000620
4FFFE08FC000AF90
1FFFF5AFB008FF90
0AFFFEDF93BFFF50
02EFFFFFFFFFFB00
005FFFFFFFFFC100
0004CFFFFFD70000
000006FF62000000
000007FF00000000
000009FE00000000
00000BFC00000000
000009E600000000
ENDCHAR
STARTCHAR sterling
ENCODING 163
SWIDTH 525 0
DWIDTH 19 0
BBX 19 22 0 0
BITMAP
0000000017BDDCA50000
00000007EFFFFFFFC200
000000AFFFFFFFFFFD10
000007FFFFFFFFFFFF70
00002FFFFF8215FFFFB0
00008FFFF600008FFFC0
0000DFFFB000002EFF90
0002FFFF600000038710
0004FFFF200000000000
0006FFFF000000000000
07DEFFFFDDDDDC100000
0EFFFFFFFFFFFF500000
0BFFFFFFFFFFFC100000
000BFFFA000000000000
000CFFF9000000000000
000DFFF8000000000000
000FFFF7000000000000
04CFFFF6000000000000
1EFFFFFEEEEEEEEEEA00
3FFFFFFFFFFFFFFFFF30
2FFFFFFFFFFFFFFFFF10
0BFDBAABCEFFFFFFE600
ENDCHAR
STARTCHAR currency
ENCODING 164
SWIDTH 700 0
DWIDTH 25 0
BBX 18 17 4 2
BITMAP
2DC200000000005EB0
8FFD239DFEC825FFF4
3EFFEFFFFFFFEFFFC1
03EFFFFFFFFFFFFC10
008FFFB3015DFFF400
01EFFB000002EFFA00
05FFF20000006FFF00
07FFC00000002FFF30
08FFB00000001FFF40
07FFC00000002FFF30
05FFF20000006FFF00
01EFFB000002EFFA00
008FFFB3015DFFF400
02DFFFFFFFFFFFFA00
2EFFFFFFFFFFFFFFB0
8FFE44ADFEC827FFF4
3DD300000000006EB0
ENDCHAR
STARTCHAR yen
ENCODING 165
SWIDTH 497 0
DWIDTH 18 0
BBX 19 22 1 0
BITMAP
05740000000000167400
8FFF7000000001DFFF40
AFFFE10000000AFFFF20
7FFFF80000005FFFF800
1EFFFE100001EFFFC000
06FFFF80000AFFFE2000
00DFFFE1005FFFF60000
005FFFF801EFFFA00000
000BFFFE1BFFFD100000
0003FFFFCFFFF3000000
0000AFFFFFFF70000000
00002FFFFFFB00000000
1CFFFFFFFFFFFFF40000
2FFFFFFFFFFFFFF40000
012228FFFF5222100000
000008FFFF2000000000
4EFFFFFFFFFFFFD10000
7FFFFFFFFFFFFFD10000
02222EFFFD2222100000
00001FFFFB0000000000
00001FFFF80000000000
000007EEB10000000000
ENDCHAR
STARTCHAR brokenbar
ENCODING 166
SWIDTH 326 0
DWIDTH 12 0
BBX 11 45 1 -11
BITMAP
0000005DFB10
000000EFFF50
000003FFFF50
000005FFFF30
000007FFFF10
000009FFFD00
00000CFFFB00
00000EFFF900
00001FFFF700
00003FFFF500
00005FFFF300
00007FFFF100
00009FFFE000
0000BFFFC000
0000DFFF9000
0000FFFF7000
0002FFFF5000
0004FFFF3000
0003FFFC0000
000058710000
000000000000
000000000000
000000000000
000000000000
000000000000
000588100000
006FFFA00000
00BFFFC00000
00DFFFA00000
00FFFF800000
02FFFF600000
04FFFF400000
06FFFF200000
08FFFE000000
0AFFFC000000
0DFFFA000000
0FFFF8000000
2FFFF6000000
4FFFF4000000
6FFFF2000000
8FFFE0000000
AFFFC0000000
CFFFA0000000
DFFF70000000
6EEA10000000
ENDCHAR
STARTCHAR section
ENCODING 167
SWIDTH 607 0
DWIDTH 22 0
BBX 19 31 2 0
BITMAP
000000038CEFEC930000
000001AFFFFFFFFF8000
00001CFFFFFFFFFFF700
00009FFFE6202AFFFD00
0001FFFF400001FFFF10
0004FFFD000000EFFF20
0006FFFD000000FFFF00
0006FFFF300000EFFA00
0003FFFFE40000387000
0000CFFFFFA300000000
00009FFFFFFFB3000000
0007FFFFFFFFFF910000
003FFFD9FFFFFFFD1000
008FFF5029FFFFFFA000
00CFFF30002AFFFFF100
00DFFF5000007FFFF400
00CFFFD100000DFFF400
009FFFFE50000CFFF300
003FFFFFFC603FFFD000
0007FFFFFFFDEFFF5000
00005EFFFFFFFFF80000
0000018EFFFFFFE10000
015500016CFFFFF70000
0DFF9000005FFFFC0000
5FFFB0000008FFFE0000
7FFFA0000005FFFD0000
6FFFB0000008FFFB0000
2FFFFA41028FFFF50000
0AFFFFFFFFFFFFA00000
009FFFFFFFFFF8000000
00038CEFFEB720000000
ENDCHAR
STARTCHAR dieresis
ENCODING 168
SWIDTH 600 0
DWIDTH 22 0
BBX 14 6 4 19
BITMAP
02BED40006DEA0
0BFFFE004FFFF6
1FFFFF108FFFF9
1FFFFF109FFFF8
0EFFFB007FFFF3
04DEB2001AED60
ENDCHAR
STARTCHAR copyright
ENCODING 169
SWIDTH 647 0
DWIDTH 23 0
BBX 21 21 3 13
BITMAP
00000049CEFEC940000000
00003CFFFFFFFFFC300000
0007FFFB63336BFFF50000
007FFD300000004EFF5000
03FFD2004BEFD702DFF200
0CFF3009FFFFFF604FFB00
4FF9008FF821BFA00AFF30
9FF303FF8000AFA004FF80
CFE009FE00006B3000FFB0
EFC00CFA0000000000DFD0
FFB00EF90000000000CFE0
EFC00DFB0000000000DFD0
CFE00AFF2000026000FFB0
9FF305FFC3127EB004FF80
4FF9009FFFFFFE400AFF30
0CFF3006DFFFA2004FFB00
03FFD10001200002DFF200
007FFD300000004EFF5000
0007FFFB63336BFFF60000
00003CFFFFFFFFFC300000
00000049CEFEC940000000
ENDCHAR
STARTCHAR ordfeminine
ENCODING 170
SWIDTH 393 0
DWIDTH 14 0
BBX 14 14 2 16
BITMAP
0000017CEE1000
00005EFFFFDDB1
0006FFFFFEFFF5
004FFFF81BFFF3
01DFFF700EFFF1
06FFFC002FFFE0
0CFFF5005FFFB0
1FFFF1008FFF90
2FFFE000DFFF70
2FFFD004FFFF60
1FFFF42DFFFF50
0BFFFFFFEFFF50
03FFFFF9CFFF40
003BEE805EEA00
ENDCHAR
STARTCHAR guillemotleft
ENCODING 171
SWIDTH 615 0
DWIDTH 22 0
BBX 20 14 1 2
BITMAP
0000006DD4000001AEB1
00002BFFFD00005EFFF7
0005EFFFFD001AFFFFF7
01AFFFFFE304DFFFFFA0
3DFFFFFA108FFFFFE500
CFFFFE6003FFFFFC2000
EFFFD20006FFFF800000
EFFFF60005FFFFC10000
6FFFFF8000CFFFFD3000
07FFFFFA001CFFFFE400
005EFFFFB100AFFFFF60
0003EFFFFA0008FFFFF3
00002CFFF900006FFFF2
000001AEA1000004DD50
ENDCHAR
STARTCHAR logicalnot
ENCODING 172
SWIDTH 700 0
DWIDTH 25 0
BBX 20 12 3 0
BITMAP
3CEEEEEEEEEEEEEEED91
CFFFFFFFFFFFFFFFFFF7
FFFFFFFFFFFFFFFFFFF9
7EFFFFFFFFFFFFFFFFF8
000000000000000FFFF6
000000000000002FFFF4
000000000000004FFFF2
000000000000006FFFF0
000000000000008FFFD0
000000000000009FFFB0
000000000000006FFF60
00000000000000047400
ENDCHAR
STARTCHAR uni00AD
ENCODING 173
SWIDTH 403 0
DWIDTH 15 0
BBX 12 6 2 8
BITMAP
000235689A50
5DFFFFFFFFF1
DFFFFFFFFFF3
DFFFFFFFFFD0
7FFFDCB98610
011000000000
ENDCHAR
STARTCHAR registered
ENCODING 174
SWIDTH 647 0
DWIDTH 23 0
BBX 21 21 3 13
BITMAP
00000049CEFEC940000000
00003CFFFFFFFFFC300000
0007FFFB63336BFFF50000
007FFD300000004EFF5000
03FFD218CEEC8202DFF200
0CFF309FFFEFFE304FFB00
4FF90029FC02DFA00AFF30
9FF3000AF900AFC004FF80
CFE0000CF700DF9000FFB0
EFC0000FF53AFE2000DFD0
FFB0002FFFFFB30000CFE0
EFC0005FFEFA000000DFD0
CFE0007FC2EF900000FFB0
9FF300AFA07FF30004FF80
4FF900CF801EFC000AFF30
0CFF30DF6008FF404FFB00
03FFD15910007812DFF200
007FFD300000004EFF5000
0007FFFB63336BFFF60000
00003CFFFFFFFFFC300000
00000049CEFEC940000000
ENDCHAR
STARTCHAR macron
ENCODING 175
SWIDTH 600 0
DWIDTH 22 0
BBX 12 4 5 19
BITMAP
3CEEEEEEEED4
BFFFFFFFFFFA
CFFFFFFFFFF9
6EFFFFFFFFD2
ENDCHAR
STARTCHAR degree
ENCODING 176
SWIDTH 385 0
DWIDTH 14 0
BBX 12 11 3 20
BITMAP
0005BEEC7000
009FFFFFFD10
08FFFFFFFFA0
1EFFA21AFFF2
5FFE1001FFF5
7FFC0000DFF6
6FFD0002FFF4
4FFF912BFFE1
0CFFFFFFFF70
02DFFFFFF900
0018DFEA4000
ENDCHAR
STARTCHAR plusminus
ENCODING 177
SWIDTH 700 0
DWIDTH 25 0
BBX 19 21 3 0
BITMAP
0000000005DE60000000
000000001EFFE0000000
000000003FFFD0000000
000000005FFFC0000000
000000007FFFA0000000
000000009FFF80000000
006EFFFFFFFFFFFFFD30
01FFFFFFFFFFFFFFFF90
02FFFFFFFFFFFFFFFF60
009EEEEEFFFFEEEED900
00000003FFFE00000000
00000004FFFC00000000
00000006FFFA00000000
00000008FFF800000000
00000007FFF300000000
00000000794000000000
00000000000000000000
09DEEEEEEEEEEEEE9000
6FFFFFFFFFFFFFFFF300
8FFFFFFFFFFFFFFFF100
3DFFFFFFFFFFFFFE6000
ENDCHAR
STARTCHAR uni00B2
ENCODING 178
SWIDTH 450 0
DWIDTH 16 0
BBX 15 17 2 13
BITMAP
000049DEFDA30000
001BFFFFFFFF7000
00CFFFFFFFFFF300
06FFFB313EFFFA00
0AFFE10008FFFC00
0CFFB00007FFFC00
09FF80000BFFFA00
004400003FFFF500
00000001DFFFC000
0000001BFFFE2000
000001CFFFF40000
00005EFFFE400000
004BFFFFC2000000
2BFFFFE700000000
BFFFFFFFFFFFFD10
DFFFFFFFFFFFFF40
8FFFFFFFFFFFFA00
ENDCHAR
STARTCHAR uni00B3
ENCODING 179
SWIDTH 450 0
DWIDTH 16 0
BBX 15 17 2 13
BITMAP
000049CEFEC81000
001AFFFFFFFFE400
00BFFFFFFFFFFD00
04FFFB3119FFFF30
07FFE10002FFFF30
03EF700005FFFE10
001200003EFFF600
0000028CFFFF6000
00000AFFFFC20000
000008FFFFFE6000
00000036AFFFF600
09C400000AFFFC00
6FFD000007FFFE00
7FFFA2015EFFFC00
2FFFFFFFFFFFF500
05FFFFFFFFFE6000
0028CEFFEB710000
ENDCHAR
STARTCHAR acute
ENCODING 180
SWIDTH 600 0
DWIDTH 22 0
BBX 9 11 9 19
BITMAP
00003DE800
0000DFFF40
0005FFFF60
000BFFFF30
003FFFF800
009FFFC000
01FFFE2000
08FFF40000
0EFF700000
4FFB000000
2DC1000000
ENDCHAR
STARTCHAR uni00B5
ENCODING 181
SWIDTH 462 0
DWIDTH 17 0
BBX 21 27 1 -10
BITMAP
0009EF700006DF90000000
007FFFA0002FFFB0000000
00DFFF70007FFF90000000
02FFFF4000BFFF60000000
06FFFF0001FFFF30000000
09FFFC0005FFFF00000000
0CFFF9000BFFFC00000000
0EFFF6002FFFF900000000
1FFFF4008FFFF500000000
3FFFF201EFFFF30000BE10
5FFFF109FFFFF0000AFF40
6FFFF36FFFFFE0009FFF20
8FFFFFFFDFFFF21AFFFA00
9FFFFFFF7FFFFFFFFFC100
AFFFFFFE1DFFFFFFFC1000
BFFFFFF406FFFFFF900000
CFFFFC40008EFDA3000000
DFFF600000000000000000
DFFF600000000000000000
EFFF600000000000000000
EFFF600000000000000000
EFFF500000000000000000
FFFF600000000000000000
FFFF600000000000000000
FFFF600000000000000000
CFFE200000000000000000
1662000000000000000000
ENDCHAR
STARTCHAR paragraph
ENCODING 182
SWIDTH 739 0
DWIDTH 27 0
BBX 23 31 3 0
BITMAP
00000027ACEEFFEECB730000
00005CFFFFFFFFFFFFFFB100
001BFFFFFFFFFFFFFFFFFB00
00CFFFFFFFFFFFFFFFFFFF20
08FFFFFFFFFFFFFFFFFFFF30
0EFFFFFFFFFFFF205FFFFF20
4FFFFFFFFFFFFE001FFFFE00
5FFFFFFFFFFFFB002FFFFC00
6FFFFFFFFFFFF8004FFFFA00
3FFFFFFFFFFFF5006FFFF700
0DFFFFFFFFFFF3009FFFF500
05FFFFFFFFFFF000BFFFF200
006FFFFFFFFFD000DFFFF000
0004DFFFFFFFA000FFFFC000
0000048CFFFF8003FFFFA000
00000008FFFF5006FFFF7000
0000000AFFFF3008FFFF5000
0000000DFFFF000BFFFF2000
0000000FFFFD000DFFFF0000
0000003FFFFB001FFFFC0000
0000005FFFF8003FFFFA0000
0000008FFFF6006FFFF80000
000000AFFFF4008FFFF60000
000000DFFFF200BFFFF40000
000000FFFFF000DFFFF20000
000002FFFFD000FFFFF00000
000004FFFFC002FFFFE00000
000006FFFFA004FFFFC00000
000007FFFF8005FFFFA00000
000005FFFF5003FFFF700000
000000AEE800008EEA000000
ENDCHAR
STARTCHAR periodcentered
ENCODING 183
SWIDTH 257 0
DWIDTH 9 0
BBX 8 7 1 5
BITMAP
019EEB30
0AFFFFE1
2FFFFFF4
4FFFFFF5
3FFFFFF3
0CFFFFB0
02BEEA10
ENDCHAR
STARTCHAR cedilla
ENCODING 184
SWIDTH 600 0
DWIDTH 22 0
BBX 11 11 2 -9
BITMAP
004BDCA61000
00CFFFFFD200
008EFFFFFD00
000013CFFF40
0000002FFF60
0000003FFF60
000003CFFF30
6DEEFFFFFD00
DFFFFFFFF400
DFFFFFFE5000
4CEFEC820000
ENDCHAR
STARTCHAR uni00B9
ENCODING 185
SWIDTH 450 0
DWIDTH 16 0
BBX 11 17 3 13
BITMAP
0000159CED40
005BFFFFFFA0
0CFFFFFFFF90
3FFFFEFFFF60
0BC831FFFF40
000003FFFF10
000005FFFE00
000008FFFC00
00000AFFFA00
00000CFFF800
00000EFFF600
00001FFFF400
00003FFFF200
00004FFFF000
00006FFFD000
00006FFFA000
00001CFC2000
ENDCHAR
STARTCHAR ordmasculine
ENCODING 186
SWIDTH 408 0
DWIDTH 15 0
BBX 13 14 3 16
BITMAP
00029DEDA40000
006FFFFFFF8000
05FFFFFFFFF500
1EFFE518FFFD00
6FFF7000DFFF30
BFFF2000AFFF50
DFFF00008FFF60
FFFF00009FFF40
EFFF1000BFFF20
CFFF4002FFFC00
7FFFC22BFFF500
1EFFFFFFFFA000
03EFFFFFFA0000
0028DEDB400000
ENDCHAR
STARTCHAR guillemotright
ENCODING 187
SWIDTH 615 0
DWIDTH 22 0
BBX 21 14 1 2
BITMAP
03CE60000008EC20000000
0EFFF800006FFFE3000000
1FFFFFA0007FFFFE500000
05FFFFFC100BFFFFF70000
003EFFFFD2009FFFFF9000
0002DFFFFE1007FFFFF800
00001CFFFF80006FFFFF10
000004FFFF90000BFFFF20
00008FFFFF6003CFFFFE00
003CFFFFFA007FFFFFE500
06FFFFFE601BFFFFFB2000
4FFFFFB200AFFFFF700000
5FFFF70000BFFFC3000000
09EB3000003CE800000000
ENDCHAR
STARTCHAR onequarter
ENCODING 188
SWIDTH 955 0
DWIDTH 34 0
BBX 31 30 3 0
BITMAP
0000159CED4000000000000000000000
005BFFFFFFA000000000000000000000
0CFFFFFFFF9000000000000000000000
3FFFFEFFFF600000001BE70000000000
0BC831FFFF40000000AFFF2000000000
000003FFFF10000004FFFF3000000000
000005FFFE0000000DFFFB0000000000
000008FFFC0000007FFFF30000000000
00000AFFFA000002EFFF900000000000
00000CFFF800000AFFFE100000000000
00000EFFF600004FFFF6000000000000
00001FFFF40000CFFFC0000000000000
00003FFFF20007FFFF30000000000000
00004FFFF0001EFFF90003CED1000000
00006FFFD0009FFFE1001EFFF2000000
00006FFFA003FFFF60009FFFA0000000
00001CFC200CFFFC0003FFFE218A5000
00000000006FFFF3000AFFF80BFFE000
0000000001EFFF90003FFFE12FFFD000
0000000009FFFE1000BFFF705FFFA000
000000003FFFF60003FFFE109FFF7000
00000000CFFFC00009FFF800BFFF4000
00000006FFFF30001EFFF100EFFF1000
0000000CFFF900004FFFFFFFFFFFFE30
0000000BFFE100003FFFFFFFFFFFFF60
00000003DE40000009FFFFFFFFFFEB10
000000000000000000000007FFF70000
000000000000000000000008FFF60000
000000000000000000000008FFF30000
000000000000000000000002DE900000
ENDCHAR
STARTCHAR onehalf
ENCODING 189
SWIDTH 1024 0
DWIDTH 37 0
BBX 33 30 3 0
BITMAP
0000159CED400000000000000000000000
005BFFFFFFA00000000000000000000000
0CFFFFFFFF900000000000000000000000
3FFFFEFFFF600000001BE7000000000000
0BC831FFFF40000000AFFF200000000000
000003FFFF10000004FFFF300000000000
000005FFFE0000000DFFFB000000000000
000008FFFC0000007FFFF3000000000000
00000AFFFA000002EFFF90000000000000
00000CFFF800000AFFFE10000000000000
00000EFFF600004FFFF600000000000000
00001FFFF40000CFFFC000000000000000
00003FFFF20007FFFF3000000000000000
00004FFFF0001EFFF9000049DEFDA40000
00006FFFD0009FFFE1001AFFFFFFFF8000
00006FFFA003FFFF6000BFFFFFFFFFF500
00001CFC200CFFFC0004FFFC313DFFFB00
00000000006FFFF30009FFF10007FFFE00
0000000001EFFF90000BFFC00006FFFE00
0000000009FFFE100007FF90000AFFFB00
000000003FFFF60000004400002FFFF600
00000000CFFFC0000000000001CFFFD000
00000006FFFF3000000000000AFFFF3000
0000000CFFF9000000000001BFFFF50000
0000000BFFE100000000004DFFFF500000
00000003DE40000000003BFFFFD3000000
0000000000000000001AFFFFE700000000
000000000000000000AFFFFFFFFFFFFD20
000000000000000000CFFFFFFFFFFFFF50
0000000000000000007FFFFFFFFFFFFA00
ENDCHAR
STARTCHAR threequarters
ENCODING 190
SWIDTH 1035 0
DWIDTH 37 0
BBX 35 30 2 0
BITMAP
000049CEFEC8100000000000000000000000
001AFFFFFFFFE40000000000000000000000
00BFFFFFFFFFFD0000000000000000000000
04FFFB3119FFFF300000002CE60000000000
07FFE10002FFFF30000000CFFF1000000000
03EF700005FFFE10000006FFFF1000000000
001200003EFFF60000001EFFFA0000000000
0000028CFFFF600000009FFFE20000000000
00000AFFFFC200000003FFFF700000000000
000008FFFFFE6000000BFFFD000000000000
00000036AFFFF600005FFFF4000000000000
09C400000AFFFC0001EFFFA0000000000000
6FFD000007FFFE0008FFFE20000000000000
7FFFA2015EFFFC002FFFF70005CFC0000000
2FFFFFFFFFFFF500BFFFD0003FFFE0000000
05FFFFFFFFFE6005FFFF4000BFFF80000000
0028CEFFEB71001DFFFA0004FFFE12893000
000000000000008FFFF2000CFFF60DFFC000
00000000000002FFFF70005FFFD04FFFB000
0000000000000BFFFD0000CFFF507FFF8000
0000000000005FFFF50004FFFD00AFFF5000
000000000000DFFFB0000BFFF600DFFF2000
000000000007FFFF20002FFFE001FFFE0000
00000000000DFFF800006FFFFFFFFFFFFD20
00000000000DFFD100005FFFFFFFFFFFFF40
000000000004DD3000000AFFFFFFFFFFEA00
0000000000000000000000000008FFF50000
000000000000000000000000000AFFF40000
000000000000000000000000000AFFF20000
0000000000000000000000000004EE800000
ENDCHAR
STARTCHAR questiondown
ENCODING 191
SWIDTH 476 0
DWIDTH 17 0
BBX 17 31 -2 -14
BITMAP
000000000005CFD700
00000000003FFFFF50
0000000000AFFFFFB0
0000000000CFFFFFC0
0000000000BFFFFFA0
00000000007FFFFF30
000000000008DFC500
000000000000000000
000000000000100000
00000000003EF60000
0000000000BFF90000
0000000002FFF70000
0000000009FFF50000
000000004FFFE00000
00000003EFFF800000
0000004EFFFD100000
000005FFFFE3000000
00007FFFFF50000000
0007FFFFF500000000
006FFFFF5000000000
03FFFFF70000000000
0BFFFFA00000363000
2FFFFF200002FFF600
6FFFFC000004FFFC00
8FFFFA000004FFFD00
8FFFFB000008FFFB00
6FFFFF71017FFFF700
2FFFFFFFEFFFFFE100
08FFFFFFFFFFFF4000
008FFFFFFFFFD40000
00028CEFEDA5100000
ENDCHAR
STARTCHAR Agrave
ENCODING 192
SWIDTH 786 0
DWIDTH 28 0
BBX 31 42 2 0
BITMAP
00000000000661000000000000000000
0000000000CFFD300000000000000000
0000000003FFFFE40000000000000000
0000000002FFFFFF6000000000000000
00000000007FFFFFF900000000000000
000000000004CFFFFFB1000000000000
00000000000004CFFFFC100000000000
0000000000000005DFFF600000000000
000000000000000005CE300000000000
00000000000000000000000000000000
00000000000000000000000000000000
0000000000000158ADDEFEDCA7300000
000000000004AEFFFFFFFFFFFFFD0000
0000000004CFFFFFFFFFFFFFFFFF3000
000000019FFFFFFFFFFEFFFFFFFD0000
0000002DFFFFFFC7310001369CA20000
000002DFFFFFB3000000000000000000
00001DFFFFF600000002BEE900000000
0000CFFFFE300000000AFFFF50000000
0008FFFFF4000000000EFFFF40000000
002FFFFF70000000001FFFFF10000000
00AFFFFC00000000004FFFFD00000000
02FFFFF400000000007FFFF900000000
08FFFFC00000000000BFFFF600000000
0DFFFF700000000000EFFFF300000000
2FFFFF200000000003FFFFE000000000
6FFFFD000000000006FFFFC000000000
9FFFFA00000000000AFFFF9000000000
CFFFF800000000000EFFFF6000000000
DFFFF600000000004FFFFF4000000000
EFFFF500000000009FFFFF2000000000
FFFFF50000000000EFFFFF0000000000
EFFFF50000000005FFFFFD0000000000
DFFFF7000000000CFFFFFC0000000000
BFFFFB000000005FFFFFFC0000002DA0
7FFFFF10000001DFFFFFFD000001DFE0
2FFFFFA000001BFFEFFFFF10001CFFC0
0AFFFFFA2005DFFF5FFFFFB104DFFF50
02EFFFFFFEFFFFF80DFFFFFFFFFFF800
004EFFFFFFFFFFA005FFFFFFFFFF8000
0003DFFFFFFFF800007FFFFFFFE50000
000005ADFEC820000003AEFEC8200000
ENDCHAR
STARTCHAR Aacute
ENCODING 193
SWIDTH 786 0
DWIDTH 28 0
BBX 31 42 2 0
BITMAP
00000000000000000000000002740000
0000000000000000000000006FFF8000
000000000000000000000008FFFFE000
0000000000000000000000AFFFFFD000
000000000000000000001CFFFFFE4000
00000000000000000002DFFFFFA20000
0000000000000000003EFFFFA2000000
000000000000000000AFFFB300000000
0000000000000000006EB30000000000
00000000000000000000000000000000
00000000000000000000000000000000
0000000000000158ADDEFEDCA7300000
000000000004AEFFFFFFFFFFFFFD0000
0000000004CFFFFFFFFFFFFFFFFF3000
000000019FFFFFFFFFFEFFFFFFFD0000
0000002DFFFFFFC7310001369CA20000
000002DFFFFFB3000000000000000000
00001DFFFFF600000002BEE900000000
0000CFFFFE300000000AFFFF50000000
0008FFFFF4000000000EFFFF40000000
002FFFFF70000000001FFFFF10000000
00AFFFFC00000000004FFFFD00000000
02FFFFF400000000007FFFF900000000
08FFFFC00000000000BFFFF600000000
0DFFFF700000000000EFFFF300000000
2FFFFF200000000003FFFFE000000000
6FFFFD000000000006FFFFC000000000
9FFFFA00000000000AFFFF9000000000
CFFFF800000000000EFFFF6000000000
DFFFF600000000004FFFFF4000000000
EFFFF500000000009FFFFF2000000000
FFFFF50000000000EFFFFF0000000000
EFFFF50000000005FFFFFD0000000000
DFFFF7000000000CFFFFFC0000000000
BFFFFB000000005FFFFFFC0000002DA0
7FFFFF10000001DFFFFFFD000001DFE0
2FFFFFA000001BFFEFFFFF10001CFFC0
0AFFFFFA2005DFFF5FFFFFB104DFFF50
02EFFFFFFEFFFFF80DFFFFFFFFFFF800
004EFFFFFFFFFFA005FFFFFFFFFF8000
0003DFFFFFFFF800007FFFFFFFE50000
000005ADFEC820000003AEFEC8200000
ENDCHAR
STARTCHAR Acircumflex
ENCODING 194
SWIDTH 786 0
DWIDTH 28 0
BBX 31 43 2 0
BITMAP
0000000000000000004BEE7000000000
000000000000000006FFFFF600000000
00000000000000002FFFFFFD00000000
0000000000000000CFFFDFFF40000000
0000000000000007FFFD4FFFA0000000
000000000000002EFFF50EFFF1000000
00000000000000BFFFB00AFFF6000000
00000000000005FFFF3006FFFB000000
00000000000009FFF90002FFFB000000
00000000000003DE9100007ED3000000
00000000000000000000000000000000
00000000000000000000000000000000
0000000000000158ADDEFEDCA7300000
000000000004AEFFFFFFFFFFFFFD0000
0000000004CFFFFFFFFFFFFFFFFF3000
000000019FFFFFFFFFFEFFFFFFFD0000
0000002DFFFFFFC7310001369CA20000
000002DFFFFFB3000000000000000000
00001DFFFFF600000002BEE900000000
0000CFFFFE300000000AFFFF50000000
0008FFFFF4000000000EFFFF40000000
002FFFFF70000000001FFFFF10000000
00AFFFFC00000000004FFFFD00000000
02FFFFF400000000007FFFF900000000
08FFFFC00000000000BFFFF600000000
0DFFFF700000000000EFFFF300000000
2FFFFF200000000003FFFFE000000000
6FFFFD000000000006FFFFC000000000
9FFFFA00000000000AFFFF9000000000
CFFFF800000000000EFFFF6000000000
DFFFF600000000004FFFFF4000000000
EFFFF500000000009FFFFF2000000000
FFFFF50000000000EFFFFF0000000000
EFFFF50000000005FFFFFD0000000000
DFFFF7000000000CFFFFFC0000000000
BFFFFB000000005FFFFFFC0000002DA0
7FFFFF10000001DFFFFFFD000001DFE0
2FFFFFA000001BFFEFFFFF10001CFFC0
0AFFFFFA2005DFFF5FFFFFB104DFFF50
02EFFFFFFEFFFFF80DFFFFFFFFFFF800
004EFFFFFFFFFFA005FFFFFFFFFF8000
0003DFFFFFFFF800007FFFFFFFE50000
000005ADFEC820000003AEFEC8200000
ENDCHAR
STARTCHAR Atilde
ENCODING 195
SWIDTH 786 0
DWIDTH 28 0
BBX 31 40 2 0
BITMAP
0000000000000019EE91000004730000
00000000000001DFFFFD40006FFE0000
0000000000000BFFFFFFF912EFFE0000
0000000000005FFFECFFFFDCFFF70000
000000000000BFFF408FFFFFFFD00000
000000000000CFF80003CFFFFE300000
0000000000002750000007DEB3000000
00000000000000000000000000000000
00000000000000000000000000000000
0000000000000158ADDEFEDCA7300000
000000000004AEFFFFFFFFFFFFFD0000
0000000004CFFFFFFFFFFFFFFFFF3000
000000019FFFFFFFFFFEFFFFFFFD0000
0000002DFFFFFFC7310001369CA20000
000002DFFFFFB3000000000000000000
00001DFFFFF600000002BEE900000000
0000CFFFFE300000000AFFFF50000000
0008FFFFF4000000000EFFFF40000000
002FFFFF70000000001FFFFF10000000
00AFFFFC00000000004FFFFD00000000
02FFFFF400000000007FFFF900000000
08FFFFC00000000000BFFFF600000000
0DFFFF700000000000EFFFF300000000
2FFFFF200000000003FFFFE000000000
6FFFFD000000000006FFFFC000000000
9FFFFA00000000000AFFFF9000000000
CFFFF800000000000EFFFF6000000000
DFFFF600000000004FFFFF4000000000
EFFFF500000000009FFFFF2000000000
FFFFF50000000000EFFFFF0000000000
EFFFF50000000005FFFFFD0000000000
DFFFF7000000000CFFFFFC0000000000
BFFFFB000000005FFFFFFC0000002DA0
7FFFFF10000001DFFFFFFD000001DFE0
2FFFFFA000001BFFEFFFFF10001CFFC0
0AFFFFFA2005DFFF5FFFFFB104DFFF50
02EFFFFFFEFFFFF80DFFFFFFFFFFF800
004EFFFFFFFFFFA005FFFFFFFFFF8000
0003DFFFFFFFF800007FFFFFFFE50000
000005ADFEC820000003AEFEC8200000
ENDCHAR
STARTCHAR Adieresis
ENCODING 196
SWIDTH 786 0
DWIDTH 28 0
BBX 31 39 2 0
BITMAP
000000000000004CEB20019EE7000000
00000000000002EFFFB009FFFF300000
00000000000006FFFFE00DFFFF600000
00000000000007FFFFD00EFFFF500000
00000000000004FFFF800BFFFE100000
000000000000007EE91002CEC4000000
00000000000000000000000000000000
00000000000000000000000000000000
0000000000000158ADDEFEDCA7300000
000000000004AEFFFFFFFFFFFFFD0000
0000000004CFFFFFFFFFFFFFFFFF3000
000000019FFFFFFFFFFEFFFFFFFD0000
0000002DFFFFFFC7310001369CA20000
000002DFFFFFB3000000000000000000
00001DFFFFF600000002BEE900000000
0000CFFFFE300000000AFFFF50000000
0008FFFFF4000000000EFFFF40000000
002FFFFF70000000001FFFFF10000000
00AFFFFC00000000004FFFFD00000000
02FFFFF400000000007FFFF900000000
08FFFFC00000000000BFFFF600000000
0DFFFF700000000000EFFFF300000000
2FFFFF200000000003FFFFE000000000
6FFFFD000000000006FFFFC000000000
9FFFFA00000000000AFFFF9000000000
CFFFF800000000000EFFFF6000000000
DFFFF600000000004FFFFF4000000000
EFFFF500000000009FFFFF2000000000
FFFFF50000000000EFFFFF0000000000
EFFFF50000000005FFFFFD0000000000
DFFFF7000000000CFFFFFC0000000000
BFFFFB000000005FFFFFFC0000002DA0
7FFFFF10000001DFFFFFFD000001DFE0
2FFFFFA000001BFFEFFFFF10001CFFC0
0AFFFFFA2005DFFF5FFFFFB104DFFF50
02EFFFFFFEFFFFF80DFFFFFFFFFFF800
004EFFFFFFFFFFA005FFFFFFFFFF8000
0003DFFFFFFFF800007FFFFFFFE50000
000005ADFEC820000003AEFEC8200000
ENDCHAR
STARTCHAR Aring
ENCODING 197
SWIDTH 786 0
DWIDTH 28 0
BBX 31 43 2 0
BITMAP
0000000000000000029DFD8100000000
00000000000000003EFFFFFC10000000
0000000000000000DFFFFFFF90000000
0000000000000005FFF41AFFE0000000
0000000000000008FFA003FFF1000000
0000000000000009FF9003FFF0000000
0000000000000007FFE31BFFC0000000
0000000000000002FFFFFFFF50000000
00000000000000007FFFFFF900000000
000000000000000004BEEB5000000000
00000000000000000000000000000000
00000000000000000000000000000000
0000000000000158ADDEFEDCA7300000
000000000004AEFFFFFFFFFFFFFD0000
0000000004CFFFFFFFFFFFFFFFFF3000
000000019FFFFFFFFFFEFFFFFFFD0000
0000002DFFFFFFC7310001369CA20000
000002DFFFFFB3000000000000000000
00001DFFFFF600000002BEE900000000
0000CFFFFE300000000AFFFF50000000
0008FFFFF4000000000EFFFF40000000
002FFFFF70000000001FFFFF10000000
00AFFFFC00000000004FFFFD00000000
02FFFFF400000000007FFFF900000000
08FFFFC00000000000BFFFF600000000
0DFFFF700000000000EFFFF300000000
2FFFFF200000000003FFFFE000000000
6FFFFD000000000006FFFFC000000000
9FFFFA00000000000AFFFF9000000000
CFFFF800000000000EFFFF6000000000
DFFFF600000000004FFFFF4000000000
EFFFF500000000009FFFFF2000000000
FFFFF50000000000EFFFFF0000000000
EFFFF50000000005FFFFFD0000000000
DFFFF7000000000CFFFFFC0000000000
BFFFFB000000005FFFFFFC0000002DA0
7FFFFF10000001DFFFFFFD000001DFE0
2FFFFFA000001BFFEFFFFF10001CFFC0
0AFFFFFA2005DFFF5FFFFFB104DFFF50
02EFFFFFFEFFFFF80DFFFFFFFFFFF800
004EFFFFFFFFFFA005FFFFFFFFFF8000
0003DFFFFFFFF800007FFFFFFFE50000
000005ADFEC820000003AEFEC8200000
ENDCHAR
STARTCHAR AE
ENCODING 198
SWIDTH 1015 0
DWIDTH 37 0
BBX 40 31 2 0
BITMAP
000000000000159CEEA00018DFFFFFFFFFFD5000
000000000029EFFFFFF501CFFFFFFFFFFFFFC000
0000000018FFFFFFFFF709FFFFFFFFFFFFFFC000
00000003DFFFFFFFFFE31FFFFFFFFFFFFFFF8000
0000004EFFFFFFFB75106FFFFFFFFFFFFFEA1000
000004FFFFFFE8100000AFFFF910000000000000
00003EFFFFFA10000000EFFFF300000000000000
0001DFFFFF7000000003FFFFE000000000000000
0009FFFFF70000000007FFFFA000000000000000
003FFFFF90000000000BFFFF6000000000000000
00BFFFFD10000000000EFFFF2000000000000000
03FFFFF500000000003FFFFE0000000000000000
09FFFFD000000000007FFFFA0000000000000000
0EFFFF700000000000BFFFFFFFFFFFFFFC100000
3FFFFF200000000001FFFFFFFFFFFFFFFF500000
7FFFFD000000000004FFFFFFFFFFFFFFFF200000
9FFFFA000000000009FFFFFEEEEEEEEED6000000
CFFFF800000000000DFFFF900000000000000000
DFFFF600000000003FFFFF700000000000000000
EFFFF500000000008FFFFF500000000000000000
FFFFF50000000000DFFFFF500000000000000000
EFFFF50000000005FFFFFF500000000000000000
DFFFF7000000000BFFFFFF800000000000000000
AFFFFA000000004FFFFFFFC00000000000000000
7FFFFF10000001DFFEFFFFF40000000000005CA0
2FFFFFA000000AFFF5DFFFFE30000000004CFFF1
09FFFFFA2015CFFFC06FFFFFF94100148DFFFFE0
01EFFFFFFEFFFFFE200BFFFFFFFFEEFFFFFFFF60
003EFFFFFFFFFFE40001BFFFFFFFFFFFFFFFE500
0002CFFFFFFFFD30000006EFFFFFFFFFFFD71000
0000049DEFEB5000000000159CEFFECA63000000
ENDCHAR
STARTCHAR Ccedilla
ENCODING 199
SWIDTH 686 0
DWIDTH 25 0
BBX 28 40 2 -9
BITMAP
000000000027ADEFEC8200000000
000000002AFFFFFFFFFF80000000
00000008FFFFFFFFFFFFF9000000
000001BFFFFFFFEFFFFFFF400000
00001CFFFFFD62003BFFFFB00000
0000AFFFFF80000001EFFFF10000
0006FFFFF600000000AFFFF20000
001EFFFF80000000009FFFF30000
008FFFFC0000000000AFFFF20000
01EFFFF40000000000CFFFE00000
06FFFFD00000000000DFFF900000
0BFFFF7000000000008FFD200000
1FFFFF3000000000000230000000
4FFFFE0000000000000000000000
6FFFFC0000000000000000000000
8FFFFA0000000000000000000000
9FFFFA0000000000000000000000
AFFFF90000000000000000000000
AFFFFA0000000000000000000000
AFFFFB0000000000000000000000
8FFFFE0000000000000000000000
5FFFFF2000000000000000000000
2FFFFF9000000000000000000000
0BFFFFF200000000000000000000
04FFFFFD10000000000000002770
00BFFFFFD40000000000015BFFF3
001EFFFFFFB630000147BFFFFFF2
0003EFFFFFFFFFFEFFFFFFFFFFB0
00002CFFFFFFFFFFFFFFFFFFFA10
0000006DFFFFFFFFFFFFFFD82000
00000006FFFFFFFFEDB962000000
00000007FFFFFFF3000000000000
00000000235BFFF9000000000000
000000000000EFFC000000000000
000000000000EFFC000000000000
000000000029FFFA000000000000
000003DEEEFFFFF5000000000000
000009FFFFFFFFB0000000000000
000009FFFFFFFA10000000000000
000002AEFFDA4000000000000000
ENDCHAR
STARTCHAR Egrave
ENCODING 200
SWIDTH 686 0
DWIDTH 25 0
BBX 29 42 1 0
BITMAP
000000037300000000000000000000
0000005FFF80000000000000000000
000000BFFFFA100000000000000000
000000AFFFFFC10000000000000000
0000002DFFFFFD3000000000000000
000000018EFFFFE400000000000000
00000000019FFFFF50000000000000
0000000000029FFFD0000000000000
000000000000029E90000000000000
000000000000000000000000000000
000000000000000000000000000000
000000000037ADEFEDB82000000000
000000005CFFFFFFFFFFFA10000000
0000002BFFFFFFFFFFFFFFD1000000
000002DFFFFFFFFEFFFFFFFA000000
00001DFFFFFD6200028FFFFF300000
00008FFFFF8000000008FFFF700000
0000EFFFFA0000000003FFFF900000
0004FFFFF30000000002FFFF900000
0005FFFFF00000000004FFFF800000
0005FFFFF00000000006FFFF400000
0003FFFFF40000000006FFFD000000
0000CFFFFD20000000009DB2000000
00003EFFFFE8310000000000000000
000003EFFFFFFFFD10000000000000
00000019FFFFFFFF40000000000000
000017DFFFFFFFFF20000000000000
0006EFFFFFFFFED700000000000000
008FFFFFE952000000000000000000
06FFFFF91000000000000000000000
1EFFFF800000000000000000000000
7FFFFD000000000000000000000000
BFFFF9000000000000000000000000
DFFFF7000000000000000000000000
DFFFF9000000000000000000000000
BFFFFE200000000000000000038800
6FFFFFD30000000000000037CFFF30
0CFFFFFFA63100001257AEFFFFFF20
02EFFFFFFFFFFEEFFFFFFFFFFFFB00
002BFFFFFFFFFFFFFFFFFFFFFF8100
00004BFFFFFFFFFFFFFFFFFB710000
000000158BDEFFFEDCA86300000000
ENDCHAR
STARTCHAR Eacute
ENCODING 201
SWIDTH 686 0
DWIDTH 25 0
BBX 29 42 1 0
BITMAP
000000000000000000000056100000
000000000000000000001CFFE10000
00000000000000000003DFFFF60000
0000000000000000004EFFFFF50000
000000000000000006FFFFFFA00000
00000000000000008FFFFFD5000000
000000000000000AFFFFD600000000
000000000000003FFFE60000000000
000000000000001CD7100000000000
000000000000000000000000000000
000000000000000000000000000000
000000000037ADEFEDB82000000000
000000005CFFFFFFFFFFFA10000000
0000002BFFFFFFFFFFFFFFD1000000
000002DFFFFFFFFEFFFFFFFA000000
00001DFFFFFD6200028FFFFF300000
00008FFFFF8000000008FFFF700000
0000EFFFFA0000000003FFFF900000
0004FFFFF30000000002FFFF900000
0005FFFFF00000000004FFFF800000
0005FFFFF00000000006FFFF400000
0003FFFFF40000000006FFFD000000
0000CFFFFD20000000009DB2000000
00003EFFFFE8310000000000000000
000003EFFFFFFFFD10000000000000
00000019FFFFFFFF40000000000000
000017DFFFFFFFFF20000000000000
0006EFFFFFFFFED700000000000000
008FFFFFE952000000000000000000
06FFFFF91000000000000000000000
1EFFFF800000000000000000000000
7FFFFD000000000000000000000000
BFFFF9000000000000000000000000
DFFFF7000000000000000000000000
DFFFF9000000000000000000000000
BFFFFE200000000000000000038800
6FFFFFD30000000000000037CFFF30
0CFFFFFFA63100001257AEFFFFFF20
02EFFFFFFFFFFEEFFFFFFFFFFFFB00
002BFFFFFFFFFFFFFFFFFFFFFF8100
00004BFFFFFFFFFFFFFFFFFB710000
000000158BDEFFFEDCA86300000000
ENDCHAR
STARTCHAR Ecircumflex
ENCODING 202
SWIDTH 686 0
DWIDTH 25 0
BBX 29 43 1 0
BITMAP
0000000000000019DEB20000000000
00000000000001DFFFFD0000000000
0000000000000AFFFFFF5000000000
0000000000005FFFEFFFB000000000
000000000001EFFF5CFFF200000000
00000000000AFFFC07FFF800000000
00000000004FFFF303FFFD00000000
0000000000DFFFA000EFFF30000000
0000000002FFFE2000AFFF30000000
00000000009ED400002CE800000000
000000000000000000000000000000
000000000000000000000000000000
000000000037ADEFEDB82000000000
000000005CFFFFFFFFFFFA10000000
0000002BFFFFFFFFFFFFFFD1000000
000002DFFFFFFFFEFFFFFFFA000000
00001DFFFFFD6200028FFFFF300000
00008FFFFF8000000008FFFF700000
0000EFFFFA0000000003FFFF900000
0004FFFFF30000000002FFFF900000
0005FFFFF00000000004FFFF800000
0005FFFFF00000000006FFFF400000
0003FFFFF40000000006FFFD000000
0000CFFFFD20000000009DB2000000
00003EFFFFE8310000000000000000
000003EFFFFFFFFD10000000000000
00000019FFFFFFFF40000000000000
000017DFFFFFFFFF20000000000000
0006EFFFFFFFFED700000000000000
008FFFFFE952000000000000000000
06FFFFF91000000000000000000000
1EFFFF800000000000000000000000
7FFFFD000000000000000000000000
BFFFF9000000000000000000000000
DFFFF7000000000000000000000000
DFFFF9000000000000000000000000
BFFFFE200000000000000000038800
6FFFFFD30000000000000037CFFF30
0CFFFFFFA63100001257AEFFFFFF20
02EFFFFFFFFFFEEFFFFFFFFFFFFB00
002BFFFFFFFFFFFFFFFFFFFFFF8100
00004BFFFFFFFFFFFFFFFFFB710000
000000158BDEFFFEDCA86300000000
ENDCHAR
STARTCHAR Edieresis
ENCODING 203
SWIDTH 686 0
DWIDTH 25 0
BBX 29 39 1 0
BITMAP
000000000019ED60004CEB20000000
00000000009FFFF302FFFFA0000000
0000000000EFFFF606FFFFD0000000
0000000000FFFFF507FFFFC0000000
0000000000CFFFE104FFFF70000000
00000000002CEC30008EE800000000
000000000000000000000000000000
000000000000000000000000000000
000000000037ADEFEDB82000000000
000000005CFFFFFFFFFFFA10000000
0000002BFFFFFFFFFFFFFFD1000000
000002DFFFFFFFFEFFFFFFFA000000
00001DFFFFFD6200028FFFFF300000
00008FFFFF8000000008FFFF700000
0000EFFFFA0000000003FFFF900000
0004FFFFF30000000002FFFF900000
0005FFFFF00000000004FFFF800000
0005FFFFF00000000006FFFF400000
0003FFFFF40000000006FFFD000000
0000CFFFFD20000000009DB2000000
00003EFFFFE8310000000000000000
000003EFFFFFFFFD10000000000000
00000019FFFFFFFF40000000000000
000017DFFFFFFFFF20000000000000
0006EFFFFFFFFED700000000000000
008FFFFFE952000000000000000000
06FFFFF91000000000000000000000
1EFFFF800000000000000000000000
7FFFFD000000000000000000000000
BFFFF9000000000000000000000000
DFFFF7000000000000000000000000
DFFFF9000000000000000000000000
BFFFFE200000000000000000038800
6FFFFFD30000000000000037CFFF30
0CFFFFFFA63100001257AEFFFFFF20
02EFFFFFFFFFFEEFFFFFFFFFFFFB00
002BFFFFFFFFFFFFFFFFFFFFFF8100
00004BFFFFFFFFFFFFFFFFFB710000
000000158BDEFFFEDCA86300000000
ENDCHAR
STARTCHAR Igrave
ENCODING 204
SWIDTH 495 0
DWIDTH 18 0
BBX 21 42 -1 0
BITMAP
0000166000000000000000
0001DFFC20000000000000
0005FFFFE3000000000000
0004FFFFFE500000000000
00009FFFFFF70000000000
000005DFFFFF9000000000
00000005DFFFFB00000000
0000000006DFFF40000000
000000000007DD20000000
0000000000000000000000
0000000000000000000000
000005CEFFFFFFFFFFFD60
00002FFFFFFFFFFFFFFFE0
00005FFFFFFFFFFFFFFFB0
00001ADEEEFFFFFEEEDA20
0000000002FFFFF0000000
0000000004FFFFC0000000
0000000006FFFFA0000000
0000000008FFFF70000000
000000000AFFFF50000000
000000000DFFFF30000000
000000000FFFFF00000000
000000002FFFFD00000000
000000005FFFFB00000000
000000007FFFF800000000
00000000AFFFF600000000
00000000CFFFF400000000
00000000EFFFF100000000
00000002FFFFE000000000
00000004FFFFC000000000
00000006FFFFA000000000
00000009FFFF8000000000
0000000BFFFF5000000000
0000000DFFFF3000000000
0000000FFFFF1000000000
0000003FFFFE0000000000
0000005FFFFC0000000000
0000007FFFFA0000000000
039CDEEFFFFFEEDB300000
4FFFFFFFFFFFFFFFD00000
9FFFFFFFFFFFFFFFC00000
3DFFFFFFFFFFFFEB200000
ENDCHAR
STARTCHAR Iacute
ENCODING 205
SWIDTH 495 0
DWIDTH 18 0
BBX 23 42 -1 0
BITMAP
000000000000000000037400
0000000000000000007FFF60
00000000000000000AFFFFC0
0000000000000001BFFFFFA0
000000000000002DFFFFFD20
00000000000004EFFFFF8100
0000000000004FFFFF920000
000000000000DFFFA2000000
0000000000008EA200000000
000000000000000000000000
000000000000000000000000
000005CEFFFFFFFFFFFD6000
00002FFFFFFFFFFFFFFFE000
00005FFFFFFFFFFFFFFFB000
00001ADEEEFFFFFEEEDA2000
0000000002FFFFF000000000
0000000004FFFFC000000000
0000000006FFFFA000000000
0000000008FFFF7000000000
000000000AFFFF5000000000
000000000DFFFF3000000000
000000000FFFFF0000000000
000000002FFFFD0000000000
000000005FFFFB0000000000
000000007FFFF80000000000
00000000AFFFF60000000000
00000000CFFFF40000000000
00000000EFFFF10000000000
00000002FFFFE00000000000
00000004FFFFC00000000000
00000006FFFFA00000000000
00000009FFFF800000000000
0000000BFFFF500000000000
0000000DFFFF300000000000
0000000FFFFF100000000000
0000003FFFFE000000000000
0000005FFFFC000000000000
0000007FFFFA000000000000
039CDEEFFFFFEEDB30000000
4FFFFFFFFFFFFFFFD0000000
9FFFFFFFFFFFFFFFC0000000
3DFFFFFFFFFFFFEB20000000
ENDCHAR
STARTCHAR Icircumflex
ENCODING 206
SWIDTH 495 0
DWIDTH 18 0
BBX 21 43 -1 0
BITMAP
0000000000005CED600000
000000000008FFFFF40000
00000000004FFFFFFB0000
0000000001DFFFDFFF2000
0000000009FFFB6FFF8000
000000004FFFF32FFFD000
00000001DFFF900CFFF400
00000007FFFE1008FFF900
0000000BFFF70004FFF900
00000004DE8000009EC200
0000000000000000000000
0000000000000000000000
000005CEFFFFFFFFFFFD60
00002FFFFFFFFFFFFFFFE0
00005FFFFFFFFFFFFFFFB0
00001ADEEEFFFFFEEEDA20
0000000002FFFFF0000000
0000000004FFFFC0000000
0000000006FFFFA0000000
0000000008FFFF70000000
000000000AFFFF50000000
000000000DFFFF30000000
000000000FFFFF00000000
000000002FFFFD00000000
000000005FFFFB00000000
000000007FFFF800000000
00000000AFFFF600000000
00000000CFFFF400000000
00000000EFFFF100000000
00000002FFFFE000000000
00000004FFFFC000000000
00000006FFFFA000000000
00000009FFFF8000000000
0000000BFFFF5000000000
0000000DFFFF3000000000
0000000FFFFF1000000000
0000003FFFFE0000000000
0000005FFFFC0000000000
0000007FFFFA0000000000
039CDEEFFFFFEEDB300000
4FFFFFFFFFFFFFFFD00000
9FFFFFFFFFFFFFFFC00000
3DFFFFFFFFFFFFEB200000
ENDCHAR
STARTCHAR Idieresis
ENCODING 207
SWIDTH 495 0
DWIDTH 18 0
BBX 21 39 -1 0
BITMAP
000000006DEA1001AED500
00000003FFFF800BFFFF10
00000008FFFFC01FFFFF40
00000009FFFFB01FFFFF30
00000006FFFF600DFFFD00
000000009ED70004CEB200
0000000000000000000000
0000000000000000000000
000005CEFFFFFFFFFFFD60
00002FFFFFFFFFFFFFFFE0
00005FFFFFFFFFFFFFFFB0
00001ADEEEFFFFFEEEDA20
0000000002FFFFF0000000
0000000004FFFFC0000000
0000000006FFFFA0000000
0000000008FFFF70000000
000000000AFFFF50000000
000000000DFFFF30000000
000000000FFFFF00000000
000000002FFFFD00000000
000000005FFFFB00000000
000000007FFFF800000000
00000000AFFFF600000000
00000000CFFFF400000000
00000000EFFFF100000000
00000002FFFFE000000000
00000004FFFFC000000000
00000006FFFFA000000000
00000009FFFF8000000000
0000000BFFFF5000000000
0000000DFFFF3000000000
0000000FFFFF1000000000
0000003FFFFE0000000000
0000005FFFFC0000000000
0000007FFFFA0000000000
039CDEEFFFFFEEDB300000
4FFFFFFFFFFFFFFFD00000
9FFFFFFFFFFFFFFFC00000
3DFFFFFFFFFFFFEB200000
ENDCHAR
STARTCHAR Eth
ENCODING 208
SWIDTH 821 0
DWIDTH 30 0
BBX 29 31 0 0
BITMAP
00000000028BDEFFEDB83000000000
000000000DFFFFFFFFFFFD60000000
000000005FFFFFFFFFFFFFFC200000
000000009FFFFEEFFFFFFFFFE40000
00000000EFFFF100149EFFFFFE3000
00000003FFFFB0000001BFFFFFC000
00000008FFFF700000000AFFFFF600
0000000CFFFF3000000000CFFFFD00
0000001FFFFE00000000005FFFFF30
0000005FFFFA00000000000EFFFF80
0000008FFFF600000000000AFFFFA0
000000CFFFF3000000000008FFFFC0
000001FFFFE0000000000007FFFFD0
04ADEEFFFFFEEEEDB4000006FFFFD0
3FFFFFFFFFFFFFFFFE000007FFFFC0
6FFFFFFFFFFFFFFFFE000008FFFFB0
2DFFFFFFFFFFFFFFD500000AFFFF90
00004FFFFC0000000000000DFFFF70
00007FFFFA0000000000002FFFFF30
00009FFFF70000000000007FFFFD00
0000CFFFF4000000000000DFFFF800
0000EFFFF2000000000006FFFFF200
0002FFFFE000000000002EFFFF9000
0004FFFFD00000000001CFFFFE1000
0006FFFFB0000000002CFFFFF40000
0008FFFF9000000007EFFFFF600000
000AFFFF70000259EFFFFFF6000000
000BFFFFFEEEFFFFFFFFFE40000000
000CFFFFFFFFFFFFFFFF9100000000
0008FFFFFFFFFFFFFE920000000000
000059BDEEFEECA730000000000000
ENDCHAR
STARTCHAR Ntilde
ENCODING 209
SWIDTH 884 0
DWIDTH 32 0
BBX 37 40 0 0
BITMAP
0000000000000004CEC4000001660000000000
000000000000006FFFFF91001CFF7000000000
00000000000003FFFFFFFD409FFF7000000000
0000000000000CFFFBFFFFFAFFFE1000000000
0000000000003FFFC03CFFFFFFF60000000000
0000000000004FFE20007FFFFFA00000000000
0000000000000572000003BED7000000000000
00000000000000000000000000000000000000
00000000000000000000000000000000000000
0000017BEFD7000000005ADEEC810000000000
00007EFFFFFF8000003CFFFFFFFE3000000000
001BFFFFFFFFF10005FFFFFFFFFFD000000000
01CFFFFEFFFFF4004FFFFFFFFFFFF500000000
0BFFFB309FFFF602EFFD5005EFFFFA00000000
7FFF90005FFFF50BFFA100008FFFFC00000000
DFF900005FFFF55FFB0000006FFFFC00000000
FFC000006FFFF3CFD10000006FFFFB00000000
7B2000008FFFF6FF500000008FFFFA00000000
000000009FFFFBFB00000000BFFFF700000000
00000000BFFFEFF400000000EFFFF500000000
00000000DFFFFFC000000002FFFFF200000000
00000000FFFFFF7000000005FFFFE000000000
00000002FFFFFF1000000008FFFFB000000000
00000004FFFFFB000000000BFFFF7000000000
00000006FFFFF6000000000EFFFF4000000000
00000008FFFFF2000000003FFFFF1000000000
0000000BFFFFD0000000006FFFFD0000000000
0000000DFFFF90000000009FFFFA0000000000
0000001FFFFF5000000000CFFFF70000000000
0000003FFFFF2000000000EFFFF40000000000
0000005FFFFE0000000001FFFFF10000000000
0000008FFFFC0000000003FFFFE00000000000
000000AFFFF90000000004FFFFD00000007F30
000000CFFFF60000000004FFFFD0000006FF70
000000EFFFF40000000003FFFFF200005FFF50
000001FFFFF20000000000EFFFFB2029FFFD00
000002FFFFF000000000009FFFFFFEFFFFE200
000002FFFFD000000000002EFFFFFFFFFD3000
000000EFFF90000000000003EFFFFFFFB10000
0000005DEB2000000000000018CEFDA4000000
ENDCHAR
STARTCHAR Ograve
ENCODING 210
SWIDTH 816 0
DWIDTH 29 0
BBX 27 42 2 0
BITMAP
0000000661000000000000000000
000000BFFE300000000000000000
000002FFFFE50000000000000000
000001FFFFFF7000000000000000
0000006FFFFFF900000000000000
00000003BFFFFFB1000000000000
0000000004CFFFFD100000000000
000000000005CFFF700000000000
00000000000005CE300000000000
0000000000000000000000000000
0000000000000000000000000000
000000000027ADEFEC9400000000
000000002AFFFFFFFFFFD4000000
00000008FFFFFFFFFFFFFF900000
000001BFFFFFFFEFFFFFFFF90000
00001BFFFFFC510028EFFFFF7000
0000AFFFFF600000002EFFFFE200
0006FFFFF50000000003FFFFF800
001EFFFF7000000000009FFFFE00
008FFFFC0000000000003FFFFF40
01EFFFF40000000000000EFFFF70
06FFFFD00000000000000BFFFF90
0BFFFF800000000000000AFFFFA0
0EFFFF4000000000000009FFFFB0
3FFFFF1000000000000009FFFFA0
6FFFFD0000000000000009FFFFA0
8FFFFB000000000000000BFFFF80
9FFFFA000000000000000CFFFF60
AFFFF9000000000000000FFFFF40
AFFFF9000000000000003FFFFF10
AFFFFA000000000000007FFFFB00
9FFFFC00000000000000CFFFF600
7FFFFE00000000000004FFFFE100
3FFFFF4000000000000CFFFF9000
0EFFFFA000000000006FFFFE1000
08FFFFF30000000004FFFFF60000
01EFFFFE300000006EFFFFA00000
006FFFFFF820015BFFFFFC100000
0009FFFFFFFFEFFFFFFFB1000000
00009FFFFFFFFFFFFFF800000000
000004DFFFFFFFFFFB3000000000
000000049CEFEDA7200000000000
ENDCHAR
STARTCHAR Oacute
ENCODING 211
SWIDTH 816 0
DWIDTH 29 0
BBX 27 42 2 0
BITMAP
0000000000000000000002750000
000000000000000000005EFF9000
00000000000000000007FFFFF000
0000000000000000009FFFFFD000
00000000000000001BFFFFFE4000
0000000000000002DFFFFFA20000
000000000000002EFFFFA3000000
00000000000000AFFFB300000000
000000000000005EB40000000000
0000000000000000000000000000
0000000000000000000000000000
000000000027ADEFEC9400000000
000000002AFFFFFFFFFFD4000000
00000008FFFFFFFFFFFFFF900000
000001BFFFFFFFEFFFFFFFF90000
00001BFFFFFC510028EFFFFF7000
0000AFFFFF600000002EFFFFE200
0006FFFFF50000000003FFFFF800
001EFFFF7000000000009FFFFE00
008FFFFC0000000000003FFFFF40
01EFFFF40000000000000EFFFF70
06FFFFD00000000000000BFFFF90
0BFFFF800000000000000AFFFFA0
0EFFFF4000000000000009FFFFB0
3FFFFF1000000000000009FFFFA0
6FFFFD0000000000000009FFFFA0
8FFFFB000000000000000BFFFF80
9FFFFA000000000000000CFFFF60
AFFFF9000000000000000FFFFF40
AFFFF9000000000000003FFFFF10
AFFFFA000000000000007FFFFB00
9FFFFC00000000000000CFFFF600
7FFFFE00000000000004FFFFE100
3FFFFF4000000000000CFFFF9000
0EFFFFA000000000006FFFFE1000
08FFFFF30000000004FFFFF60000
01EFFFFE300000006EFFFFA00000
006FFFFFF820015BFFFFFC100000
0009FFFFFFFFEFFFFFFFB1000000
00009FFFFFFFFFFFFFF800000000
000004DFFFFFFFFFFB3000000000
000000049CEFEDA7200000000000
ENDCHAR
STARTCHAR Ocircumflex
ENCODING 212
SWIDTH 816 0
DWIDTH 29 0
BBX 27 43 2 0
BITMAP
000000000000004BEE8000000000
00000000000005FFFFF600000000
0000000000002EFFFFFE00000000
000000000000BFFFDFFF50000000
000000000006FFFD4FFFB0000000
00000000002EFFF60EFFF1000000
0000000000BFFFC00AFFF7000000
0000000005FFFF4005FFFB000000
0000000008FFFA0001FFFC000000
0000000002CEA100007ED3000000
0000000000000000000000000000
0000000000000000000000000000
000000000027ADEFEC9400000000
000000002AFFFFFFFFFFD4000000
00000008FFFFFFFFFFFFFF900000
000001BFFFFFFFEFFFFFFFF90000
00001BFFFFFC510028EFFFFF7000
0000AFFFFF600000002EFFFFE200
0006FFFFF50000000003FFFFF800
001EFFFF7000000000009FFFFE00
008FFFFC0000000000003FFFFF40
01EFFFF40000000000000EFFFF70
06FFFFD00000000000000BFFFF90
0BFFFF800000000000000AFFFFA0
0EFFFF4000000000000009FFFFB0
3FFFFF1000000000000009FFFFA0
6FFFFD0000000000000009FFFFA0
8FFFFB000000000000000BFFFF80
9FFFFA000000000000000CFFFF60
AFFFF9000000000000000FFFFF40
AFFFF9000000000000003FFFFF10
AFFFFA000000000000007FFFFB00
9FFFFC00000000000000CFFFF600
7FFFFE00000000000004FFFFE100
3FFFFF4000000000000CFFFF9000
0EFFFFA000000000006FFFFE1000
08FFFFF30000000004FFFFF60000
01EFFFFE300000006EFFFFA00000
006FFFFFF820015BFFFFFC100000
0009FFFFFFFFEFFFFFFFB1000000
00009FFFFFFFFFFFFFF800000000
000004DFFFFFFFFFFB3000000000
000000049CEFEDA7200000000000
ENDCHAR
STARTCHAR Otilde
ENCODING 213
SWIDTH 816 0
DWIDTH 29 0
BBX 27 40 2 0
BITMAP
000000000019EE91000003730000
0000000001CFFFFE50005FFE1000
000000000AFFFFFFF912EFFE0000
000000004FFFECFFFFDCFFF70000
00000000BFFF507FFFFFFFD10000
00000000BFF90003CFFFFF300000
000000001750000007DEB3000000
0000000000000000000000000000
0000000000000000000000000000
000000000027ADEFEC9400000000
000000002AFFFFFFFFFFD4000000
00000008FFFFFFFFFFFFFF900000
000001BFFFFFFFEFFFFFFFF90000
00001BFFFFFC510028EFFFFF7000
0000AFFFFF600000002EFFFFE200
0006FFFFF50000000003FFFFF800
001EFFFF7000000000009FFFFE00
008FFFFC0000000000003FFFFF40
01EFFFF40000000000000EFFFF70
06FFFFD00000000000000BFFFF90
0BFFFF800000000000000AFFFFA0
0EFFFF4000000000000009FFFFB0
3FFFFF1000000000000009FFFFA0
6FFFFD0000000000000009FFFFA0
8FFFFB000000000000000BFFFF80
9FFFFA000000000000000CFFFF60
AFFFF9000000000000000FFFFF40
AFFFF9000000000000003FFFFF10
AFFFFA000000000000007FFFFB00
9FFFFC00000000000000CFFFF600
7FFFFE00000000000004FFFFE100
3FFFFF4000000000000CFFFF9000
0EFFFFA000000000006FFFFE1000
08FFFFF30000000004FFFFF60000
01EFFFFE300000006EFFFFA00000
006FFFFFF820015BFFFFFC100000
0009FFFFFFFFEFFFFFFFB1000000
00009FFFFFFFFFFFFFF800000000
000004DFFFFFFFFFFB3000000000
000000049CEFEDA7200000000000
ENDCHAR
STARTCHAR Odieresis
ENCODING 214
SWIDTH 816 0
DWIDTH 29 0
BBX 27 39 2 0
BITMAP
00000000004CEC20019EE7000000
0000000001EFFFB008FFFF400000
0000000005FFFFE00DFFFF700000
0000000006FFFFD00EFFFF600000
0000000003FFFF900BFFFE200000
00000000007EE91002BEC4000000
0000000000000000000000000000
0000000000000000000000000000
000000000027ADEFEC9400000000
000000002AFFFFFFFFFFD4000000
00000008FFFFFFFFFFFFFF900000
000001BFFFFFFFEFFFFFFFF90000
00001BFFFFFC510028EFFFFF7000
0000AFFFFF600000002EFFFFE200
0006FFFFF50000000003FFFFF800
001EFFFF7000000000009FFFFE00
008FFFFC0000000000003FFFFF40
01EFFFF40000000000000EFFFF70
06FFFFD00000000000000BFFFF90
0BFFFF800000000000000AFFFFA0
0EFFFF4000000000000009FFFFB0
3FFFFF1000000000000009FFFFA0
6FFFFD0000000000000009FFFFA0
8FFFFB000000000000000BFFFF80
9FFFFA000000000000000CFFFF60
AFFFF9000000000000000FFFFF40
AFFFF9000000000000003FFFFF10
AFFFFA000000000000007FFFFB00
9FFFFC00000000000000CFFFF600
7FFFFE00000000000004FFFFE100
3FFFFF4000000000000CFFFF9000
0EFFFFA000000000006FFFFE1000
08FFFFF30000000004FFFFF60000
01EFFFFE300000006EFFFFA00000
006FFFFFF820015BFFFFFC100000
0009FFFFFFFFEFFFFFFFB1000000
00009FFFFFFFFFFFFFF800000000
000004DFFFFFFFFFFB3000000000
000000049CEFEDA7200000000000
ENDCHAR
STARTCHAR multiply
ENCODING 215
SWIDTH 700 0
DWIDTH 25 0
BBX 18 17 4 2
BITMAP
001640000000001650
01DFF600000002DFF7
07FFFF5000003EFFFA
06FFFFE30004EFFFF6
00BFFFFE205FFFFF70
001DFFFFD7FFFFF600
0002EFFFFFFFFE4000
00003EFFFFFFE30000
000005FFFFFE200000
00001CFFFFFF500000
0002DFFFFFFFF40000
002DFFFFEFFFFE2000
03EFFFF81CFFFFD100
4EFFFF7001DFFFFC00
DFFFF600003EFFFF30
EFFE40000004FFFE10
5EC3000000005ED400
ENDCHAR
STARTCHAR Oslash
ENCODING 216
SWIDTH 816 0
DWIDTH 29 0
BBX 27 38 2 -4
BITMAP
00000000000000006DE900000000
0000000000000000EFFF10000000
0000000000000004FFFC00000000
000000000027ADEFFFF900000000
000000002AFFFFFFFFFFD5000000
00000008FFFFFFFFFFFFFF900000
000001BFFFFFFFFFFFFFFFFA0000
00001BFFFFFA40AFFFFFFFFF7000
0000AFFFFE4000EFFF3EFFFFF200
0006FFFFE30002FFFC04FFFFF900
001EFFFF600006FFF800AFFFFE00
008FFFFC00000AFFF4004FFFFF40
01EFFFF400000DFFE0001FFFFF70
06FFFFD000002FFFB0000CFFFF90
0BFFFF8000006FFF70000AFFFFA0
0EFFFF3000009FFF300009FFFFB0
3FFFFF000000DFFE000009FFFFA0
6FFFFD000002FFFA000009FFFFA0
8FFFFB000006FFF600000AFFFF80
9FFFFA00000AFFF200000CFFFF60
AFFFF900000DFFE000000EFFFF40
AFFFFA00002FFFA000003FFFFF10
AFFFFB00006FFF6000007FFFFB00
9FFFFC0000AFFF200000CFFFF600
7FFFFF0000EFFE000003FFFFE100
4FFFFF4003FFFA00000BFFFF9000
0EFFFF9007FFF600005FFFFE1000
09FFFFF30BFFF20003EFFFF60000
02FFFFFD2EFFE0004EFFFFA00000
007FFFFFEFFFA039FFFFFC100000
000AFFFFFFFFFFFFFFFFB1000000
0000AFFFFFFFFFFFFFF800000000
000005DFFFFFFFFFFB3000000000
00000009FFFFEDA7200000000000
0000000AFFF40000000000000000
0000000EFFF10000000000000000
0000001FFFC00000000000000000
00000007ED400000000000000000
ENDCHAR
STARTCHAR Ugrave
ENCODING 217
SWIDTH 890 0
DWIDTH 32 0
BBX 37 42 0 0
BITMAP
00000000001660000000000000000000000000
0000000001DFFC200000000000000000000000
0000000005FFFFE30000000000000000000000
0000000003FFFFFE5000000000000000000000
00000000009FFFFFF700000000000000000000
000000000005CFFFFF90000000000000000000
00000000000005DFFFFB000000000000000000
0000000000000006DFFF500000000000000000
000000000000000006DD200000000000000000
00000000000000000000000000000000000000
00000000000000000000000000000000000000
0000017BEFEA20000000000003CEC200000000
00007EFFFFFFE200000000000BFFFB00000000
001BFFFFFFFFFB00000000000EFFFE00000000
01CFFFFFFFFFFF10000000002FFFFF00000000
0BFFFD403FFFFF30000000004FFFFE00000000
6FFFA1000DFFFF40000000006FFFFD00000000
DFFA00000DFFFF30000000009FFFFB00000000
FFC000000FFFFF2000000000BFFFF800000000
6B2000002FFFFF0000000000EFFFF600000000
000000005FFFFD0000000002FFFFF400000000
000000008FFFFA0000000005FFFFF100000000
00000000BFFFF60000000009FFFFE000000000
00000000EFFFF3000000000DFFFFB000000000
00000003FFFFE0000000002FFFFF9000000000
00000006FFFFB0000000006FFFFF6000000000
00000009FFFF8000000000BFFFFF4000000000
0000000CFFFF4000000002FFFFFF2000000000
0000001FFFFF1000000008FFFFFF0000000000
0000003FFFFD000000000DFFFFFD0000000000
0000007FFFF9000000006FFFFFFB0000000000
000000AFFFF600000000DFCFFFF90000000000
000000CFFFF300000007FF8FFFF70000000000
000000FFFFF10000003FFC8FFFF50000001930
000001FFFFF1000001DFF59FFFF4000000BF90
000002FFFFF300002DFFC0AFFFF5000007FF90
000002FFFFFC3128EFFF40AFFFF800005FFF60
000000EFFFFFFFFFFFF9009FFFFE4018FFFD10
000000AFFFFFFFFFFFC0005FFFFFFFFFFFE200
0000003FFFFFFFFFFC10000CFFFFFFFFFE3000
00000006FFFFFFFF91000002DFFFFFFFB20000
0000000039DFEC830000000017CEFEA5000000
ENDCHAR
STARTCHAR Uacute
ENCODING 218
SWIDTH 890 0
DWIDTH 32 0
BBX 37 42 0 0
BITMAP
00000000000000000000000003740000000000
0000000000000000000000007FFF6000000000
000000000000000000000009FFFFC000000000
0000000000000000000001BFFFFFB000000000
000000000000000000002DFFFFFE2000000000
00000000000000000003EFFFFF910000000000
0000000000000000004FFFFF92000000000000
000000000000000000CFFFA200000000000000
0000000000000000008EA30000000000000000
00000000000000000000000000000000000000
00000000000000000000000000000000000000
0000017BEFEA20000000000003CEC200000000
00007EFFFFFFE200000000000BFFFB00000000
001BFFFFFFFFFB00000000000EFFFE00000000
01CFFFFFFFFFFF10000000002FFFFF00000000
0BFFFD403FFFFF30000000004FFFFE00000000
6FFFA1000DFFFF40000000006FFFFD00000000
DFFA00000DFFFF30000000009FFFFB00000000
FFC000000FFFFF2000000000BFFFF800000000
6B2000002FFFFF0000000000EFFFF600000000
000000005FFFFD0000000002FFFFF400000000
000000008FFFFA0000000005FFFFF100000000
00000000BFFFF60000000009FFFFE000000000
00000000EFFFF3000000000DFFFFB000000000
00000003FFFFE0000000002FFFFF9000000000
00000006FFFFB0000000006FFFFF6000000000
00000009FFFF8000000000BFFFFF4000000000
0000000CFFFF4000000002FFFFFF2000000000
0000001FFFFF1000000008FFFFFF0000000000
0000003FFFFD000000000DFFFFFD0000000000
0000007FFFF9000000006FFFFFFB0000000000
000000AFFFF600000000DFCFFFF90000000000
000000CFFFF300000007FF8FFFF70000000000
000000FFFFF10000003FFC8FFFF50000001930
000001FFFFF1000001DFF59FFFF4000000BF90
000002FFFFF300002DFFC0AFFFF5000007FF90
000002FFFFFC3128EFFF40AFFFF800005FFF60
000000EFFFFFFFFFFFF9009FFFFE4018FFFD10
000000AFFFFFFFFFFFC0005FFFFFFFFFFFE200
0000003FFFFFFFFFFC10000CFFFFFFFFFE3000
00000006FFFFFFFF91000002DFFFFFFFB20000
0000000039DFEC830000000017CEFEA5000000
ENDCHAR
STARTCHAR Ucircumflex
ENCODING 219
SWIDTH 890 0
DWIDTH 32 0
BBX 37 43 0 0
BITMAP
0000000000000000005CED6000000000000000
000000000000000008FFFFF400000000000000
00000000000000004FFFFFFB00000000000000
0000000000000001DFFFDFFF20000000000000
0000000000000009FFFB6FFF80000000000000
000000000000004FFFF31FFFD0000000000000
00000000000001DFFFA00CFFF4000000000000
00000000000007FFFE2008FFF9000000000000
0000000000000BFFF70004FFF9000000000000
00000000000004DE8000009EC2000000000000
00000000000000000000000000000000000000
00000000000000000000000000000000000000
0000017BEFEA20000000000003CEC200000000
00007EFFFFFFE200000000000BFFFB00000000
001BFFFFFFFFFB00000000000EFFFE00000000
01CFFFFFFFFFFF10000000002FFFFF00000000
0BFFFD403FFFFF30000000004FFFFE00000000
6FFFA1000DFFFF40000000006FFFFD00000000
DFFA00000DFFFF30000000009FFFFB00000000
FFC000000FFFFF2000000000BFFFF800000000
6B2000002FFFFF0000000000EFFFF600000000
000000005FFFFD0000000002FFFFF400000000
000000008FFFFA0000000005FFFFF100000000
00000000BFFFF60000000009FFFFE000000000
00000000EFFFF3000000000DFFFFB000000000
00000003FFFFE0000000002FFFFF9000000000
00000006FFFFB0000000006FFFFF6000000000
00000009FFFF8000000000BFFFFF4000000000
0000000CFFFF4000000002FFFFFF2000000000
0000001FFFFF1000000008FFFFFF0000000000
0000003FFFFD000000000DFFFFFD0000000000
0000007FFFF9000000006FFFFFFB0000000000
000000AFFFF600000000DFCFFFF90000000000
000000CFFFF300000007FF8FFFF70000000000
000000FFFFF10000003FFC8FFFF50000001930
000001FFFFF1000001DFF59FFFF4000000BF90
000002FFFFF300002DFFC0AFFFF5000007FF90
000002FFFFFC3128EFFF40AFFFF800005FFF60
000000EFFFFFFFFFFFF9009FFFFE4018FFFD10
000000AFFFFFFFFFFFC0005FFFFFFFFFFFE200
0000003FFFFFFFFFFC10000CFFFFFFFFFE3000
00000006FFFFFFFF91000002DFFFFFFFB20000
0000000039DFEC830000000017CEFEA5000000
ENDCHAR
STARTCHAR Udieresis
ENCODING 220
SWIDTH 890 0
DWIDTH 32 0
BBX 37 39 0 0
BITMAP
000000000000005DEA1001AED5000000000000
00000000000003FFFF900AFFFF100000000000
00000000000008FFFFC00FFFFF400000000000
00000000000008FFFFB01FFFFF300000000000
00000000000005FFFF600DFFFD000000000000
000000000000009ED80003CEB3000000000000
00000000000000000000000000000000000000
00000000000000000000000000000000000000
0000017BEFEA20000000000003CEC200000000
00007EFFFFFFE200000000000BFFFB00000000
001BFFFFFFFFFB00000000000EFFFE00000000
01CFFFFFFFFFFF10000000002FFFFF00000000
0BFFFD403FFFFF30000000004FFFFE00000000
6FFFA1000DFFFF40000000006FFFFD00000000
DFFA00000DFFFF30000000009FFFFB00000000
FFC000000FFFFF2000000000BFFFF800000000
6B2000002FFFFF0000000000EFFFF600000000
000000005FFFFD0000000002FFFFF400000000
000000008FFFFA0000000005FFFFF100000000
00000000BFFFF60000000009FFFFE000000000
00000000EFFFF3000000000DFFFFB000000000
00000003FFFFE0000000002FFFFF9000000000
00000006FFFFB0000000006FFFFF6000000000
00000009FFFF8000000000BFFFFF4000000000
0000000CFFFF4000000002FFFFFF2000000000
0000001FFFFF1000000008FFFFFF0000000000
0000003FFFFD000000000DFFFFFD0000000000
0000007FFFF9000000006FFFFFFB0000000000
000000AFFFF600000000DFCFFFF90000000000
000000CFFFF300000007FF8FFFF70000000000
000000FFFFF10000003FFC8FFFF50000001930
000001FFFFF1000001DFF59FFFF4000000BF90
000002FFFFF300002DFFC0AFFFF5000007FF90
000002FFFFFC3128EFFF40AFFFF800005FFF60
000000EFFFFFFFFFFFF9009FFFFE4018FFFD10
000000AFFFFFFFFFFFC0005FFFFFFFFFFFE200
0000003FFFFFFFFFFC10000CFFFFFFFFFE3000
00000006FFFFFFFF91000002DFFFFFFFB20000
0000000039DFEC830000000017CEFEA5000000
ENDCHAR
STARTCHAR Yacute
ENCODING 221
SWIDTH 851 0
DWIDTH 31 0
BBX 35 53 0 -11
BITMAP
000000000000000000000000016610000000
0000000000000000000000002DFFD1000000
000000000000000000000004EFFFF4000000
00000000000000000000005FFFFFF3000000
0000000000000000000008FFFFFF80000000
00000000000000000000AFFFFFC400000000
0000000000000000000BFFFFD50000000000
0000000000000000005FFFD5000000000000
0000000000000000002DD600000000000000
000000000000000000000000000000000000
000000000000000000000000000000000000
0000017BEFEA20000000000002BED5000000
00007EFFFFFFE300000000000AFFFE000000
001BFFFFFFFFFB00000000000EFFFF200000
01CFFFFEFFFFFF10000000002FFFFF100000
0BFFFC403FFFFF30000000004FFFFE000000
6FFFA0000DFFFF30000000006FFFFC000000
DFFA00000EFFFF30000000009FFFFA000000
EFC000000FFFFF2000000000CFFFF7000000
6A1000003FFFFF0000000000EFFFF5000000
000000006FFFFC0000000003FFFFF3000000
000000009FFFF90000000007FFFFF1000000
00000000CFFFF6000000000BFFFFE0000000
00000001FFFFF3000000002FFFFFB0000000
00000004FFFFF0000000007FFFFF90000000
00000007FFFFB000000000DFFFFF70000000
0000000AFFFF8000000004FFFFFF50000000
0000000DFFFF500000000CFFFFFF20000000
0000000FFFFF200000005FFEFFFF00000000
0000001FFFFF10000001EFDCFFFD00000000
0000002FFFFF1000000BFF7EFFFB00000000
0000001FFFFF500001BFFD1FFFF800000000
0000000CFFFFD4115DFFF33FFFF600000000
00000007FFFFFFFFFFFF605FFFF4147ADE40
00000001DFFFFFFFFFF6008FFFFDFFFFFF80
000000002DFFFFFFFC3000AFFFFFFFFFFF60
00000000017BDDC940028DFFFFFFFFFFE900
000000000000000004BFFFFFFFFEB8520000
0000000000000004CFFFFFFFFF9000000000
00000000000002BFFFFFDAFFFF5000000000
0000000000004EFFFFB406FFFF3000000000
000000000006FFFFC40008FFFF0000000000
00000000005FFFF900000CFFFC0000000000
0000000001EFFF7000001FFFF70000000000
0000000009FFFB0000006FFFF30000000000
000000000EFFF4000000CFFFC00000000000
000000003FFFF2000005FFFF500000000000
000000004FFFF300002EFFFD000000000000
000000004FFFFC2016EFFFF3000000000000
000000001FFFFFFEFFFFFF70000000000000
0000000008FFFFFFFFFFF700000000000000
0000000000AFFFFFFFFD4000000000000000
000000000004ADFEDA500000000000000000
ENDCHAR
STARTCHAR Thorn
ENCODING 222
SWIDTH 776 0
DWIDTH 28 0
BBX 28 38 1 -4
BITMAP
00000000000019EEB10000000000
0000000000007FFFF50000000000
000000000000BFFFF50000000000
000000000000DFFFF30000000000
000000000000FFFFF10000000000
000000000002FFFFD00000000000
000000000004FFFFB00000000000
000000000007FFFFFDCA72000000
00000000028EFFFFFFFFFFB20000
000000019FFFFFFFFFFFFFFF6000
0000003DFFFFFFFFFFFFFFFFF500
000004EFFFFFFFFF125CFFFFFE10
00003EFFFD7FFFFD00009FFFFF80
0001DFFFB15FFFFB00000DFFFFD0
0008FFFC007FFFF9000008FFFFF0
002FFFF2009FFFF7000005FFFFF1
009FFF8000CFFFF5000005FFFFF1
01EFFF1000EFFFF2000007FFFFE0
05FFFB0001FFFFF000000BFFFFA0
09FFF60003FFFFD000003FFFFF50
0DFFF20006FFFFA00001CFFFFD00
1FFFE00008FFFF80003CFFFFF400
3FFFC0035BFFFF636BFFFFFF7000
5FFFA04FFFFFFFFFFFFFFFF70000
6FFF907FFFFFFFFFFFFFFD400000
7FFF805FFFFFFFFFFFFC60000000
7FFF8004AFFFFEBA862000000000
6FFF80008FFFF800000000000000
5FFF9000AFFFF500000000000000
4FFFA000DFFFF200000000000000
1FFFD001FFFFE000000000000000
0CFFF003FFFFB000000000000000
08FFF407FFFF8000000000000000
02FFFB1DFFFF5000000000000000
009FFFFFFFFF1000000000000000
001DFFFFFFF90000000000000000
0002DFFFFFD10000000000000000
000017CED9100000000000000000
ENDCHAR
STARTCHAR germandbls
ENCODING 223
SWIDTH 596 0
DWIDTH 21 0
BBX 25 37 1 -8
BITMAP
0000000006ADFED93000000000
00000005EFFFFFFFF800000000
0000008FFFFFFFFFFF70000000
000008FFFFFFEFFFFFF1000000
00005FFFFE6102AFFFF6000000
0001EFFFD200000DFFF8000000
0008FFFF3000000BFFF8000000
000EFFF90000000DFFF7000000
005FFFF20000006FFFF2000000
00AFFFC0000007FFFFA0000000
00EFFF700001AFFFFC10000000
02FFFF40003DFFFFB100000000
06FFFF1003EFFFF80000000000
08FFFD000DFFFF500000000000
0AFFFB004FFFF8000000000000
0CFFF9007FFFF6000000000000
0EFFF8006FFFFD100000000000
0FFFF7002FFFFFD40000000000
1FFFF60008FFFFFF9764200000
1FFFF60002EFFFFFFFFFFEA500
2FFFF5006EFFFFFFFFFFFFFFA0
3FFFF507FFFFDBFFFFFEFFFFE0
3FFFF52FFFF7008FFFFA15AFB0
4FFFF48FFFA0000DFFFB000000
4FFFF49FFF80000CFFFA000000
4FFFF47FFFE5017FFFF6000000
5FFFF32EFFFFFFFFFFC0000000
5FFFF304EFFFFFFFFB10000000
6FFFF30018CEFEDA4000000000
6FFFF300000000000000000000
6FFFF300000000000000000000
6FFFF300000000000000000000
7FFFF300000000000000000000
7FFFF300000000000000000000
7FFFF300000000000000000000
5FFFE100000000000000000000
04761000000000000000000000
ENDCHAR
STARTCHAR agrave
ENCODING 224
SWIDTH 470 0
DWIDTH 17 0
BBX 21 30 1 0
BITMAP
00006ED400000000000000
0003FFFE10000000000000
0005FFFF60000000000000
0002FFFFD0000000000000
00007FFFF4000000000000
00000BFFFB000000000000
000001DFFF300000000000
0000003FFF900000000000
00000006FFF10000000000
00000000AFF50000000000
000000001BD20000000000
0000000000000000000000
0000000000000000000000
00000039DFC10000000000
00001AFFFFF87710000000
0002DFFFFFFFFFA0000000
001DFFFFFFFFFF90000000
00AFFFFE51CFFF70000000
04FFFFD200FFFF40000000
0CFFFF3003FFFF20000000
2FFFF90007FFFE00000000
6FFFF3000AFFFB00000000
9FFFE0000DFFF900005D40
BFFFC0003FFFF70005FF80
BFFFC0009FFFF5004FFF70
9FFFF406FFFFF807FFFE10
6FFFFFFFFFFFFFFFFFF400
1EFFFFFFF5CFFFFFFE4000
04FFFFFF803FFFFFD30000
003BEEB50003CED8100000
ENDCHAR
STARTCHAR aacute
ENCODING 225
SWIDTH 470 0
DWIDTH 17 0
BBX 21 30 1 0
BITMAP
0000000000001BEA100000
0000000000009FFF800000
000000000001EFFFA00000
000000000007FFFF600000
00000000000EFFFC000000
00000000005FFFE2000000
0000000000CFFF50000000
0000000004FFF800000000
000000000AFFB000000000
000000001FFD1000000000
000000000BD30000000000
0000000000000000000000
0000000000000000000000
00000039DFC10000000000
00001AFFFFF87710000000
0002DFFFFFFFFFA0000000
001DFFFFFFFFFF90000000
00AFFFFE51CFFF70000000
04FFFFD200FFFF40000000
0CFFFF3003FFFF20000000
2FFFF90007FFFE00000000
6FFFF3000AFFFB00000000
9FFFE0000DFFF900005D40
BFFFC0003FFFF70005FF80
BFFFC0009FFFF5004FFF70
9FFFF406FFFFF807FFFE10
6FFFFFFFFFFFFFFFFFF400
1EFFFFFFF5CFFFFFFE4000
04FFFFFF803FFFFFD30000
003BEEB50003CED8100000
ENDCHAR
STARTCHAR acircumflex
ENCODING 226
SWIDTH 470 0
DWIDTH 17 0
BBX 21 31 1 0
BITMAP
0000000002BED400000000
000000002EFFFE10000000
00000000BFFFFF50000000
00000004FFFEFF90000000
0000000DFFD9FFD0000000
0000006FFF67FFF2000000
000001EFFD05FFF5000000
000009FFF603FFF9000000
00002FFFE001FFFD000000
0000AFFF7000EFFF100000
0000EFFD1000BFFF100000
00009FC300004DE7000000
0000000000000000000000
0000000000000000000000
00000039DFC10000000000
00001AFFFFF87710000000
0002DFFFFFFFFFA0000000
001DFFFFFFFFFF90000000
00AFFFFE51CFFF70000000
04FFFFD200FFFF40000000
0CFFFF3003FFFF20000000
2FFFF90007FFFE00000000
6FFFF3000AFFFB00000000
9FFFE0000DFFF900005D40
BFFFC0003FFFF70005FF80
BFFFC0009FFFF5004FFF70
9FFFF406FFFFF807FFFE10
6FFFFFFFFFFFFFFFFFF400
1EFFFFFFF5CFFFFFFE4000
04FFFFFF803FFFFFD30000
003BEEB50003CED8100000
ENDCHAR
STARTCHAR atilde
ENCODING 227
SWIDTH 470 0
DWIDTH 17 0
BBX 21 26 1 0
BITMAP
000004CEC4000001650000
00004FFFFF91000CFF5000
0001EFFFFFFD408FFF5000
0009FFFAEFFFFAFFFC0000
001FFFC02BFFFFFFF30000
002FFE20007FFFFF700000
000472000002BED6000000
0000000000000000000000
0000000000000000000000
00000039DFC10000000000
00001AFFFFF87710000000
0002DFFFFFFFFFA0000000
001DFFFFFFFFFF90000000
00AFFFFE51CFFF70000000
04FFFFD200FFFF40000000
0CFFFF3003FFFF20000000
2FFFF90007FFFE00000000
6FFFF3000AFFFB00000000
9FFFE0000DFFF900005D40
BFFFC0003FFFF70005FF80
BFFFC0009FFFF5004FFF70
9FFFF406FFFFF807FFFE10
6FFFFFFFFFFFFFFFFFF400
1EFFFFFFF5CFFFFFFE4000
04FFFFFF803FFFFFD30000
003BEEB50003CED8100000
ENDCHAR
STARTCHAR adieresis
ENCODING 228
SWIDTH 470 0
DWIDTH 17 0
BBX 21 25 1 0
BITMAP
000008EE70003CEB200000
00007FFFF301EFFFA00000
0000CFFFF504FFFFD00000
0000DFFFF405FFFFC00000
0000AFFFE103FFFF700000
00002BEC30007EE9000000
0000000000000000000000
0000000000000000000000
00000039DFC10000000000
00001AFFFFF87710000000
0002DFFFFFFFFFA0000000
001DFFFFFFFFFF90000000
00AFFFFE51CFFF70000000
04FFFFD200FFFF40000000
0CFFFF3003FFFF20000000
2FFFF90007FFFE00000000
6FFFF3000AFFFB00000000
9FFFE0000DFFF900005D40
BFFFC0003FFFF70005FF80
BFFFC0009FFFF5004FFF70
9FFFF406FFFFF807FFFE10
6FFFFFFFFFFFFFFFFFF400
1EFFFFFFF5CFFFFFFE4000
04FFFFFF803FFFFFD30000
003BEEB50003CED8100000
ENDCHAR
STARTCHAR aring
ENCODING 229
SWIDTH 470 0
DWIDTH 17 0
BBX 21 29 1 0
BITMAP
000000005BEEB400000000
00000009FFFFFF60000000
0000006FFFFFFFF2000000
000000CFFB14EFF7000000
000000FFF300AFF9000000
000001FFF200BFF8000000
000000EFFA15FFF5000000
0000009FFFFFFFD0000000
0000001DFFFFFE30000000
000000018DFD9100000000
0000000000000000000000
0000000000000000000000
00000039DFC10000000000
00001AFFFFF87710000000
0002DFFFFFFFFFA0000000
001DFFFFFFFFFF90000000
00AFFFFE51CFFF70000000
04FFFFD200FFFF40000000
0CFFFF3003FFFF20000000
2FFFF90007FFFE00000000
6FFFF3000AFFFB00000000
9FFFE0000DFFF900005D40
BFFFC0003FFFF70005FF80
BFFFC0009FFFF5004FFF70
9FFFF406FFFFF807FFFE10
6FFFFFFFFFFFFFFFFFF400
1EFFFFFFF5CFFFFFFE4000
04FFFFFF803FFFFFD30000
003BEEB50003CED8100000
ENDCHAR
STARTCHAR ae
ENCODING 230
SWIDTH 653 0
DWIDTH 24 0
BBX 28 17 1 0
BITMAP
00000027BDEE3039DFEA30000000
000019FFFFFFA9FFFFFFF4000000
0003DFFFFFFFFFFFFFFFFD000000
002EFFFFFFFFFFFFFFFFFF300000
00CFFFFD622FFFF911CFFF400000
07FFFFA100AFFFC0009FFF300000
0DFFFC0001EFFF5000DFFE000000
4FFFF50004FFFF101AFFF7000000
7FFFE00008FFFE38EFFFB0000110
9FFFC0000CFFFFFFFFF800003DE0
AFFFC0001FFFFFFFE9200003EFF2
AFFFE0007FFFFFC40000018FFFF0
8FFFF604EFFFFFF710027EFFFF80
4FFFFFFFFFCFFFFFFEFFFFFFF900
0CFFFFFFFE28FFFFFFFFFFFF7000
02EFFFFFE4007FFFFFFFFFB30000
0029DFD92000027CEFEC83000000
ENDCHAR
STARTCHAR ccedilla
ENCODING 231
SWIDTH 368 0
DWIDTH 13 0
BBX 17 27 1 -10
BITMAP
000006BEFC50000000
0003DFFFFFF6000000
003EFFFFFFFE000000
01DFFFFFFFFF300000
08FFFF906FFF400000
1EFFFB005FFF300000
5FFFF4008FFE000000
9FFFE0007FF6000000
BFFFC0000430000000
CFFFB0000000000740
CFFFC0000000009FC0
BFFFE000000009FFC0
8FFFF6000001BFFF90
3FFFFE61028EFFFE20
0BFFFFFFFFFFFFE300
02EFFFFFFFFFFC2000
002CFFFFFFFE600000
000CFFFFFF70000000
0008EFFFFFD0000000
0000013BFFF4000000
00000002FFF6000000
00000003FFF6000000
0000014DFFF3000000
07FFFFFFFFC0000000
0DFFFFFFFF40000000
0CFFFFFFE500000000
03ADEDB61000000000
ENDCHAR
STARTCHAR egrave
ENCODING 232
SWIDTH 393 0
DWIDTH 14 0
BBX 18 30 1 0
BITMAP
002BE9000000000000
00BFFF600000000000
00DFFFD00000000000
009FFFF50000000000
001EFFFC0000000000
0004FFFF3000000000
00007FFFA000000000
00000AFFF200000000
000001DFF800000000
0000003FFD00000000
00000005E800000000
000000000000000000
000000000000000000
000017CEFD81000000
0003EFFFFFFC100000
004EFFFFFFFF800000
01EFFFFEFFFFC00000
0AFFFE503FFFE00000
2FFFF6000EFFD00000
7FFFE1004FFF900000
AFFFB004EFFF200000
CFFFA6BFFFF5000020
CFFFFFFFFD400007F9
BFFFFFFC6000008FFB
8FFFF92000003CFFF9
4FFFFD50004AFFFFF3
0CFFFFFFEFFFFFFF50
02EFFFFFFFFFFFD300
003DFFFFFFFFE81000
00005ADEFEB7100000
ENDCHAR
STARTCHAR eacute
ENCODING 233
SWIDTH 393 0
DWIDTH 14 0
BBX 18 30 1 0
BITMAP
000000000006ED5000
00000000002FFFE100
00000000008FFFF300
0000000001EFFFD000
0000000007FFFF5000
000000000DFFF80000
000000005FFFB00000
00000000BFFE200000
00000003FFF4000000
00000008FF70000000
00000004E900000000
000000000000000000
000000000000000000
000017CEFD81000000
0003EFFFFFFC100000
004EFFFFFFFF800000
01EFFFFEFFFFC00000
0AFFFE503FFFE00000
2FFFF6000EFFD00000
7FFFE1004FFF900000
AFFFB004EFFF200000
CFFFA6BFFFF5000020
CFFFFFFFFD400007F9
BFFFFFFC6000008FFB
8FFFF92000003CFFF9
4FFFFD50004AFFFFF3
0CFFFFFFEFFFFFFF50
02EFFFFFFFFFFFD300
003DFFFFFFFFE81000
00005ADEFEB7100000
ENDCHAR
STARTCHAR ecircumflex
ENCODING 234
SWIDTH 393 0
DWIDTH 14 0
BBX 18 31 1 0
BITMAP
000000007DEA000000
00000008FFFF700000
0000003FFFFFD00000
000000CFFEFFF20000
000006FFF7FFF50000
00001DFFD0EFF90000
00008FFF60DFFD0000
0002EFFD00BFFF1000
000AFFF6009FFF5000
003FFFD0007FFF8000
007FFF60004FFF8000
003DE800000AEC2000
000000000000000000
000000000000000000
000017CEFD81000000
0003EFFFFFFC100000
004EFFFFFFFF800000
01EFFFFEFFFFC00000
0AFFFE503FFFE00000
2FFFF6000EFFD00000
7FFFE1004FFF900000
AFFFB004EFFF200000
CFFFA6BFFFF5000020
CFFFFFFFFD400007F9
BFFFFFFC6000008FFB
8FFFF92000003CFFF9
4FFFFD50004AFFFFF3
0CFFFFFFEFFFFFFF50
02EFFFFFFFFFFFD300
003DFFFFFFFFE81000
00005ADEFEB7100000
ENDCHAR
STARTCHAR edieresis
ENCODING 235
SWIDTH 393 0
DWIDTH 14 0
BBX 18 25 1 0
BITMAP
0003CEB20009EE7000
001EFFFA007FFFF200
004FFFFD00CFFFF500
005FFFFC00DFFFF400
003FFFF700AFFFE100
0007EE90002CEC3000
000000000000000000
000000000000000000
000017CEFD81000000
0003EFFFFFFC100000
004EFFFFFFFF800000
01EFFFFEFFFFC00000
0AFFFE503FFFE00000
2FFFF6000EFFD00000
7FFFE1004FFF900000
AFFFB004EFFF200000
CFFFA6BFFFF5000020
CFFFFFFFFD400007F9
BFFFFFFC6000008FFB
8FFFF92000003CFFF9
4FFFFD50004AFFFFF3
0CFFFFFFEFFFFFFF50
02EFFFFFFFFFFFD300
003DFFFFFFFFE81000
00005ADEFEB7100000
ENDCHAR
STARTCHAR igrave
ENCODING 236
SWIDTH 246 0
DWIDTH 9 0
BBX 15 30 -1 0
BITMAP
07ED300000000000
4FFFD00000000000
6FFFF50000000000
2FFFFB0000000000
08FFFF3000000000
00CFFFA000000000
002EFFF200000000
0004FFF800000000
00007FFE10000000
00000BFF40000000
000001CD10000000
0000000000000000
0000000000000000
00002CFE40000000
00009FFF80000000
0000EFFF70000000
0003FFFF40000000
0007FFFF10000000
000AFFFD00000000
000DFFFA00000000
000FFFF700000000
002FFFF500000200
003FFFF200009F50
004FFFF10007FF70
004FFFF1006FFF50
003FFFF608FFFD00
001FFFFFFFFFE200
000AFFFFFFFE3000
0002EFFFFFC20000
00003BEFC6000000
ENDCHAR
STARTCHAR iacute
ENCODING 237
SWIDTH 246 0
DWIDTH 9 0
BBX 13 30 1 0
BITMAP
00000002CEA000
0000000AFFF700
0000002FFFF900
0000008FFFF500
000001EFFFB000
000007FFFD1000
00000DFFF40000
00005FFF700000
0000CFFA000000
0001FFD1000000
0000CD20000000
00000000000000
00000000000000
002CFE40000000
009FFF80000000
00EFFF70000000
03FFFF40000000
07FFFF10000000
0AFFFD00000000
0DFFFA00000000
0FFFF700000000
2FFFF500000200
3FFFF200009F50
4FFFF10007FF70
4FFFF1006FFF50
3FFFF608FFFD00
1FFFFFFFFFE200
0AFFFFFFFE3000
02EFFFFFC20000
003BEFC6000000
ENDCHAR
STARTCHAR icircumflex
ENCODING 238
SWIDTH 246 0
DWIDTH 9 0
BBX 15 31 -1 0
BITMAP
0000003BED400000
000002EFFFD00000
00000CFFFFF40000
00005FFFEFF80000
0001DFFCAFFC0000
0008FFF58FFF1000
002EFFC06FFF4000
00AFFF504FFF8000
03FFFD002FFFB000
0BFFF5000FFFF000
1FFFC0000CFFE000
0AFC200005EE6000
0000000000000000
0000000000000000
00002CFE40000000
00009FFF80000000
0000EFFF70000000
0003FFFF40000000
0007FFFF10000000
000AFFFD00000000
000DFFFA00000000
000FFFF700000000
002FFFF500000200
003FFFF200009F50
004FFFF10007FF70
004FFFF1006FFF50
003FFFF608FFFD00
001FFFFFFFFFE200
000AFFFFFFFE3000
0002EFFFFFC20000
00003BEFC6000000
ENDCHAR
STARTCHAR idieresis
ENCODING 239
SWIDTH 246 0
DWIDTH 9 0
BBX 14 25 0 0
BITMAP
19ED60004CEB10
8FFFF201EFFF90
DFFFF406FFFFC0
EFFFF306FFFFB0
BFFFD004FFFF60
2CEC30008EE800
00000000000000
00000000000000
0002CFE4000000
0009FFF8000000
000EFFF7000000
003FFFF4000000
007FFFF1000000
00AFFFD0000000
00DFFFA0000000
00FFFF70000000
02FFFF50000020
03FFFF200009F5
04FFFF10007FF7
04FFFF1006FFF5
03FFFF608FFFD0
01FFFFFFFFFE20
00AFFFFFFFE300
002EFFFFFC2000
0003BEFC600000
ENDCHAR
STARTCHAR eth
ENCODING 240
SWIDTH 451 0
DWIDTH 16 0
BBX 18 34 1 0
BITMAP
00004CEB2000000000
0000CFFFD100000010
00004FFFFB00004DF4
000006FFFF8019FFF9
0000009FFFF6CFFFF5
0000001DFFFFFFFF90
00000005FFFFFFF700
0000005CFFFFFC3000
00003CFFFFFFF50000
0004FFFFFFFFFA0000
0003FFFF98FFFF1000
00008EA202FFFF5000
0000000000DFFF9000
0000000000AFFFC000
00000000008FFFE000
00000000006FFFF200
00000000004FFFF300
000018CEEC8FFFF400
0005EFFFFFFFFFF500
005FFFFFFFFFFFF500
02EFFFFFEFFFFFF400
0BFFFF7104DFFFF300
2FFFF800004FFFF200
7FFFF100005FFFF100
AFFFC000007FFFD000
CFFFB00000AFFFA000
CFFFB00000DFFF7000
BFFFD00003FFFF2000
9FFFF3000BFFFC0000
4FFFFC208FFFF50000
0DFFFFFFFFFFC00000
04FFFFFFFFFE200000
005FFFFFFFD3000000
00029DFEC710000000
ENDCHAR
STARTCHAR ntilde
ENCODING 241
SWIDTH 496 0
DWIDTH 18 0
BBX 22 26 1 0
BITMAP
000002BED6000000561000
00002EFFFFB2000AFF8000
0000CFFFFFFE605FFF8000
0006FFFBDFFFFBEFFE1000
000DFFE119FFFFFFF60000
000EFF40005EFFFFA00000
0002730000019EE8000000
0000000000000000000000
0000000000000000000000
0019EF600028DEA1000000
009FFF7005EFFFF7000000
01FFFF405FFFFFF9000000
04FFFF13EFFFFFF8000000
08FFFC0DFFFFFFF5000000
0BFFF87FFEBFFFF3000000
0DFFF6EFF35FFFF0000000
0FFFFAFF807FFFC0000000
2FFFFEFE109FFF90000020
2FFFFFF700CFFF600009F5
3FFFFFF100FFFF30008FF7
3FFFFFA002FFFF2006FFF5
2FFFFF5004FFFF518FFFD0
1FFFFF1003FFFFFFFFFD20
0EFFFB0001FFFFFFFFD200
0AFFF600009FFFFFFB1000
02CEA0000008EFEB500000
ENDCHAR
STARTCHAR ograve
ENCODING 242
SWIDTH 451 0
DWIDTH 16 0
BBX 20 30 1 0
BITMAP
003CE800000000000000
00DFFF40000000000000
00FFFFB0000000000000
00BFFFF3000000000000
003EFFF9000000000000
0006FFFF100000000000
00009FFF800000000000
00000CFFE10000000000
000002EFF60000000000
0000005FFB0000000000
00000007E60000000000
00000000000000000000
00000000000000000000
000017CEFD9200000000
0004EFFFFFFE50000000
005FFFFFFFFFF3000000
02EFFFFFFFFFFC000000
0BFFFF70DFFFFF300000
2FFFF800DFFFFF701465
7FFFF100AFFFFFFFFFFE
AFFFC0003FFFFFFFFFFF
CFFFB00007FFFFFFFFFC
CFFFB00000BFFFFEC961
BFFFD00000EFFF200000
8FFFF30006FFFC000000
4FFFFC205EFFF6000000
0CFFFFFFFFFFC0000000
03FFFFFFFFFE20000000
004EFFFFFFD300000000
00028DFEC71000000000
ENDCHAR
STARTCHAR oacute
ENCODING 243
SWIDTH 451 0
DWIDTH 16 0
BBX 20 30 1 0
BITMAP
000000000007EC300000
00000000004FFFD00000
0000000000AFFFF10000
0000000002FFFFC00000
0000000009FFFF300000
000000001EFFF6000000
000000007FFFA0000000
00000000DFFC10000000
00000005FFE200000000
0000000AFF5000000000
00000006E70000000000
00000000000000000000
00000000000000000000
000017CEFD9200000000
0004EFFFFFFE50000000
005FFFFFFFFFF3000000
02EFFFFFFFFFFC000000
0BFFFF70DFFFFF300000
2FFFF800DFFFFF701465
7FFFF100AFFFFFFFFFFE
AFFFC0003FFFFFFFFFFF
CFFFB00007FFFFFFFFFC
CFFFB00000BFFFFEC961
BFFFD00000EFFF200000
8FFFF30006FFFC000000
4FFFFC205EFFF6000000
0CFFFFFFFFFFC0000000
03FFFFFFFFFE20000000
004EFFFFFFD300000000
00028DFEC71000000000
ENDCHAR
STARTCHAR ocircumflex
ENCODING 244
SWIDTH 451 0
DWIDTH 16 0
BBX 20 31 1 0
BITMAP
000000008EE800000000
0000000AFFFF50000000
0000005FFFFFB0000000
000001DFFEFFE0000000
000008FFF7FFF3000000
00002EFFB2FFF7000000
0000AFFF40FFFA000000
0003FFFB00DFFE000000
000CFFF400BFFF300000
005FFFC0009FFF600000
009FFF40006FFF600000
004EE700001CEB100000
00000000000000000000
00000000000000000000
000017CEFD9200000000
0004EFFFFFFE50000000
005FFFFFFFFFF3000000
02EFFFFFFFFFFC000000
0BFFFF70DFFFFF300000
2FFFF800DFFFFF701465
7FFFF100AFFFFFFFFFFE
AFFFC0003FFFFFFFFFFF
CFFFB00007FFFFFFFFFC
CFFFB00000BFFFFEC961
BFFFD00000EFFF200000
8FFFF30006FFFC000000
4FFFFC205EFFF6000000
0CFFFFFFFFFFC0000000
03FFFFFFFFFE20000000
004EFFFFFFD300000000
00028DFEC71000000000
ENDCHAR
STARTCHAR otilde
ENCODING 245
SWIDTH 451 0
DWIDTH 16 0
BBX 20 26 1 0
BITMAP
0001AED7000000571000
001CFFFFC30007FFA000
00AFFFFFFF703FFFA000
04FFFCCFFFFCDFFF3000
0BFFF208FFFFFFF80000
0BFF60003DFFFFC00000
02740000018DE9100000
00000000000000000000
00000000000000000000
000017CEFD9200000000
0004EFFFFFFE50000000
005FFFFFFFFFF3000000
02EFFFFFFFFFFC000000
0BFFFF70DFFFFF300000
2FFFF800DFFFFF701465
7FFFF100AFFFFFFFFFFE
AFFFC0003FFFFFFFFFFF
CFFFB00007FFFFFFFFFC
CFFFB00000BFFFFEC961
BFFFD00000EFFF200000
8FFFF30006FFFC000000
4FFFFC205EFFF6000000
0CFFFFFFFFFFC0000000
03FFFFFFFFFE20000000
004EFFFFFFD300000000
00028DFEC71000000000
ENDCHAR
STARTCHAR odieresis
ENCODING 246
SWIDTH 451 0
DWIDTH 16 0
BBX 20 25 1 0
BITMAP
0005DEA1001AED500000
002FFFF800AFFFE10000
006FFFFB00EFFFF30000
007FFFFA00FFFFF20000
005FFFF500CFFFC00000
0009ED70003CEB200000
00000000000000000000
00000000000000000000
000017CEFD9200000000
0004EFFFFFFE50000000
005FFFFFFFFFF3000000
02EFFFFFFFFFFC000000
0BFFFF70DFFFFF300000
2FFFF800DFFFFF701465
7FFFF100AFFFFFFFFFFE
AFFFC0003FFFFFFFFFFF
CFFFB00007FFFFFFFFFC
CFFFB00000BFFFFEC961
BFFFD00000EFFF200000
8FFFF30006FFFC000000
4FFFFC205EFFF6000000
0CFFFFFFFFFFC0000000
03FFFFFFFFFE20000000
004EFFFFFFD300000000
00028DFEC71000000000
ENDCHAR
STARTCHAR divide
ENCODING 247
SWIDTH 700 0
DWIDTH 25 0
BBX 20 21 3 0
BITMAP
000000002BED50000000
00000000DFFFF1000000
00000003FFFFF4000000
00000003FFFFF3000000
00000001EFFFD0000000
000000004DEC30000000
00000000000000000000
00000000000000000000
00000000000000000000
3DFFFFFFFFFFFFFFFFE4
DFFFFFFFFFFFFFFFFFFA
EFFFFFFFFFFFFFFFFFF8
6DEEEEEEEEEEEEEEEEA1
00000000000000000000
00000000000000000000
0000001AEE8000000000
000000AFFFF400000000
000000FFFFF700000000
000000FFFFF600000000
000000CFFFF200000000
0000002CEC4000000000
ENDCHAR
STARTCHAR oslash
ENCODING 248
SWIDTH 459 0
DWIDTH 17 0
BBX 21 27 1 -5
BITMAP
0000000016500000000000
000000008FF00000000000
00000000BFD00000000000
00000000EFA00000000000
00000002FF700000000000
000029DFFFB20000000000
0006FFFFFFFF7000000000
006FFFFFFFFFF600000000
02FFFFFFFFFFFE10000000
0BFFFE3EFCFFFF70000000
2FFFF52FF6AFFFB0001200
6FFFE04FF35FFFE8ADFF30
9FFFA06FF14FFFFFFFFF50
BFFF909FD04FFFFFFFFF30
CFFF90CFB06FFFFFFFC600
BFFFA0EF809FFFA4310000
9FFFE3FF61EFFF40000000
5FFFFBFF3AFFFD00000000
0DFFFFFFEFFFF500000000
05FFFFFFFFFF9000000000
007FFFFFFFF80000000000
0003AFFFDA300000000000
00003FF500000000000000
00006FF200000000000000
00009FF000000000000000
0000CFC000000000000000
0000362000000000000000
ENDCHAR
STARTCHAR ugrave
ENCODING 249
SWIDTH 462 0
DWIDTH 17 0
BBX 21 30 1 0
BITMAP
0002BE9000000000000000
000BFFF600000000000000
000DFFFD00000000000000
0009FFFF50000000000000
0001EFFFC0000000000000
00004FFFF3000000000000
000007FFFA000000000000
000000AFFF200000000000
0000001DFF800000000000
00000003FFD00000000000
000000005E800000000000
0000000000000000000000
0000000000000000000000
0009EF700006DF90000000
007FFFA0002FFFB0000000
00DFFF70007FFF90000000
02FFFF4000BFFF60000000
06FFFF0001FFFF30000000
0AFFFC0005FFFF00000000
0DFFF9000BFFFC00000000
0FFFF6002FFFF900000000
1FFFF4008FFFF500000000
3FFFF201EFFFF30000BE10
3FFFF109FFFFF0000AFF40
4FFFF36FFFFFE0009FFF20
3FFFFFFFDFFFF21AFFFA00
1FFFFFFF7FFFFFFFFFC100
0BFFFFFD0DFFFFFFFC1000
03FFFFE406FFFFFF900000
005DFC30008EFDA3000000
ENDCHAR
STARTCHAR uacute
ENCODING 250
SWIDTH 462 0
DWIDTH 17 0
BBX 21 30 1 0
BITMAP
0000000000006ED5000000
000000000002FFFE100000
000000000008FFFF300000
00000000001EFFFD000000
00000000007FFFF5000000
0000000000DFFF80000000
0000000005FFFB00000000
000000000BFFE200000000
000000003FFF4000000000
000000008FF70000000000
000000004E900000000000
0000000000000000000000
0000000000000000000000
0009EF700006DF90000000
007FFFA0002FFFB0000000
00DFFF70007FFF90000000
02FFFF4000BFFF60000000
06FFFF0001FFFF30000000
0AFFFC0005FFFF00000000
0DFFF9000BFFFC00000000
0FFFF6002FFFF900000000
1FFFF4008FFFF500000000
3FFFF201EFFFF30000BE10
3FFFF109FFFFF0000AFF40
4FFFF36FFFFFE0009FFF20
3FFFFFFFDFFFF21AFFFA00
1FFFFFFF7FFFFFFFFFC100
0BFFFFFD0DFFFFFFFC1000
03FFFFE406FFFFFF900000
005DFC30008EFDA3000000
ENDCHAR
STARTCHAR ucircumflex
ENCODING 251
SWIDTH 462 0
DWIDTH 17 0
BBX 21 31 1 0
BITMAP
0000000007DEA100000000
000000008FFFF700000000
00000003FFFFFD00000000
0000000CFFEFFF20000000
0000005FFF7FFF50000000
000001DFFD0EFF90000000
000007FFF60CFFD0000000
00002EFFD00AFFF1000000
0000AFFF6008FFF5000000
0003FFFE1006FFF8000000
0007FFF60004FFF8000000
0003DE800000AEC2000000
0000000000000000000000
0000000000000000000000
0009EF700006DF90000000
007FFFA0002FFFB0000000
00DFFF70007FFF90000000
02FFFF4000BFFF60000000
06FFFF0001FFFF30000000
0AFFFC0005FFFF00000000
0DFFF9000BFFFC00000000
0FFFF6002FFFF900000000
1FFFF4008FFFF500000000
3FFFF201EFFFF30000BE10
3FFFF109FFFFF0000AFF40
4FFFF36FFFFFE0009FFF20
3FFFFFFFDFFFF21AFFFA00
1FFFFFFF7FFFFFFFFFC100
0BFFFFFD0DFFFFFFFC1000
03FFFFE406FFFFFF900000
005DFC30008EFDA3000000
ENDCHAR
STARTCHAR udieresis
ENCODING 252
SWIDTH 462 0
DWIDTH 17 0
BBX 21 25 1 0
BITMAP
00003CEB20009EE7000000
0001EFFFA007FFFF200000
0004FFFFD00CFFFF500000
0005FFFFC00DFFFF400000
0003FFFF700AFFFE100000
00007EE90002CEC3000000
0000000000000000000000
0000000000000000000000
0009EF700006DF90000000
007FFFA0002FFFB0000000
00DFFF70007FFF90000000
02FFFF4000BFFF60000000
06FFFF0001FFFF30000000
0AFFFC0005FFFF00000000
0DFFF9000BFFFC00000000
0FFFF6002FFFF900000000
1FFFF4008FFFF500000000
3FFFF201EFFFF30000BE10
3FFFF109FFFFF0000AFF40
4FFFF36FFFFFE0009FFF20
3FFFFFFFDFFFF21AFFFA00
1FFFFFFF7FFFFFFFFFC100
0BFFFFFD0DFFFFFFFC1000
03FFFFE406FFFFFF900000
005DFC30008EFDA3000000
ENDCHAR
STARTCHAR yacute
ENCODING 253
SWIDTH 479 0
DWIDTH 17 0
BBX 23 47 -1 -17
BITMAP
000000000000006ED5000000
00000000000002FFFE100000
00000000000008FFFF300000
0000000000001EFFFD000000
0000000000007FFFF5000000
000000000000DFFF80000000
000000000005FFFB00000000
00000000000BFFE200000000
00000000003FFF4000000000
00000000008FF70000000000
00000000004E900000000000
000000000000000000000000
000000000000000000000000
000009EF700006DF90000000
00007FFFA0002FFFB0000000
0000DFFF70007FFF90000000
0002FFFF4000BFFF70000000
0006FFFF0001FFFF50000000
000AFFFC0005FFFF20000000
000DFFF9000BFFFF00000000
000FFFF6002FFFFC00000000
001FFFF4008FFFFA00000000
003FFFF201EFFFF80002CC00
003FFFF109FFFFF5007FFF20
004FFFF46FFFFFF32BFFFF10
003FFFFFFFEEFFF5EFFFF700
001FFFFFFF9FFFFFFFFD4000
000BFFFFFE5FFFFFFF910000
0003FFFFF56FFFFFE5000000
00005DFC409FFFFA10000000
0000000008FFFF7000000000
00000001BFFFFF1000000000
0000001CFFFFFC0000000000
000002DFFFFFF90000000000
00002DFFC9FFF60000000000
0001CFFC1CFFF20000000000
000AFFD11FFFD00000000000
006FFE205FFF900000000000
01EFF7009FFF400000000000
07FFE000EFFE000000000000
0CFF9006FFF8000000000000
0FFF601DFFF2000000000000
2FFF90AFFFA0000000000000
1FFFFFFFFF20000000000000
0CFFFFFFF700000000000000
04FFFFFF8000000000000000
004BEEB40000000000000000
ENDCHAR
STARTCHAR thorn
ENCODING 254
SWIDTH 508 0
DWIDTH 18 0
BBX 23 41 0 -12
BITMAP
000001674000000000000000
00000CFFF400000000000000
00004FFFF600000000000000
00008FFFF300000000000000
0000BFFFE000000000000000
0000EFFFB000000000000000
0001FFFF7000000000000000
0004FFFF4000000000000000
0007FFFF1000000000000000
000AFFFD0000000000000000
000CFFFA0000000000000000
000FFFF70000000000000000
003FFFF5002AEEA200000000
005FFFF205EFFFFD10000000
007FFFE04FFFFFFF70000000
009FFFC1EFFFFFFFC0000000
00CFFF99FFFFFFFFE0000000
00DFFF9FFE51DFFFE0000000
00FFFFDFF4009FFFD0000000
02FFFFFF90009FFFC0000000
04FFFFFE1000BFFF80000000
05FFFFF70001FFFF50003EA0
06FFFFF10008FFFD0002DFE0
08FFFFA0005FFFF6002DFFC0
09FFFF5018FFFFC016EFFF50
0AFFFF7AEFFFFFFFFFFFF800
0BFFFFFFFFFFFFFFFFFF8000
0CFFFFFFFFE9FFFFFFE50000
0DFFFFFFB6104CEEC8100000
0EFFF9310000000000000000
0EFFF6000000000000000000
0FFFF5000000000000000000
0FFFF5000000000000000000
1FFFF5000000000000000000
1FFFF5000000000000000000
1FFFF5000000000000000000
2FFFF5000000000000000000
2FFFF5000000000000000000
2FFFF5000000000000000000
1FFFF4000000000000000000
09EE80000000000000000000
ENDCHAR
STARTCHAR ydieresis
ENCODING 255
SWIDTH 479 0
DWIDTH 17 0
BBX 23 42 -1 -17
BITMAP
0000003CEB20009EE7000000
000001EFFFA007FFFF200000
000004FFFFD00CFFFF500000
000005FFFFC00DFFFF400000
000003FFFF700AFFFE100000
0000007EE90002CEC3000000
000000000000000000000000
000000000000000000000000
000009EF700006DF90000000
00007FFFA0002FFFB0000000
0000DFFF70007FFF90000000
0002FFFF4000BFFF70000000
0006FFFF0001FFFF50000000
000AFFFC0005FFFF20000000
000DFFF9000BFFFF00000000
000FFFF6002FFFFC00000000
001FFFF4008FFFFA00000000
003FFFF201EFFFF80002CC00
003FFFF109FFFFF5007FFF20
004FFFF46FFFFFF32BFFFF10
003FFFFFFFEEFFF5EFFFF700
001FFFFFFF9FFFFFFFFD4000
000BFFFFFE5FFFFFFF910000
0003FFFFF56FFFFFE5000000
00005DFC409FFFFA10000000
0000000008FFFF7000000000
00000001BFFFFF1000000000
0000001CFFFFFC0000000000
000002DFFFFFF90000000000
00002DFFC9FFF60000000000
0001CFFC1CFFF20000000000
000AFFD11FFFD00000000000
006FFE205FFF900000000000
01EFF7009FFF400000000000
07FFE000EFFE000000000000
0CFF9006FFF8000000000000
0FFF601DFFF2000000000000
2FFF90AFFFA0000000000000
1FFFFFFFFF20000000000000
0CFFFFFFF700000000000000
04FFFFFF8000000000000000
004BEEB40000000000000000
ENDCHAR
STARTCHAR Amacron
ENCODING 256
SWIDTH 786 0
DWIDTH 28 0
BBX 31 37 2 0
BITMAP
000000000000006DEEEEEEEEB1000000
00000000000000FFFFFFFFFFF6000000
00000000000001FFFFFFFFFFF5000000
00000000000000AFFFFFFFFFA0000000
00000000000000000000000000000000
00000000000000000000000000000000
0000000000000158ADDEFEDCA7300000
000000000004AEFFFFFFFFFFFFFD0000
0000000004CFFFFFFFFFFFFFFFFF3000
000000019FFFFFFFFFFEFFFFFFFD0000
0000002DFFFFFFC7310001369CA20000
000002DFFFFFB3000000000000000000
00001DFFFFF600000002BEE900000000
0000CFFFFE300000000AFFFF50000000
0008FFFFF4000000000EFFFF40000000
002FFFFF70000000001FFFFF10000000
00AFFFFC00000000004FFFFD00000000
02FFFFF400000000007FFFF900000000
08FFFFC00000000000BFFFF600000000
0DFFFF700000000000EFFFF300000000
2FFFFF200000000003FFFFE000000000
6FFFFD000000000006FFFFC000000000
9FFFFA00000000000AFFFF9000000000
CFFFF800000000000EFFFF6000000000
DFFFF600000000004FFFFF4000000000
EFFFF500000000009FFFFF2000000000
FFFFF50000000000EFFFFF0000000000
EFFFF50000000005FFFFFD0000000000
DFFFF7000000000CFFFFFC0000000000
BFFFFB000000005FFFFFFC0000002DA0
7FFFFF10000001DFFFFFFD000001DFE0
2FFFFFA000001BFFEFFFFF10001CFFC0
0AFFFFFA2005DFFF5FFFFFB104DFFF50
02EFFFFFFEFFFFF80DFFFFFFFFFFF800
004EFFFFFFFFFFA005FFFFFFFFFF8000
0003DFFFFFFFF800007FFFFFFFE50000
000005ADFEC820000003AEFEC8200000
ENDCHAR
STARTCHAR amacron
ENCODING 257
SWIDTH 470 0
DWIDTH 17 0
BBX 21 23 1 0
BITMAP
00001BEEEEEEEED6000000
00007FFFFFFFFFFE000000
00009FFFFFFFFFFC000000
00003DFFFFFFFFE4000000
0000000000000000000000
0000000000000000000000
00000039DFC10000000000
00001AFFFFF87710000000
0002DFFFFFFFFFA0000000
001DFFFFFFFFFF90000000
00AFFFFE51CFFF70000000
04FFFFD200FFFF40000000
0CFFFF3003FFFF20000000
2FFFF90007FFFE00000000
6FFFF3000AFFFB00000000
9FFFE0000DFFF900005D40
BFFFC0003FFFF70005FF80
BFFFC0009FFFF5004FFF70
9FFFF406FFFFF807FFFE10
6FFFFFFFFFFFFFFFFFF400
1EFFFFFFF5CFFFFFFE4000
04FFFFFF803FFFFFD30000
003BEEB50003CED8100000
ENDCHAR
STARTCHAR Abreve
ENCODING 258
SWIDTH 786 0
DWIDTH 28 0
BBX 31 40 2 0
BITMAP
00000000000003760000000026600000
0000000000003FFF90000003EFF70000
0000000000005FFFF820017EFFF60000
0000000000001EFFFFFEEFFFFFE10000
00000000000006FFFFFFFFFFFF500000
000000000000006EFFFFFFFFD4000000
00000000000000017BDFEDA500000000
00000000000000000000000000000000
00000000000000000000000000000000
0000000000000158ADDEFEDCA7300000
000000000004AEFFFFFFFFFFFFFD0000
0000000004CFFFFFFFFFFFFFFFFF3000
000000019FFFFFFFFFFEFFFFFFFD0000
0000002DFFFFFFC7310001369CA20000
000002DFFFFFB3000000000000000000
00001DFFFFF600000002BEE900000000
0000CFFFFE300000000AFFFF50000000
0008FFFFF4000000000EFFFF40000000
002FFFFF70000000001FFFFF10000000
00AFFFFC00000000004FFFFD00000000
02FFFFF400000000007FFFF900000000
08FFFFC00000000000BFFFF600000000
0DFFFF700000000000EFFFF300000000
2FFFFF200000000003FFFFE000000000
6FFFFD000000000006FFFFC000000000
9FFFFA00000000000AFFFF9000000000
CFFFF800000000000EFFFF6000000000
DFFFF600000000004FFFFF4000000000
EFFFF500000000009FFFFF2000000000
FFFFF50000000000EFFFFF0000000000
EFFFF50000000005FFFFFD0000000000
DFFFF7000000000CFFFFFC0000000000
BFFFFB000000005FFFFFFC0000002DA0
7FFFFF10000001DFFFFFFD000001DFE0
2FFFFFA000001BFFEFFFFF10001CFFC0
0AFFFFFA2005DFFF5FFFFFB104DFFF50
02EFFFFFFEFFFFF80DFFFFFFFFFFF800
004EFFFFFFFFFFA005FFFFFFFFFF8000
0003DFFFFFFFF800007FFFFFFFE50000
000005ADFEC820000003AEFEC8200000
ENDCHAR
STARTCHAR abreve
ENCODING 259
SWIDTH 470 0
DWIDTH 17 0
BBX 21 27 1 0
BITMAP
0003CE800000002CE80000
000AFFF3000000BFFF0000
000BFFFB000006FFFD0000
0008FFFFA2017FFFF90000
0002FFFFFFEFFFFFE20000
00006FFFFFFFFFFF500000
000006EFFFFFFFD3000000
00000027CEFDB610000000
0000000000000000000000
0000000000000000000000
00000039DFC10000000000
00001AFFFFF87710000000
0002DFFFFFFFFFA0000000
001DFFFFFFFFFF90000000
00AFFFFE51CFFF70000000
04FFFFD200FFFF40000000
0CFFFF3003FFFF20000000
2FFFF90007FFFE00000000
6FFFF3000AFFFB00000000
9FFFE0000DFFF900005D40
BFFFC0003FFFF70005FF80
BFFFC0009FFFF5004FFF70
9FFFF406FFFFF807FFFE10
6FFFFFFFFFFFFFFFFFF400
1EFFFFFFF5CFFFFFFE4000
04FFFFFF803FFFFFD30000
003BEEB50003CED8100000
ENDCHAR
STARTCHAR Aogonek
ENCODING 260
SWIDTH 786 0
DWIDTH 28 0
BBX 31 40 2 -9
BITMAP
0000000000000158ADDEFEDCA7300000
000000000004AEFFFFFFFFFFFFFD0000
0000000004CFFFFFFFFFFFFFFFFF3000
000000019FFFFFFFFFFEFFFFFFFD0000
0000002DFFFFFFC7310001369CA20000
000002DFFFFFB3000000000000000000
00001DFFFFF600000002BEE900000000
0000CFFFFE300000000AFFFF50000000
0008FFFFF4000000000EFFFF40000000
002FFFFF70000000001FFFFF10000000
00AFFFFC00000000004FFFFD00000000
02FFFFF400000000007FFFF900000000
08FFFFC00000000000BFFFF600000000
0DFFFF700000000000EFFFF300000000
2FFFFF200000000003FFFFE000000000
6FFFFD000000000006FFFFC000000000
9FFFFA00000000000AFFFF9000000000
CFFFF800000000000EFFFF6000000000
DFFFF600000000004FFFFF4000000000
EFFFF500000000009FFFFF2000000000
FFFFF50000000000EFFFFF0000000000
EFFFF50000000005FFFFFD0000000000
DFFFF7000000000CFFFFFC0000000000
BFFFFB000000005FFFFFFC0000002DA0
7FFFFF10000001DFFFFFFD000001DFE0
2FFFFFA000001BFFEFFFFF10001CFFC0
0AFFFFFA2005DFFF5FFFFFB104DFFF50
02EFFFFFFEFFFFF80CFFFFFFFFFFF500
004EFFFFFFFFFFA004FFFFFFFFFE4000
0003DFFFFFFFF800007FFFFFFFB20000
000005ADFEC820000003DFFFE6000000
00000000000000000006FFFA10000000
0000000000000000002FFFA000000000
0000000000000000008FFF2000000000
000000000000000000BFFF2000000000
000000000000000000BFFFA101420000
0000000000000000008FFFFFEFFC0000
0000000000000000002FFFFFFFFD0000
00000000000000000006FFFFFFF80000
0000000000000000000039DFEC600000
ENDCHAR
STARTCHAR aogonek
ENCODING 261
SWIDTH 470 0
DWIDTH 17 0
BBX 21 26 1 -9
BITMAP
00000039DFC10000000000
00001AFFFFF87710000000
0002DFFFFFFFFFA0000000
001DFFFFFFFFFF90000000
00AFFFFE51CFFF70000000
04FFFFD200FFFF40000000
0CFFFF3003FFFF10000000
2FFFF90007FFFD00000000
6FFFF3000AFFFB00000100
9FFFE0000DFFF800008F50
BFFFC0003FFFF60008FF80
BFFFC0009FFFF5008FFF60
9FFFF406FFFFFA4BFFFE10
6FFFFFFFFFFFFFFFFFF400
1EFFFFFFF5CFFFFFFF5000
04FFFFFF804FFFFFE40000
003BEEB501CFFFFA100000
000000000BFFFE50000000
000000005FFFC100000000
00000000BFFE2000000000
00000000EFFB0000000000
00000000FFFC0000000000
00000000CFFF7114710000
000000007FFFFFFFF70000
000000000AFFFFFFF40000
00000000005BEFEB500000
ENDCHAR
STARTCHAR Cacute
ENCODING 262
SWIDTH 686 0
DWIDTH 25 0
BBX 28 42 2 0
BITMAP
0000000000000000000002740000
000000000000000000006FFF7000
00000000000000000008FFFFE000
000000000000000001AFFFFFC000
00000000000000001CFFFFFE3000
0000000000000003DFFFFF920000
000000000000003EFFFFA2000000
00000000000000BFFFA300000000
000000000000006EB30000000000
0000000000000000000000000000
0000000000000000000000000000
000000000027ADEFEC8200000000
000000003BFFFFFFFFFF80000000
00000008FFFFFFFFFFFFF9000000
000001BFFFFFFFEFFFFFFF400000
00001CFFFFFD62003BFFFFB00000
0000BFFFFF80000001EFFFF10000
0007FFFFF600000000AFFFF20000
001EFFFF80000000009FFFF30000
009FFFFC0000000000AFFFF20000
01FFFFF40000000000CFFFE00000
07FFFFD00000000000DFFF900000
0BFFFF7000000000008FFD200000
1FFFFF3000000000000230000000
4FFFFE0000000000000000000000
6FFFFC0000000000000000000000
8FFFFA0000000000000000000000
9FFFFA0000000000000000000000
AFFFF90000000000000000000000
AFFFFA0000000000000000000000
9FFFFB0000000000000000000000
8FFFFE0000000000000000000000
5FFFFF2000000000000000000000
1FFFFF9000000000000000000000
0BFFFFF200000000000000000000
03FFFFFD10000000000000002770
00AFFFFFD40000000000015BFFF3
001CFFFFFFB630000147BFFFFFF2
0001CFFFFFFFFFFEFFFFFFFFFFA0
000019FFFFFFFFFFFFFFFFFFF910
0000003AFFFFFFFFFFFFFFC61000
00000000269CEFFEDCA741000000
ENDCHAR
STARTCHAR cacute
ENCODING 263
SWIDTH 368 0
DWIDTH 13 0
BBX 17 30 1 0
BITMAP
000000000008EC3000
00000000004FFFD000
0000000000BFFFF000
0000000003FFFFB000
0000000009FFFE2000
000000001FFFF50000
000000008FFF900000
00000000EFFC000000
00000006FFE2000000
0000000BFF40000000
00000007E700000000
000000000000000000
000000000000000000
000017CEFC50000000
0004DFFFFFF6000000
004FFFFFFFFE100000
02EFFFFFFFFF400000
0AFFFF806FFF400000
2FFFFA006FFF200000
6FFFF3008FFC000000
AFFFE0004DC2000000
CFFFC0000000000100
CFFFC0000000004EA0
CFFFE000000005FFD0
AFFFF50000008FFFB0
6FFFFE51016DFFFF40
1EFFFFFFEFFFFFF600
04FFFFFFFFFFFE5000
005EFFFFFFFFA10000
00017BEFEC82000000
ENDCHAR
STARTCHAR Ccircumflex
ENCODING 264
SWIDTH 686 0
DWIDTH 25 0
BBX 28 43 2 0
BITMAP
000000000000005CEE7000000000
00000000000006FFFFF500000000
0000000000003FFFFFFD00000000
000000000000CFFFDFFF40000000
000000000007FFFD4FFF90000000
00000000002FFFF40EFFE1000000
0000000000CFFFB00BFFF6000000
0000000006FFFF3007FFFA000000
0000000009FFF90002FFFB000000
0000000003DE9100008EC3000000
0000000000000000000000000000
0000000000000000000000000000
000000000027ADEFEC8200000000
000000003BFFFFFFFFFF80000000
00000008FFFFFFFFFFFFF9000000
000001BFFFFFFFEFFFFFFF400000
00001CFFFFFD62003BFFFFB00000
0000BFFFFF80000001EFFFF10000
0007FFFFF600000000AFFFF20000
001EFFFF80000000009FFFF30000
009FFFFC0000000000AFFFF20000
01FFFFF40000000000CFFFE00000
07FFFFD00000000000DFFF900000
0BFFFF7000000000008FFD200000
1FFFFF3000000000000230000000
4FFFFE0000000000000000000000
6FFFFC0000000000000000000000
8FFFFA0000000000000000000000
9FFFFA0000000000000000000000
AFFFF90000000000000000000000
AFFFFA0000000000000000000000
9FFFFB0000000000000000000000
8FFFFE0000000000000000000000
5FFFFF2000000000000000000000
1FFFFF9000000000000000000000
0BFFFFF200000000000000000000
03FFFFFD10000000000000002770
00AFFFFFD40000000000015BFFF3
001CFFFFFFB630000147BFFFFFF2
0001CFFFFFFFFFFEFFFFFFFFFFA0
000019FFFFFFFFFFFFFFFFFFF910
0000003AFFFFFFFFFFFFFFC61000
00000000269CEFFEDCA741000000
ENDCHAR
STARTCHAR ccircumflex
ENCODING 265
SWIDTH 368 0
DWIDTH 13 0
BBX 17 31 1 0
BITMAP
000000008EE8000000
0000000BFFFF500000
0000006FFFFFA00000
000001EFFEFFE00000
000008FFF7FFF30000
00002FFFB2FFF60000
0000AFFF30FFFA0000
0004FFFB00DFFE0000
000CFFF400BFFF2000
005FFFB0009FFF5000
00AFFF30007FFF5000
005EE600001CEA0000
000000000000000000
000000000000000000
000017CEFC50000000
0004DFFFFFF6000000
004FFFFFFFFE100000
02EFFFFFFFFF400000
0AFFFF806FFF400000
2FFFFA006FFF200000
6FFFF3008FFC000000
AFFFE0004DC2000000
CFFFC0000000000100
CFFFC0000000004EA0
CFFFE000000005FFD0
AFFFF50000008FFFB0
6FFFFE51016DFFFF40
1EFFFFFFEFFFFFF600
04FFFFFFFFFFFE5000
005EFFFFFFFFA10000
00017BEFEC82000000
ENDCHAR
STARTCHAR Cdotaccent
ENCODING 266
SWIDTH 686 0
DWIDTH 25 0
BBX 28 39 2 0
BITMAP
000000000000019DEB2000000000
0000000000001DFFFFD000000000
0000000000005FFFFFF200000000
0000000000005FFFFFF000000000
0000000000002EFFFF9000000000
00000000000004CED81000000000
0000000000000000000000000000
0000000000000000000000000000
000000000027ADEFEC8200000000
000000003BFFFFFFFFFF80000000
00000008FFFFFFFFFFFFF9000000
000001BFFFFFFFEFFFFFFF400000
00001CFFFFFD62003BFFFFB00000
0000BFFFFF80000001EFFFF10000
0007FFFFF600000000AFFFF20000
001EFFFF80000000009FFFF30000
009FFFFC0000000000AFFFF20000
01FFFFF40000000000CFFFE00000
07FFFFD00000000000DFFF900000
0BFFFF7000000000008FFD200000
1FFFFF3000000000000230000000
4FFFFE0000000000000000000000
6FFFFC0000000000000000000000
8FFFFA0000000000000000000000
9FFFFA0000000000000000000000
AFFFF90000000000000000000000
AFFFFA0000000000000000000000
9FFFFB0000000000000000000000
8FFFFE0000000000000000000000
5FFFFF2000000000000000000000
1FFFFF9000000000000000000000
0BFFFFF200000000000000000000
03FFFFFD10000000000000002770
00AFFFFFD40000000000015BFFF3
001CFFFFFFB630000147BFFFFFF2
0001CFFFFFFFFFFEFFFFFFFFFFA0
000019FFFFFFFFFFFFFFFFFFF910
0000003AFFFFFFFFFFFFFFC61000
00000000269CEFFEDCA741000000
ENDCHAR
STARTCHAR cdotaccent
ENCODING 267
SWIDTH 368 0
DWIDTH 13 0
BBX 17 25 1 0
BITMAP
0000002AEEA1000000
000001DFFFFA000000
000005FFFFFE000000
000006FFFFFC000000
000003FFFFF6000000
0000005DED60000000
000000000000000000
000000000000000000
000017CEFC50000000
0004DFFFFFF6000000
004FFFFFFFFE100000
02EFFFFFFFFF400000
0AFFFF806FFF400000
2FFFFA006FFF200000
6FFFF3008FFC000000
AFFFE0004DC2000000
CFFFC0000000000100
CFFFC0000000004EA0
CFFFE000000005FFD0
AFFFF50000008FFFB0
6FFFFE51016DFFFF40
1EFFFFFFEFFFFFF600
04FFFFFFFFFFFE5000
005EFFFFFFFFA10000
00017BEFEC82000000
ENDCHAR
STARTCHAR Ccaron
ENCODING 268
SWIDTH 686 0
DWIDTH 25 0
BBX 28 42 2 0
BITMAP
00000000002DE9000007EE400000
00000000008FFF40005FFF800000
00000000005FFF9001EFFF300000
00000000000DFFE109FFF8000000
000000000006FFF64FFFC0000000
000000000000DFFBDFFE20000000
0000000000006FFFFFF500000000
0000000000000CFFFF8000000000
00000000000002BED60000000000
0000000000000000000000000000
0000000000000000000000000000
000000000027ADEFEC8200000000
000000003BFFFFFFFFFF80000000
00000008FFFFFFFFFFFFF9000000
000001BFFFFFFFEFFFFFFF400000
00001CFFFFFD62003BFFFFB00000
0000BFFFFF80000001EFFFF10000
0007FFFFF600000000AFFFF20000
001EFFFF80000000009FFFF30000
009FFFFC0000000000AFFFF20000
01FFFFF40000000000CFFFE00000
07FFFFD00000000000DFFF900000
0BFFFF7000000000008FFD200000
1FFFFF3000000000000230000000
4FFFFE0000000000000000000000
6FFFFC0000000000000000000000
8FFFFA0000000000000000000000
9FFFFA0000000000000000000000
AFFFF90000000000000000000000
AFFFFA0000000000000000000000
9FFFFB0000000000000000000000
8FFFFE0000000000000000000000
5FFFFF2000000000000000000000
1FFFFF9000000000000000000000
0BFFFFF200000000000000000000
03FFFFFD10000000000000002770
00AFFFFFD40000000000015BFFF3
001CFFFFFFB630000147BFFFFFF2
0001CFFFFFFFFFFEFFFFFFFFFFA0
000019FFFFFFFFFFFFFFFFFFF910
0000003AFFFFFFFFFFFFFFC61000
00000000269CEFFEDCA741000000
ENDCHAR
STARTCHAR ccaron
ENCODING 269
SWIDTH 368 0
DWIDTH 13 0
BBX 17 31 1 0
BITMAP
00006EE400002CFA00
0000FFFC0000DFFF00
0000FFFF0006FFFB00
0000CFFF200DFFF300
00008FFF405FFF9000
00004FFF60CFFE1000
00001FFF85FFF70000
00000CFFACFFD00000
000008FFEFFF500000
000004FFFFFB000000
000000EFFFE2000000
0000004DEB30000000
000000000000000000
000000000000000000
000017CEFC50000000
0004DFFFFFF6000000
004FFFFFFFFE100000
02EFFFFFFFFF400000
0AFFFF806FFF400000
2FFFFA006FFF200000
6FFFF3008FFC000000
AFFFE0004DC2000000
CFFFC0000000000100
CFFFC0000000004EA0
CFFFE000000005FFD0
AFFFF50000008FFFB0
6FFFFE51016DFFFF40
1EFFFFFFEFFFFFF600
04FFFFFFFFFFFE5000
005EFFFFFFFFA10000
00017BEFEC82000000
ENDCHAR
STARTCHAR Dcaron
ENCODING 270
SWIDTH 836 0
DWIDTH 30 0
BBX 29 42 1 0
BITMAP
00000000006ED400001BFC10000000
0000000000DFFD0000BFFF30000000
0000000000BFFF4005FFFC00000000
00000000004FFF901EFFF300000000
00000000000CFFE19FFF6000000000
000000000004FFF9FFFA0000000000
000000000000BFFFFFD10000000000
0000000000003FFFFE300000000000
00000000000005DEB3000000000000
000000000000000000000000000000
000000000000000000000000000000
0000000147ACDEFEDB840000000000
000016BFFFFFFFFFFFFFE810000000
0017EFFFFFFFFFFFFFFFFFE6000000
04EFFFFFFFFFFEFFFFFFFFFFA00000
2FFFFFFFB742000137DFFFFFF90000
5FFFFD71000000000006FFFFFF5000
4FFD60000000000000003EFFFFD000
0661000377500000000005FFFFF600
0000004FFFF70000000000CFFFFB00
000000BFFFF600000000006FFFFF00
000000EFFFF200000000002FFFFF30
000003FFFFD000000000000FFFFF50
000007FFFF9000000000000EFFFF60
00000BFFFF5000000000000EFFFF60
00000EFFFF2000000000000FFFFF50
00002FFFFE0000000000001FFFFF40
00005FFFFB0000000000003FFFFF20
00008FFFF80000000000006FFFFE00
0000BFFFF50000000000009FFFFB00
0000EFFFF2000000000000EFFFF700
0002FFFFF0000000000006FFFFF200
0004FFFFC000000000000DFFFFB000
0006FFFFA000000000008FFFFF4000
0009FFFF800000000005FFFFFA0000
000BFFFF60000000005FFFFFD10000
000DFFFF500000002AFFFFFE300000
000EFFFF3000136BFFFFFFE3000000
000FFFFFFEEFFFFFFFFFFC20000000
001FFFFFFFFFFFFFFFFE7000000000
000CFFFFFFFFFFFFFD610000000000
00017ABDEFFEDB9620000000000000
ENDCHAR
STARTCHAR dcaron
ENCODING 271
SWIDTH 470 0
DWIDTH 17 0
BBX 23 34 1 0
BITMAP
000000000000000000002200
0000000000000000000BFF90
0000000000000000004FFFE0
0000000000000057506FFFD0
0000000000000CFFF66FFF90
0000000000004FFFF87FFF40
0000000000007FFFF58FFD00
000000000000AFFFF28FF800
000000000000CFFFE04ED200
000000000000EFFFB0000000
000000000001FFFF80000000
000000000003FFFF50000000
000000000005FFFF20000000
000000000007FFFE00000000
000000000009FFFB00000000
00000000000BFFF800000000
00000000000DFFF500000000
0000004ADE9FFFF200000000
00001AFFFFFFFFE000000000
0002DFFFFFFFFFC000000000
001DFFFFFFFFFF9000000000
00AFFFFE51CFFF6000000000
04FFFFD200FFFF3000000000
0BFFFF3003FFFF1000000000
2FFFF90007FFFD0000000000
6FFFF3000AFFFB0000000000
9FFFE0000DFFF800005D4000
AFFFC0003FFFF60005FF8000
BFFFC0009FFFF5004FFF7000
9FFFF406FFFFF807FFFE1000
6FFFFFFFFFFFFFFFFFF40000
1EFFFFFFF5CFFFFFFE400000
04FFFFFF803FFFFFD3000000
003BEEB50003CED810000000
ENDCHAR
STARTCHAR Dcroat
ENCODING 272
SWIDTH 821 0
DWIDTH 30 0
BBX 29 31 0 0
BITMAP
00000000028BDEFFEDB83000000000
000000000DFFFFFFFFFFFD60000000
000000005FFFFFFFFFFFFFFC200000
000000009FFFFEEFFFFFFFFFE40000
00000000EFFFF100149EFFFFFE3000
00000003FFFFB0000001BFFFFFC000
00000008FFFF700000000AFFFFF600
0000000CFFFF3000000000CFFFFD00
0000001FFFFE00000000005FFFFF30
0000005FFFFA00000000000EFFFF80
0000008FFFF600000000000AFFFFA0
000000CFFFF3000000000008FFFFC0
000001FFFFE0000000000007FFFFD0
04ADEEFFFFFEEEEDB4000006FFFFD0
3FFFFFFFFFFFFFFFFE000007FFFFC0
6FFFFFFFFFFFFFFFFE000008FFFFB0
2DFFFFFFFFFFFFFFD500000AFFFF90
00004FFFFC0000000000000DFFFF70
00007FFFFA0000000000002FFFFF30
00009FFFF70000000000007FFFFD00
0000CFFFF4000000000000DFFFF800
0000EFFFF2000000000006FFFFF200
0002FFFFE000000000002EFFFF9000
0004FFFFD00000000001CFFFFE1000
0006FFFFB0000000002CFFFFF40000
0008FFFF9000000007EFFFFF600000
000AFFFF70000259EFFFFFF6000000
000BFFFFFEEEFFFFFFFFFE40000000
000CFFFFFFFFFFFFFFFF9100000000
0008FFFFFFFFFFFFFE920000000000
000059BDEEFEECA730000000000000
ENDCHAR
STARTCHAR dcroat
ENCODING 273
SWIDTH 470 0
DWIDTH 17 0
BBX 21 31 1 0
BITMAP
0000000000000167500000
0000000000001DFFF60000
0000000000005FFFF70000
0000000000008FFFF40000
000000000000AFFFF10000
000000000000DFFFD00000
000009DEEEEEFFFFFF8000
00002FFFFFFFFFFFFFC000
00003FFFFFFFFFFFFF8000
00001CFFFFFFFFFFA50000
000000000008FFFE000000
000000000009FFFB000000
00000000000BFFF8000000
00000000000DFFF5000000
0000004ADE9FFFF2000000
00001AFFFFFFFFE0000000
0002DFFFFFFFFFB0000000
001DFFFFFFFFFF90000000
00AFFFFE51CFFF60000000
04FFFFD200FFFF30000000
0BFFFF3003FFFF10000000
2FFFF90007FFFD00000000
6FFFF3000AFFFA00000000
9FFFE0000DFFF800005D40
AFFFC0003FFFF60005FF80
BFFFC0009FFFF5004FFF70
9FFFF406FFFFF807FFFE10
6FFFFFFFFFFFFFFFFFF400
1EFFFFFFF5CFFFFFFE4000
04FFFFFF803FFFFFD30000
003BEEB50003CED8100000
ENDCHAR
STARTCHAR Emacron
ENCODING 274
SWIDTH 686 0
DWIDTH 25 0
BBX 29 37 1 0
BITMAP
00000000002BEEEEEEEED600000000
00000000008FFFFFFFFFFD00000000
00000000009FFFFFFFFFFB00000000
00000000004EFFFFFFFFD400000000
000000000000000000000000000000
000000000000000000000000000000
000000000037ADEFEDB82000000000
000000005CFFFFFFFFFFFA10000000
0000002BFFFFFFFFFFFFFFD1000000
000002DFFFFFFFFEFFFFFFFA000000
00001DFFFFFD6200028FFFFF300000
00008FFFFF8000000008FFFF700000
0000EFFFFA0000000003FFFF900000
0004FFFFF30000000002FFFF900000
0005FFFFF00000000004FFFF800000
0005FFFFF00000000006FFFF400000
0003FFFFF40000000006FFFD000000
0000CFFFFD20000000009DB2000000
00003EFFFFE8310000000000000000
000003EFFFFFFFFD10000000000000
00000019FFFFFFFF40000000000000
000017DFFFFFFFFF20000000000000
0006EFFFFFFFFED700000000000000
008FFFFFE952000000000000000000
06FFFFF91000000000000000000000
1EFFFF800000000000000000000000
7FFFFD000000000000000000000000
BFFFF9000000000000000000000000
DFFFF7000000000000000000000000
DFFFF9000000000000000000000000
BFFFFE200000000000000000038800
6FFFFFD30000000000000037CFFF30
0CFFFFFFA63100001257AEFFFFFF20
02EFFFFFFFFFFEEFFFFFFFFFFFFB00
002BFFFFFFFFFFFFFFFFFFFFFF8100
00004BFFFFFFFFFFFFFFFFFB710000
000000158BDEFFFEDCA86300000000
ENDCHAR
STARTCHAR emacron
ENCODING 275
SWIDTH 393 0
DWIDTH 14 0
BBX 18 23 1 0
BITMAP
0006DEEEEEEEEB1000
000FFFFFFFFFFF6000
001FFFFFFFFFFF5000
000AFFFFFFFFFA0000
000000000000000000
000000000000000000
000017CEFD81000000
0003EFFFFFFC100000
004EFFFFFFFF800000
01EFFFFEFFFFC00000
0AFFFE503FFFE00000
2FFFF6000EFFD00000
7FFFE1004FFF900000
AFFFB004EFFF200000
CFFFA6BFFFF5000020
CFFFFFFFFD400007F9
BFFFFFFC6000008FFB
8FFFF92000003CFFF9
4FFFFD50004AFFFFF3
0CFFFFFFEFFFFFFF50
02EFFFFFFFFFFFD300
003DFFFFFFFFE81000
00005ADEFEB7100000
ENDCHAR
STARTCHAR Ebreve
ENCODING 276
SWIDTH 686 0
DWIDTH 25 0
BBX 29 40 1 0
BITMAP
000000000167200000000473000000
000000000BFFE2000000AFFE000000
000000000DFFFD40004BFFFD000000
0000000009FFFFFFEFFFFFF7000000
0000000001DFFFFFFFFFFFB0000000
00000000002BFFFFFFFFF800000000
00000000000049DEFDC72000000000
000000000000000000000000000000
000000000000000000000000000000
000000000037ADEFEDB82000000000
000000005CFFFFFFFFFFFA10000000
0000002BFFFFFFFFFFFFFFD1000000
000002DFFFFFFFFEFFFFFFFA000000
00001DFFFFFD6200028FFFFF300000
00008FFFFF8000000008FFFF700000
0000EFFFFA0000000003FFFF900000
0004FFFFF30000000002FFFF900000
0005FFFFF00000000004FFFF800000
0005FFFFF00000000006FFFF400000
0003FFFFF40000000006FFFD000000
0000CFFFFD20000000009DB2000000
00003EFFFFE8310000000000000000
000003EFFFFFFFFD10000000000000
00000019FFFFFFFF40000000000000
000017DFFFFFFFFF20000000000000
0006EFFFFFFFFED700000000000000
008FFFFFE952000000000000000000
06FFFFF91000000000000000000000
1EFFFF800000000000000000000000
7FFFFD000000000000000000000000
BFFFF9000000000000000000000000
DFFFF7000000000000000000000000
DFFFF9000000000000000000000000
BFFFFE200000000000000000038800
6FFFFFD30000000000000037CFFF30
0CFFFFFFA63100001257AEFFFFFF20
02EFFFFFFFFFFEEFFFFFFFFFFFFB00
002BFFFFFFFFFFFFFFFFFFFFFF8100
00004BFFFFFFFFFFFFFFFFFB710000
000000158BDEFFFEDCA86300000000
ENDCHAR
STARTCHAR ebreve
ENCODING 277
SWIDTH 393 0
DWIDTH 14 0
BBX 18 27 1 0
BITMAP
008ED200000007ED20
03FFFA0000004FFF70
03FFFF300001DFFF50
01FFFFE5003CFFFF20
009FFFFFFFFFFFF800
001DFFFFFFFFFFB000
0002BFFFFFFFF90000
000005ADEEC8200000
000000000000000000
000000000000000000
000017CEFD81000000
0003EFFFFFFC100000
004EFFFFFFFF800000
01EFFFFEFFFFC00000
0AFFFE503FFFE00000
2FFFF6000EFFD00000
7FFFE1004FFF900000
AFFFB004EFFF200000
CFFFA6BFFFF5000020
CFFFFFFFFD400007F9
BFFFFFFC6000008FFB
8FFFF92000003CFFF9
4FFFFD50004AFFFFF3
0CFFFFFFEFFFFFFF50
02EFFFFFFFFFFFD300
003DFFFFFFFFE81000
00005ADEFEB7100000
ENDCHAR
STARTCHAR Edotaccent
ENCODING 278
SWIDTH 686 0
DWIDTH 25 0
BBX 29 39 1 0
BITMAP
000000000000005CED700000000000
00000000000006FFFFF60000000000
0000000000000CFFFFF90000000000
0000000000000DFFFFF80000000000
00000000000009FFFFE20000000000
000000000000019EEB300000000000
000000000000000000000000000000
000000000000000000000000000000
000000000037ADEFEDB82000000000
000000005CFFFFFFFFFFFA10000000
0000002BFFFFFFFFFFFFFFD1000000
000002DFFFFFFFFEFFFFFFFA000000
00001DFFFFFD6200028FFFFF300000
00008FFFFF8000000008FFFF700000
0000EFFFFA0000000003FFFF900000
0004FFFFF30000000002FFFF900000
0005FFFFF00000000004FFFF800000
0005FFFFF00000000006FFFF400000
0003FFFFF40000000006FFFD000000
0000CFFFFD20000000009DB2000000
00003EFFFFE8310000000000000000
000003EFFFFFFFFD10000000000000
00000019FFFFFFFF40000000000000
000017DFFFFFFFFF20000000000000
0006EFFFFFFFFED700000000000000
008FFFFFE952000000000000000000
06FFFFF91000000000000000000000
1EFFFF800000000000000000000000
7FFFFD000000000000000000000000
BFFFF9000000000000000000000000
DFFFF7000000000000000000000000
DFFFF9000000000000000000000000
BFFFFE200000000000000000038800
6FFFFFD30000000000000037CFFF30
0CFFFFFFA63100001257AEFFFFFF20
02EFFFFFFFFFFEEFFFFFFFFFFFFB00
002BFFFFFFFFFFFFFFFFFFFFFF8100
00004BFFFFFFFFFFFFFFFFFB710000
000000158BDEFFFEDCA86300000000
ENDCHAR
STARTCHAR edotaccent
ENCODING 279
SWIDTH 393 0
DWIDTH 14 0
BBX 18 25 1 0
BITMAP
00000019DEB2000000
000000BFFFFD000000
000003FFFFFF100000
000004FFFFFF000000
000001EFFFF9000000
0000004CED80000000
000000000000000000
000000000000000000
000017CEFD81000000
0003EFFFFFFC100000
004EFFFFFFFF800000
01EFFFFEFFFFC00000
0AFFFE503FFFE00000
2FFFF6000EFFD00000
7FFFE1004FFF900000
AFFFB004EFFF200000
CFFFA6BFFFF5000020
CFFFFFFFFD400007F9
BFFFFFFC6000008FFB
8FFFF92000003CFFF9
4FFFFD50004AFFFFF3
0CFFFFFFEFFFFFFF50
02EFFFFFFFFFFFD300
003DFFFFFFFFE81000
00005ADEFEB7100000
ENDCHAR
STARTCHAR Eogonek
ENCODING 280
SWIDTH 686 0
DWIDTH 25 0
BBX 29 40 1 -9
BITMAP
000000000037ADEFEDB82000000000
000000005CFFFFFFFFFFFA10000000
0000002BFFFFFFFFFFFFFFD1000000
000002DFFFFFFFFEFFFFFFFA000000
00001DFFFFFD6200028FFFFF300000
00008FFFFF8000000008FFFF700000
0000EFFFFA0000000003FFFF900000
0004FFFFF30000000002FFFF900000
0005FFFFF00000000004FFFF800000
0005FFFFF00000000006FFFF400000
0003FFFFF40000000006FFFD000000
0000CFFFFD20000000009DB2000000
00003EFFFFE8310000000000000000
000003EFFFFFFFFD10000000000000
00000019FFFFFFFF40000000000000
000017DFFFFFFFFF20000000000000
0005EFFFFFFFFED700000000000000
008FFFFFE952000000000000000000
06FFFFF91000000000000000000000
1EFFFF800000000000000000000000
7FFFFD000000000000000000000000
BFFFF9000000000000000000000000
DFFFF7000000000000000000000000
DFFFF9000000000000000000000000
BFFFFE200000000000000000038800
7FFFFFD30000000000000037CFFF30
1DFFFFFFA63100001257AEFFFFFF20
03EFFFFFFFFFFEEFFFFFFFFFFFFA00
003DFFFFFFFFFFFFFFFFFFFFFE7000
00007DFFFFFFFFFFFFFFFFD9500000
00000037ACEFFFFFDA874200000000
000000000001DFFC10000000000000
000000000007FFF300000000000000
00000000000CFFD000000000000000
00000000000FFFD000000000000000
00000000000FFFF700241000000000
00000000000DFFFFFFFF8000000000
000000000007FFFFFFFF8000000000
000000000000AFFFFFFF4000000000
00000000000005BEFEB40000000000
ENDCHAR
STARTCHAR eogonek
ENCODING 281
SWIDTH 393 0
DWIDTH 14 0
BBX 18 26 1 -9
BITMAP
000017BEFD81000000
0003DFFFFFFC000000
003EFFFFFFFF700000
01DFFFFFFFFFC00000
09FFFF504FFFE00000
1FFFF7000EFFD00000
6FFFF1002FFFA00000
9FFFB001BFFF500000
BFFF905DFFFB000000
CFFFDEFFFFB10002B5
BFFFFFFFE700002DFB
9FFFFFB6100004DFFB
6FFFF70000018FFFF6
1EFFFFA5459EFFFFA0
06FFFFFFFFFFFFF900
008FFFFFFFFFFD5000
0005CFFFFFFC600000
000002EFFD50000000
00000AFFE200000000
00002FFF7000000000
00006FFF4000000000
00007FFF5000000000
00005FFFD302550000
00001EFFFFFFFF0000
000004FFFFFFFC0000
00000029DFED910000
ENDCHAR
STARTCHAR Ecaron
ENCODING 282
SWIDTH 686 0
DWIDTH 25 0
BBX 29 42 1 0
BITMAP
000000000008ED300002CFB0000000
00000000000FFFB0000CFFF1000000
00000000000DFFF2007FFFA0000000
000000000006FFF702FFFE10000000
000000000000DFFD0BFFF400000000
0000000000006FFF9FFF8000000000
0000000000000DFFFFFC0000000000
00000000000004FFFFE20000000000
000000000000006DEB200000000000
000000000000000000000000000000
000000000000000000000000000000
000000000037ADEFEDB82000000000
000000005CFFFFFFFFFFFA10000000
0000002BFFFFFFFFFFFFFFD1000000
000002DFFFFFFFFEFFFFFFFA000000
00001DFFFFFD6200028FFFFF300000
00008FFFFF8000000008FFFF700000
0000EFFFFA0000000003FFFF900000
0004FFFFF30000000002FFFF900000
0005FFFFF00000000004FFFF800000
0005FFFFF00000000006FFFF400000
0003FFFFF40000000006FFFD000000
0000CFFFFD20000000009DB2000000
00003EFFFFE8310000000000000000
000003EFFFFFFFFD10000000000000
00000019FFFFFFFF40000000000000
000017DFFFFFFFFF20000000000000
0006EFFFFFFFFED700000000000000
008FFFFFE952000000000000000000
06FFFFF91000000000000000000000
1EFFFF800000000000000000000000
7FFFFD000000000000000000000000
BFFFF9000000000000000000000000
DFFFF7000000000000000000000000
DFFFF9000000000000000000000000
BFFFFE200000000000000000038800
6FFFFFD30000000000000037CFFF30
0CFFFFFFA63100001257AEFFFFFF20
02EFFFFFFFFFFEEFFFFFFFFFFFFB00
002BFFFFFFFFFFFFFFFFFFFFFF8100
00004BFFFFFFFFFFFFFFFFFB710000
000000158BDEFFFEDCA86300000000
ENDCHAR
STARTCHAR ecaron
ENCODING 283
SWIDTH 393 0
DWIDTH 14 0
BBX 18 31 1 0
BITMAP
00004DE700001BEC10
0000CFFF0000AFFF30
0000CFFF3003FFFE00
00009FFF500AFFF600
00005FFF603FFFC000
00002FFF80AFFF4000
00000DFFA2FFFA0000
000009FFC9FFF20000
000006FFFFFF800000
000002FFFFFD100000
000000BFFFF4000000
0000002CEC40000000
000000000000000000
000000000000000000
000017CEFD81000000
0003EFFFFFFC100000
004EFFFFFFFF800000
01EFFFFEFFFFC00000
0AFFFE503FFFE00000
2FFFF6000EFFD00000
7FFFE1004FFF900000
AFFFB004EFFF200000
CFFFA6BFFFF5000020
CFFFFFFFFD400007F9
BFFFFFFC6000008FFB
8FFFF92000003CFFF9
4FFFFD50004AFFFFF3
0CFFFFFFEFFFFFFF50
02EFFFFFFFFFFFD300
003DFFFFFFFFE81000
00005ADEFEB7100000
ENDCHAR
STARTCHAR Gcircumflex
ENCODING 284
SWIDTH 811 0
DWIDTH 29 0
BBX 32 60 2 -17
BITMAP
0000000000000018DFC3000000000000
00000000000001CFFFFD000000000000
00000000000009FFFFFF600000000000
0000000000004FFFEFFFC00000000000
000000000001DFFF6BFFF30000000000
000000000009FFFC07FFF80000000000
00000000004FFFF403FFFE0000000000
0000000000DFFFB000DFFF3000000000
0000000001FFFF20009FFF4000000000
00000000008ED500002CE90000000000
00000000000000000000000000000000
00000000000000000000000000000000
0000000000169CEFEDB7100000000000
0000000029EFFFFFFFFFE60000000000
00000007EFFFFFFFFFFFFF7000000000
000001AFFFFFFFFEFFFFFFF300000000
00001BFFFFFE730004CFFFFA00000000
0000AFFFFF910000002EFFFE00000000
0006FFFFF6000000000BFFFF20000000
001EFFFF800000000009FFFF30000000
009FFFFC00000000000AFFFF30000000
01EFFFF500000000000CFFFF10000000
07FFFFD000000000000DFFFB00000000
0BFFFF7000000000000AFFF500000000
1FFFFF30000000000001894000000000
4FFFFE00000000000000000000000000
6FFFFC00000000000000000000000000
8FFFFA00000000000000000000000000
9FFFFA00000000000000000000000000
AFFFF900000000000000000000000000
AFFFFA0000000008DEEEEEED80000000
9FFFFB000000003FFFFFFFFFF2000000
8FFFFE000000003FFFFFFFFFF1000000
5FFFFF200000000AEFFFFFFFE0000000
1FFFFF800000000000009FFFC0000000
0BFFFFE2000000000000BFFF90000440
03FFFFFC100000000000DFFF7001AFF1
00AFFFFFD30000000000FFFF506EFFF1
001DFFFFFFB62000137CFFFF4AFFFFC0
0002DFFFFFFFFFEEFFFFFFFFEFFFFA10
00001AFFFFFFFFFFFFFFFFFFFFFE5000
0000004BFFFFFFFFFFFFFFFFFFB10000
0000000027ADEFFDB84BFFFFE6000000
000000000000000001AFFFFC20000000
00000000000000001CFFFFF300000000
0000000000000002DFFFFFE000000000
000000000000003EFFFFFFB000000000
00000000000002EFFCAFFF8000000000
0000000000001DFFC1CFFF4000000000
000000000000BFFD11FFFE0000000000
000000000007FFE205FFFB0000000000
00000000001EFF7009FFF60000000000
00000000007FFE000EFFF10000000000
0000000000CFF9005FFFA00000000000
0000000000FFF600DFFF300000000000
0000000001FFF909FFFB000000000000
0000000001FFFFFFFFF3000000000000
0000000000CFFFFFFF80000000000000
00000000004FFFFFF900000000000000
000000000003BEEB5000000000000000
ENDCHAR
STARTCHAR gcircumflex
ENCODING 285
SWIDTH 479 0
DWIDTH 17 0
BBX 23 48 -1 -17
BITMAP
000000000002BED400000000
00000000002EFFFE10000000
0000000000BFFFFF50000000
0000000004FFFEFF90000000
000000000DFFD9FFD0000000
000000006FFF67FFF2000000
00000001EFFD05FFF5000000
00000009FFF603FFF9000000
0000002FFFE001FFFD000000
000000AFFF7000EFFF100000
000000EFFD1000BFFF100000
0000009FC300004DE7000000
000000000000000000000000
000000000000000000000000
0000000039DFC10000000000
0000001AFFFFF87710000000
000002DFFFFFFFFF80000000
00001DFFFFFFFFFF80000000
0000AFFFFD50DFFF60000000
0004FFFFD201FFFF30000000
000CFFFF3004FFFF10000000
002FFFF90007FFFD00000000
006FFFF3000AFFFB00000000
009FFFE0000DFFF80004CD00
00BFFFC0002FFFF5019FFF20
00BFFFC0009FFFF35EFFFF10
009FFFF406FFFFFAFFFFF600
006FFFFFFFFFFFFFFFFD3000
001EFFFFFFFFFFFFFF910000
0004FFFFFF9FFFFFE5000000
00003BEEB3BFFFFB20000000
000000001CFFFF7000000000
00000003DFFFFF1000000000
0000003EFFFFFD0000000000
000003EFFFFFFA0000000000
00003EFFC9FFF70000000000
0001DFFC1BFFF30000000000
000BFFD10EFFE00000000000
006FFF304FFFA00000000000
01EFF8009FFF500000000000
06FFE100EFFE100000000000
0BFF9005FFF9000000000000
0EFF700DFFF3000000000000
1FFFA09FFFB0000000000000
0FFFFFFFFF30000000000000
0BFFFFFFF800000000000000
03EFFFFF9000000000000000
003BEEC50000000000000000
ENDCHAR
STARTCHAR Gbreve
ENCODING 286
SWIDTH 811 0
DWIDTH 29 0
BBX 32 57 2 -17
BITMAP
00000000016730000000047300000000
000000000AFFE30000009FFE00000000
000000000CFFFD40003BFFFE00000000
0000000008FFFFFFEFFFFFF800000000
0000000001DFFFFFFFFFFFB100000000
00000000001BFFFFFFFFF91000000000
00000000000049DEFDC8200000000000
00000000000000000000000000000000
00000000000000000000000000000000
0000000000169CEFEDB7100000000000
0000000029EFFFFFFFFFE60000000000
00000007EFFFFFFFFFFFFF7000000000
000001AFFFFFFFFEFFFFFFF300000000
00001BFFFFFE730004CFFFFA00000000
0000AFFFFF910000002EFFFE00000000
0006FFFFF6000000000BFFFF20000000
001EFFFF800000000009FFFF30000000
009FFFFC00000000000AFFFF30000000
01EFFFF500000000000CFFFF10000000
07FFFFD000000000000DFFFB00000000
0BFFFF7000000000000AFFF500000000
1FFFFF30000000000001894000000000
4FFFFE00000000000000000000000000
6FFFFC00000000000000000000000000
8FFFFA00000000000000000000000000
9FFFFA00000000000000000000000000
AFFFF900000000000000000000000000
AFFFFA0000000008DEEEEEED80000000
9FFFFB000000003FFFFFFFFFF2000000
8FFFFE000000003FFFFFFFFFF1000000
5FFFFF200000000AEFFFFFFFE0000000
1FFFFF800000000000009FFFC0000000
0BFFFFE2000000000000BFFF90000440
03FFFFFC100000000000DFFF7001AFF1
00AFFFFFD30000000000FFFF506EFFF1
001DFFFFFFB62000137CFFFF4AFFFFC0
0002DFFFFFFFFFEEFFFFFFFFEFFFFA10
00001AFFFFFFFFFFFFFFFFFFFFFE5000
0000004BFFFFFFFFFFFFFFFFFFB10000
0000000027ADEFFDB84BFFFFE6000000
000000000000000001AFFFFC20000000
00000000000000001CFFFFF300000000
0000000000000002DFFFFFE000000000
000000000000003EFFFFFFB000000000
00000000000002EFFCAFFF8000000000
0000000000001DFFC1CFFF4000000000
000000000000BFFD11FFFE0000000000
000000000007FFE205FFFB0000000000
00000000001EFF7009FFF60000000000
00000000007FFE000EFFF10000000000
0000000000CFF9005FFFA00000000000
0000000000FFF600DFFF300000000000
0000000001FFF909FFFB000000000000
0000000001FFFFFFFFF3000000000000
0000000000CFFFFFFF80000000000000
00000000004FFFFFF900000000000000
000000000003BEEB5000000000000000
ENDCHAR
STARTCHAR gbreve
ENCODING 287
SWIDTH 479 0
DWIDTH 17 0
BBX 23 44 -1 -17
BITMAP
000003CE800000002CE80000
00000AFFF3000000BFFF0000
00000BFFFB000006FFFD0000
000008FFFFA2017FFFF90000
000002FFFFFFEFFFFFE20000
0000006FFFFFFFFFFF500000
00000006EFFFFFFFD3000000
0000000027CEFDB610000000
000000000000000000000000
000000000000000000000000
0000000039DFC10000000000
0000001AFFFFF87710000000
000002DFFFFFFFFF80000000
00001DFFFFFFFFFF80000000
0000AFFFFD50DFFF60000000
0004FFFFD201FFFF30000000
000CFFFF3004FFFF10000000
002FFFF90007FFFD00000000
006FFFF3000AFFFB00000000
009FFFE0000DFFF80004CD00
00BFFFC0002FFFF5019FFF20
00BFFFC0009FFFF35EFFFF10
009FFFF406FFFFFAFFFFF600
006FFFFFFFFFFFFFFFFD3000
001EFFFFFFFFFFFFFF910000
0004FFFFFF9FFFFFE5000000
00003BEEB3BFFFFB20000000
000000001CFFFF7000000000
00000003DFFFFF1000000000
0000003EFFFFFD0000000000
000003EFFFFFFA0000000000
00003EFFC9FFF70000000000
0001DFFC1BFFF30000000000
000BFFD10EFFE00000000000
006FFF304FFFA00000000000
01EFF8009FFF500000000000
06FFE100EFFE100000000000
0BFF9005FFF9000000000000
0EFF700DFFF3000000000000
1FFFA09FFFB0000000000000
0FFFFFFFFF30000000000000
0BFFFFFFF800000000000000
03EFFFFF9000000000000000
003BEEC50000000000000000
ENDCHAR
STARTCHAR Gdotaccent
ENCODING 288
SWIDTH 811 0
DWIDTH 29 0
BBX 32 56 2 -17
BITMAP
000000000000004CED70000000000000
00000000000005FFFFF6000000000000
0000000000000CFFFFFA000000000000
0000000000000CFFFFF9000000000000
00000000000008FFFFF3000000000000
000000000000019DEC40000000000000
00000000000000000000000000000000
00000000000000000000000000000000
0000000000169CEFEDB7100000000000
0000000029EFFFFFFFFFE60000000000
00000007EFFFFFFFFFFFFF7000000000
000001AFFFFFFFFEFFFFFFF300000000
00001BFFFFFE730004CFFFFA00000000
0000AFFFFF910000002EFFFE00000000
0006FFFFF6000000000BFFFF20000000
001EFFFF800000000009FFFF30000000
009FFFFC00000000000AFFFF30000000
01EFFFF500000000000CFFFF10000000
07FFFFD000000000000DFFFB00000000
0BFFFF7000000000000AFFF500000000
1FFFFF30000000000001894000000000
4FFFFE00000000000000000000000000
6FFFFC00000000000000000000000000
8FFFFA00000000000000000000000000
9FFFFA00000000000000000000000000
AFFFF900000000000000000000000000
AFFFFA0000000008DEEEEEED80000000
9FFFFB000000003FFFFFFFFFF2000000
8FFFFE000000003FFFFFFFFFF1000000
5FFFFF200000000AEFFFFFFFE0000000
1FFFFF800000000000009FFFC0000000
0BFFFFE2000000000000BFFF90000440
03FFFFFC100000000000DFFF7001AFF1
00AFFFFFD30000000000FFFF506EFFF1
001DFFFFFFB62000137CFFFF4AFFFFC0
0002DFFFFFFFFFEEFFFFFFFFEFFFFA10
00001AFFFFFFFFFFFFFFFFFFFFFE5000
0000004BFFFFFFFFFFFFFFFFFFB10000
0000000027ADEFFDB84BFFFFE6000000
000000000000000001AFFFFC20000000
00000000000000001CFFFFF300000000
0000000000000002DFFFFFE000000000
000000000000003EFFFFFFB000000000
00000000000002EFFCAFFF8000000000
0000000000001DFFC1CFFF4000000000
000000000000BFFD11FFFE0000000000
000000000007FFE205FFFB0000000000
00000000001EFF7009FFF60000000000
00000000007FFE000EFFF10000000000
0000000000CFF9005FFFA00000000000
0000000000FFF600DFFF300000000000
0000000001FFF909FFFB000000000000
0000000001FFFFFFFFF3000000000000
0000000000CFFFFFFF80000000000000
00000000004FFFFFF900000000000000
000000000003BEEB5000000000000000
ENDCHAR
STARTCHAR gdotaccent
ENCODING 289
SWIDTH 479 0
DWIDTH 17 0
BBX 23 42 -1 -17
BITMAP
00000000004CED7000000000
0000000004FFFFF500000000
000000000AFFFFF900000000
000000000BFFFFF800000000
0000000007FFFFE200000000
00000000008DEB3000000000
000000000000000000000000
000000000000000000000000
0000000039DFC10000000000
0000001AFFFFF87710000000
000002DFFFFFFFFF80000000
00001DFFFFFFFFFF80000000
0000AFFFFD50DFFF60000000
0004FFFFD201FFFF30000000
000CFFFF3004FFFF10000000
002FFFF90007FFFD00000000
006FFFF3000AFFFB00000000
009FFFE0000DFFF80004CD00
00BFFFC0002FFFF5019FFF20
00BFFFC0009FFFF35EFFFF10
009FFFF406FFFFFAFFFFF600
006FFFFFFFFFFFFFFFFD3000
001EFFFFFFFFFFFFFF910000
0004FFFFFF9FFFFFE5000000
00003BEEB3BFFFFB20000000
000000001CFFFF7000000000
00000003DFFFFF1000000000
0000003EFFFFFD0000000000
000003EFFFFFFA0000000000
00003EFFC9FFF70000000000
0001DFFC1BFFF30000000000
000BFFD10EFFE00000000000
006FFF304FFFA00000000000
01EFF8009FFF500000000000
06FFE100EFFE100000000000
0BFF9005FFF9000000000000
0EFF700DFFF3000000000000
1FFFA09FFFB0000000000000
0FFFFFFFFF30000000000000
0BFFFFFFF800000000000000
03EFFFFF9000000000000000
003BEEC50000000000000000
ENDCHAR
STARTCHAR uni0122
ENCODING 290
SWIDTH 811 0
DWIDTH 29 0
BBX 32 48 2 -17
BITMAP
0000000000169CEFEDB7100000000000
0000000029EFFFFFFFFFE60000000000
00000007EFFFFFFFFFFFFF7000000000
000001AFFFFFFFFEFFFFFFF300000000
00001BFFFFFE730004CFFFFA00000000
0000AFFFFF910000002EFFFE00000000
0006FFFFF6000000000BFFFF20000000
001EFFFF800000000009FFFF30000000
009FFFFC00000000000AFFFF30000000
01EFFFF500000000000CFFFF10000000
07FFFFD000000000000DFFFB00000000
0BFFFF7000000000000AFFF500000000
1FFFFF30000000000001894000000000
4FFFFE00000000000000000000000000
6FFFFC00000000000000000000000000
8FFFFA00000000000000000000000000
9FFFFA00000000000000000000000000
AFFFF900000000000000000000000000
AFFFFA0000000008DEEEEEED80000000
9FFFFB000000003FFFFFFFFFF2000000
8FFFFE000000003FFFFFFFFFF1000000
5FFFFF200000000AEFFFFFFFE0000000
1FFFFF800000000000009FFFC0000000
0BFFFFE2000000000000BFFF90000440
03FFFFFC100000000000DFFF7001AFF1
00AFFFFFD30000000000FFFF506EFFF1
001DFFFFFFB62000137CFFFF4AFFFFC0
0002DFFFFFFFFFEEFFFFFFFFEFFFFA10
00001AFFFFFFFFFFFFFFFFFFFFFE5000
0000004BFFFFFFFFFFFFFFFFFFB10000
0000000027ADEFFDB84BFFFFE6000000
000000000000000001AFFFFC20000000
00000000000000001CFFFFF300000000
000001BEC3000002DFFFFFE000000000
000007FFFB00003EFFFFFFB000000000
000009FFFA0002EFFCAFFF8000000000
00000AFFF6001DFFC1CFFF4000000000
00000AFFF100BFFD11FFFE0000000000
00000AFFA007FFE205FFFB0000000000
000005ED301EFF7009FFF60000000000
00000000007FFE000EFFF10000000000
0000000000CFF9005FFFA00000000000
0000000000FFF600DFFF300000000000
0000000001FFF909FFFB000000000000
0000000001FFFFFFFFF3000000000000
0000000000CFFFFFFF80000000000000
00000000004FFFFFF900000000000000
000000000003BEEB5000000000000000
ENDCHAR
STARTCHAR uni0123
ENCODING 291
SWIDTH 479 0
DWIDTH 17 0
BBX 23 45 -1 -17
BITMAP
000000000003CEA000000000
00000000000BFFF400000000
00000000000EFFF500000000
00000000000FFFF300000000
00000000001FFFD000000000
00000000001FFF8000000000
00000000002FFF3000000000
00000000002FFD0000000000
00000000000BE50000000000
000000000000000000000000
000000000000000000000000
0000000039DFC10000000000
0000001AFFFFF87710000000
000002DFFFFFFFFF80000000
00001DFFFFFFFFFF80000000
0000AFFFFD50DFFF60000000
0004FFFFD201FFFF30000000
000CFFFF3004FFFF10000000
002FFFF90007FFFD00000000
006FFFF3000AFFFB00000000
009FFFE0000DFFF80004CD00
00BFFFC0002FFFF5019FFF20
00BFFFC0009FFFF35EFFFF10
009FFFF406FFFFFAFFFFF600
006FFFFFFFFFFFFFFFFD3000
001EFFFFFFFFFFFFFF910000
0004FFFFFF9FFFFFE5000000
00003BEEB3BFFFFB20000000
000000001CFFFF7000000000
00000003DFFFFF1000000000
0000003EFFFFFD0000000000
000003EFFFFFFA0000000000
00003EFFC9FFF70000000000
0001DFFC1BFFF30000000000
000BFFD10EFFE00000000000
006FFF304FFFA00000000000
01EFF8009FFF500000000000
06FFE100EFFE100000000000
0BFF9005FFF9000000000000
0EFF700DFFF3000000000000
1FFFA09FFFB0000000000000
0FFFFFFFFF30000000000000
0BFFFFFFF800000000000000
03EFFFFF9000000000000000
003BEEC50000000000000000
ENDCHAR
STARTCHAR Hcircumflex
ENCODING 292
SWIDTH 873 0
DWIDTH 31 0
BBX 38 43 -1 0
BITMAP
00000000000000000007DFD400000000000000
000000000000000000AFFFFF20000000000000
000000000000000006FFFFFF90000000000000
00000000000000002EFFFDFFE1000000000000
0000000000000000BFFF98FFF6000000000000
0000000000000006FFFE23FFFC000000000000
000000000000001EFFF700EFFF200000000000
000000000000009FFFD100AFFF700000000000
00000000000000DFFF50006FFF700000000000
000000000000006EE700000AEB100000000000
00000000000000000000000000000000000000
000000000000000000000000000029DFC40000
00000038CEFC7000000000000005EFFFFF3000
00001AFFFFFFFA0000000000005FFFFFFFB000
0004EFFFFFFFFF500000000002EFFF53FFF100
005FFFFFEFFFFFB0000000000BFFF800CFF300
04FFFF8107FFFFE0000000004FFFE100CFF400
1EFFE30000EFFFF100000000CFFF8000DFF300
6FFE300000CFFFF100000003FFFF2001FFF100
8FF5000000CFFFF100000008FFFD0004FFE000
3D70000000DFFFF00000000DFFF8000AFFA000
0000000000EFFFE00000003FFFF4003FFF4000
0000000001FFFFD00000008FFFF101DFFD0000
0000000002FFFFB0000000BFFFD02CFFF40000
0000000005FFFF90000000EFFFB8EFFF800000
0000000007FFFF60000002FFFFFFFFFA000000
0000000009FFFF8555667BFFFFFFFF80000000
000008DEEFFFFFFFFFFFFFFFFFFFC300000000
00006FFFFFFFFFFFFFFFFFFFFFC50000000000
00008FFFFFFFFFFFFFFFDEFFFF200000000000
00002CFFFFFFFB8764310CFFFF200000000000
00000000AFFFF40000000DFFFF100000000000
00000000EFFFF10000000DFFFF100000000000
00000002FFFFD00000000CFFFF200000000000
00000005FFFFA00000000BFFFF300000000110
00000009FFFF7000000009FFFF500000002ED0
0000000CFFFF3000000006FFFF90000001CFF1
0000001FFFFF0000000002FFFFE100001BFFE0
0000004FFFFC0000000000CFFFFC2015DFFF60
0000008FFFF800000000004FFFFFFEFFFFF900
000000AFFFF4000000000008FFFFFFFFFF9000
0000009FFFC00000000000008FFFFFFFE60000
0000002CEB20000000000000039DFEC7100000
ENDCHAR
STARTCHAR hcircumflex
ENCODING 293
SWIDTH 502 0
DWIDTH 18 0
BBX 22 46 1 0
BITMAP
00000000018DEC20000000
000000001CFFFFD0000000
00000000AFFFFFF6000000
00000004FFFEFFFC000000
0000001DFFF6BFFF200000
0000009FFFC07FFF800000
000004FFFF403FFFD00000
00000DFFFA000EFFF30000
00001FFFF20009FFF40000
000009ED400002CE900000
0000000000000000000000
0000000000000000000000
000000005CFD7000000000
00000009FFFFF700000000
0000008FFFFFFE10000000
000003FFFFFFFF50000000
00000BFFF45FFF70000000
00003FFFA01FFF70000000
0000AFFF401FFF60000000
0001FFFE002FFF30000000
0006FFF9005FFF10000000
000BFFF5009FFB00000000
001FFFF100EFF500000000
004FFFD006FFD000000000
008FFFA01DFF6000000000
00BFFF707FFC0000000000
00EFFF42EFF40000000000
02FFFF2CFF800000000000
04FFFE9FFC000000000000
06FFFFFFE217CEC2000000
08FFFFFF43DFFFFA000000
0AFFFFF62EFFFFFC000000
0CFFFF81DFFFFFFB000000
0DFFFA09FFFFFFF9000000
0EFFF63FFFAFFFF6000000
0EFFF6BFF62FFFF3000000
0FFFF8FFB03FFFF0000000
0FFFFEFF206FFFC0000020
0FFFFFFA009FFF900006F8
1FFFFFF400CFFF70005FFA
1FFFFFD000EFFF5004EFF8
1FFFFF8001FFFF806EFFE2
1FFFFF4000FFFFFFFFFE40
1FFFFE0000CFFFFFFFE400
0EFFF700005FFFFFFC2000
07ED70000006DFEB600000
ENDCHAR
STARTCHAR Hbar
ENCODING 294
SWIDTH 856 0
DWIDTH 31 0
BBX 30 31 2 0
BITMAP
000001AEEA0000000000005DFD3000
000008FFFF400000000002FFFFB000
00000CFFFF500000000005FFFFC000
00000EFFFF400000000007FFFFB000
00000FFFFF200000000009FFFF9000
019DEFFFFFEEEEEEEEEEEFFFFFFEB2
09FFFFFFFFFFFFFFFFFFFFFFFFFFF9
0CFFFFFFFFFFFFFFFFFFFFFFFFFFF8
06EFFFFFFFFFFFFFFFFFFFFFFFFEB1
0000AFFFF600000000003FFFFD0000
0000CFFFF400000000005FFFFA0000
0000EFFFF100000000007FFFF80000
0001FFFFE000000000009FFFF60000
2ADEFFFFFEEEEEEEEEEEFFFFFEDB10
CFFFFFFFFFFFFFFFFFFFFFFFFFFF70
EFFFFFFFFFFFFFFFFFFFFFFFFFFF60
8EFFFFFFFFFFFFFFFFFFFFFFFFE900
000FFFFF100000000008FFFF700000
002FFFFD00000000000AFFFF500000
005FFFFB00000000000DFFFF300000
007FFFF900000000000FFFFF100000
00AFFFF700000000003FFFFE000000
00CFFFF500000000005FFFFC000000
00EFFFF300000000007FFFFA000000
01FFFFF100000000009FFFF8000000
03FFFFE00000000000CFFFF6000000
05FFFFD00000000000DFFFF5000000
07FFFFB00000000000FFFFF3000000
08FFFFA00000000001FFFFF1000000
06FFFF600000000000EFFFD0000000
00AEE90000000000005DFC30000000
ENDCHAR
STARTCHAR hbar
ENCODING 295
SWIDTH 502 0
DWIDTH 18 0
BBX 22 31 1 0
BITMAP
0000004750000000000000
000008FFF8000000000000
00001FFFF9000000000000
00006FFFF6000000000000
0000BFFFF1000000000000
0000EFFFC0000000000000
09EEFFFFFEEEED70000000
1FFFFFFFFFFFFFE0000000
0EFFFFFFFFFFFFE0000000
039FFFFFFFFFFD50000000
001FFFFA00000000000000
004FFFF600000000000000
007FFFF300000000000000
00AFFFF000000000000000
00CFFFC00017CEC2000000
00FFFF9003DFFFFA000000
02FFFF602EFFFFFC000000
04FFFF31DFFFFFFB000000
06FFFF09FFFFFFF9000000
08FFFD3FFFAFFFF6000000
09FFFABFF62FFFF3000000
0BFFFBFFB03FFFF0000000
0CFFFEFF206FFFC0000020
0DFFFFFA009FFF900006F8
0EFFFFF400CFFF70005FFA
0EFFFFD000EFFF5004EFF8
0EFFFF8001FFFF806EFFE2
0DFFFF4000FFFFFFFFFF40
0BFFFE0000CFFFFFFFE500
07FFF900005FFFFFFD3000
01BFC2000006DFEB600000
ENDCHAR
ENDFONT
